shantell_organic--extrabold_Italic.ufo
<glyph name="dollar" format="2">
	<unicode hex="0024"/>
	<advance width="700"/>
	<outline>
		<contour>
			<point x="247.749" y="-9" type="curve" smooth="yes"/>
			<point x="477.49" y="-9"/>
			<point x="604.76" y="40.492"/>
			<point x="629" y="159" type="curve" smooth="yes"/>
			<point x="678.237" y="405.186"/>
			<point x="253.904" y="385.701"/>
			<point x="266.749" y="451" type="curve" smooth="yes"/>
			<point x="277.749" y="504"/>
			<point x="394.749" y="529"/>
			<point x="624.749" y="540" type="curve" smooth="yes"/>
			<point x="672.749" y="542"/>
			<point x="708.749" y="576"/>
			<point x="716.749" y="615" type="curve" smooth="yes"/>
			<point x="726.749" y="664"/>
			<point x="707.749" y="710"/>
			<point x="622.749" y="710" type="curve" smooth="yes"/>
			<point x="471.955" y="710"/>
			<point x="125.205" y="645.1"/>
			<point x="91" y="475" type="curve" smooth="yes"/>
			<point x="46.159" y="248.661"/>
			<point x="461.679" y="286.561"/>
			<point x="462.749" y="172" type="curve"/>
			<point x="391.749" y="158"/>
			<point x="352.749" y="158"/>
			<point x="256.749" y="158" type="curve" smooth="yes"/>
			<point x="163.058" y="158"/>
			<point x="146.214" y="194"/>
			<point x="102" y="194" type="curve" smooth="yes"/>
			<point x="58.164" y="194"/>
			<point x="45" y="173"/>
			<point x="40" y="141" type="curve" smooth="yes"/>
			<point x="29" y="70"/>
			<point x="93.668" y="-9"/>
		</contour>
		<contour>
			<point x="370.749" y="300" type="curve" smooth="yes"/>
			<point x="402.749" y="300"/>
			<point x="424.749" y="322"/>
			<point x="440.749" y="356" type="curve" smooth="yes"/>
			<point x="492.749" y="473"/>
			<point x="541.749" y="636"/>
			<point x="540.749" y="750" type="curve" smooth="yes"/>
			<point x="538.749" y="785"/>
			<point x="507.749" y="811"/>
			<point x="467.749" y="811" type="curve" smooth="yes"/>
			<point x="417.749" y="811"/>
			<point x="367.749" y="765"/>
			<point x="365.749" y="717" type="curve" smooth="yes"/>
			<point x="362.749" y="630"/>
			<point x="351.749" y="511"/>
			<point x="329.749" y="403" type="curve" smooth="yes"/>
			<point x="314.749" y="336"/>
			<point x="315.749" y="299"/>
		</contour>
		<contour>
			<point x="359.749" y="340" type="curve" smooth="yes"/>
			<point x="326.749" y="340"/>
			<point x="296.749" y="320"/>
			<point x="281.749" y="278" type="curve" smooth="yes"/>
			<point x="225.749" y="128"/>
			<point x="206.749" y="64"/>
			<point x="195.749" y="-65" type="curve" smooth="yes"/>
			<point x="193.749" y="-97"/>
			<point x="221.749" y="-138"/>
			<point x="291.749" y="-138" type="curve" smooth="yes"/>
			<point x="328.749" y="-138"/>
			<point x="350.749" y="-113"/>
			<point x="361.749" y="-51" type="curve" smooth="yes"/>
			<point x="374.749" y="42"/>
			<point x="384.749" y="159"/>
			<point x="400.749" y="245" type="curve" smooth="yes"/>
			<point x="410.749" y="305"/>
			<point x="396.749" y="340"/>
		</contour>
	</outline>
</glyph>
<glyph name="comma" format="2">
	<unicode hex="002C"/>
	<advance width="322"/>
	<outline>
		<contour>
			<point x="140.337" y="204" type="curve" smooth="yes"/>
			<point x="86.337" y="204"/>
			<point x="54.337" y="168"/>
			<point x="43.337" y="113" type="curve" smooth="yes"/>
			<point x="37.337" y="86"/>
			<point x="33.337" y="13"/>
			<point x="-10.663" y="-64" type="curve" smooth="yes"/>
			<point x="-27.663" y="-93"/>
			<point x="-34.663" y="-112"/>
			<point x="-38.663" y="-130" type="curve" smooth="yes"/>
			<point x="-44.663" y="-162"/>
			<point x="-30.663" y="-180"/>
			<point x="7.337" y="-180" type="curve" smooth="yes"/>
			<point x="52.337" y="-180"/>
			<point x="107.337" y="-145"/>
			<point x="141.337" y="-103" type="curve" smooth="yes"/>
			<point x="188.337" y="-47"/>
			<point x="226.337" y="29"/>
			<point x="240.337" y="98" type="curve" smooth="yes"/>
			<point x="252.337" y="161"/>
			<point x="214.337" y="204"/>
		</contour>
	</outline>
</glyph>
<glyph name="five" format="2">
	<unicode hex="0035"/>
	<advance width="700"/>
	<outline>
		<contour>
			<point x="668.176" y="588" type="curve" smooth="yes"/>
			<point x="704.176" y="588"/>
			<point x="733.176" y="612"/>
			<point x="742.176" y="648" type="curve" smooth="yes"/>
			<point x="756.176" y="707"/>
			<point x="721.176" y="761"/>
			<point x="635.176" y="761" type="curve" smooth="yes"/>
			<point x="493.176" y="761"/>
			<point x="422.176" y="745"/>
			<point x="232.176" y="745" type="curve" smooth="yes"/>
			<point x="196.176" y="745"/>
			<point x="179.176" y="728"/>
			<point x="160.176" y="692" type="curve" smooth="yes"/>
			<point x="121.176" y="620"/>
			<point x="105.176" y="556"/>
			<point x="95.176" y="507" type="curve" smooth="yes"/>
			<point x="72.176" y="392"/>
			<point x="111.176" y="361"/>
			<point x="376.176" y="312" type="curve" smooth="yes"/>
			<point x="455.176" y="298"/>
			<point x="462.176" y="281"/>
			<point x="457.176" y="255" type="curve" smooth="yes"/>
			<point x="441.176" y="174"/>
			<point x="321.176" y="128"/>
			<point x="238.176" y="128" type="curve" smooth="yes"/>
			<point x="162.176" y="128"/>
			<point x="170" y="183"/>
			<point x="124" y="183" type="curve" smooth="yes"/>
			<point x="79" y="183"/>
			<point x="50" y="150"/>
			<point x="42" y="107" type="curve" smooth="yes"/>
			<point x="26" y="28"/>
			<point x="80" y="-42"/>
			<point x="213.176" y="-42" type="curve" smooth="yes"/>
			<point x="435.176" y="-42"/>
			<point x="603" y="43"/>
			<point x="638" y="219" type="curve" smooth="yes"/>
			<point x="661" y="334"/>
			<point x="630.176" y="429"/>
			<point x="423.176" y="466" type="curve" smooth="yes"/>
			<point x="278.176" y="489"/>
			<point x="270.176" y="495"/>
			<point x="274.176" y="517" type="curve" smooth="yes"/>
			<point x="280.176" y="543"/>
			<point x="283.176" y="560"/>
			<point x="308.176" y="597" type="curve"/>
			<point x="233.176" y="572" type="line"/>
			<point x="425.176" y="569"/>
			<point x="505.176" y="588"/>
		</contour>
	</outline>
</glyph>
<glyph name="seven" format="2">
	<unicode hex="0037"/>
	<advance width="700"/>
	<outline>
		<contour>
			<point x="193" y="366" type="curve" smooth="yes"/>
			<point x="151" y="366"/>
			<point x="127" y="342"/>
			<point x="119" y="298" type="curve" smooth="yes"/>
			<point x="109" y="248"/>
			<point x="141" y="201"/>
			<point x="198" y="201" type="curve" smooth="yes"/>
			<point x="271" y="201"/>
			<point x="386.723" y="229"/>
			<point x="554.723" y="229" type="curve" smooth="yes"/>
			<point x="600.723" y="229"/>
			<point x="630.723" y="253"/>
			<point x="637.723" y="289" type="curve" smooth="yes"/>
			<point x="648.723" y="347"/>
			<point x="611.723" y="394"/>
			<point x="532.723" y="394" type="curve" smooth="yes"/>
			<point x="407.723" y="394"/>
			<point x="277" y="366"/>
		</contour>
		<contour>
			<point x="137" y="601" type="curve" smooth="yes"/>
			<point x="107" y="591"/>
			<point x="83" y="568"/>
			<point x="78.723" y="543" type="curve" smooth="yes"/>
			<point x="68" y="492"/>
			<point x="104" y="433"/>
			<point x="146" y="433" type="curve" smooth="yes"/>
			<point x="211" y="433"/>
			<point x="270.723" y="496"/>
			<point x="429.723" y="496" type="curve" smooth="yes"/>
			<point x="473.723" y="496"/>
			<point x="487.723" y="485"/>
			<point x="481.723" y="456" type="curve" smooth="yes"/>
			<point x="470.723" y="399"/>
			<point x="253" y="265"/>
			<point x="228" y="138" type="curve" smooth="yes"/>
			<point x="215" y="75"/>
			<point x="257" y="21"/>
			<point x="315" y="21" type="curve" smooth="yes"/>
			<point x="363" y="21"/>
			<point x="386" y="39"/>
			<point x="398" y="100" type="curve" smooth="yes"/>
			<point x="425" y="236"/>
			<point x="637" y="324"/>
			<point x="663" y="456" type="curve" smooth="yes"/>
			<point x="685" y="566"/>
			<point x="632.723" y="660"/>
			<point x="455.723" y="660" type="curve" smooth="yes"/>
			<point x="379" y="660"/>
			<point x="237" y="636"/>
		</contour>
	</outline>
</glyph>
<glyph name="nine" format="2">
	<unicode hex="0039"/>
	<advance width="700"/>
	<outline>
		<contour>
			<point x="507.448" y="485" type="curve" smooth="yes"/>
			<point x="546.448" y="485"/>
			<point x="570.448" y="518"/>
			<point x="576.448" y="550" type="curve" smooth="yes"/>
			<point x="591.448" y="624"/>
			<point x="527" y="670"/>
			<point x="432" y="670" type="curve" smooth="yes"/>
			<point x="212" y="670"/>
			<point x="99" y="559"/>
			<point x="73" y="431" type="curve" smooth="yes"/>
			<point x="48" y="305"/>
			<point x="118" y="200"/>
			<point x="266" y="200" type="curve" smooth="yes"/>
			<point x="398" y="200"/>
			<point x="481.448" y="251"/>
			<point x="583.448" y="374" type="curve"/>
			<point x="467.448" y="321" type="line"/>
			<point x="449.448" y="230"/>
			<point x="432.448" y="158"/>
			<point x="429.448" y="107" type="curve" smooth="yes"/>
			<point x="429.448" y="53"/>
			<point x="464.448" y="15"/>
			<point x="523.448" y="15" type="curve" smooth="yes"/>
			<point x="568.448" y="15"/>
			<point x="598.448" y="38"/>
			<point x="608.448" y="91" type="curve" smooth="yes"/>
			<point x="614.448" y="118"/>
			<point x="611.448" y="151"/>
			<point x="630.448" y="243" type="curve" smooth="yes"/>
			<point x="640.448" y="295"/>
			<point x="652.448" y="348"/>
			<point x="673.448" y="441" type="curve"/>
			<point x="723.448" y="561"/>
			<point x="703.448" y="626"/>
			<point x="606.448" y="626" type="curve" smooth="yes"/>
			<point x="571.448" y="626"/>
			<point x="542.448" y="602"/>
			<point x="534.448" y="560" type="curve" smooth="yes"/>
			<point x="504.448" y="412"/>
			<point x="409.448" y="368"/>
			<point x="292.448" y="368" type="curve" smooth="yes"/>
			<point x="257.448" y="368"/>
			<point x="243.448" y="385"/>
			<point x="248.448" y="408" type="curve" smooth="yes"/>
			<point x="255.448" y="445"/>
			<point x="305.448" y="499"/>
			<point x="417.448" y="499" type="curve" smooth="yes"/>
			<point x="463.448" y="499"/>
			<point x="481.448" y="485"/>
		</contour>
	</outline>
</glyph>
<glyph name="B" format="2">
	<unicode hex="0042"/>
	<advance width="653"/>
	<outline>
		<contour>
			<point x="256.751" y="357" type="curve" smooth="yes"/>
			<point x="272.751" y="436"/>
			<point x="286.751" y="468"/>
			<point x="309.751" y="549" type="curve" smooth="yes"/>
			<point x="326.751" y="606"/>
			<point x="298.751" y="669"/>
			<point x="242.751" y="669" type="curve" smooth="yes"/>
			<point x="218.751" y="669"/>
			<point x="182.751" y="653"/>
			<point x="166.751" y="619" type="curve" smooth="yes"/>
			<point x="118.751" y="513"/>
			<point x="104.751" y="461"/>
			<point x="72.751" y="301" type="curve" smooth="yes"/>
			<point x="39.751" y="133"/>
			<point x="97" y="-20"/>
			<point x="242" y="-20" type="curve" smooth="yes"/>
			<point x="368" y="-20"/>
			<point x="529.751" y="46"/>
			<point x="559.751" y="193" type="curve" smooth="yes"/>
			<point x="579.751" y="297"/>
			<point x="546.751" y="380"/>
			<point x="401.751" y="397" type="curve"/>
			<point x="399.751" y="342" type="line"/>
			<point x="593.751" y="407"/>
			<point x="644.751" y="490"/>
			<point x="657.751" y="555" type="curve" smooth="yes"/>
			<point x="683.751" y="685"/>
			<point x="563.751" y="752"/>
			<point x="331.751" y="752" type="curve" smooth="yes"/>
			<point x="195.751" y="752"/>
			<point x="125.751" y="707"/>
			<point x="111.751" y="633" type="curve" smooth="yes"/>
			<point x="102.751" y="590"/>
			<point x="121.751" y="564"/>
			<point x="166.751" y="564" type="curve" smooth="yes"/>
			<point x="185.751" y="564"/>
			<point x="233.751" y="568"/>
			<point x="277.751" y="568" type="curve" smooth="yes"/>
			<point x="425.751" y="568"/>
			<point x="463.751" y="557"/>
			<point x="456.751" y="518" type="curve" smooth="yes"/>
			<point x="448.751" y="479"/>
			<point x="250.751" y="417"/>
			<point x="197.751" y="403" type="curve" smooth="yes"/>
			<point x="174.751" y="397"/>
			<point x="151.751" y="369"/>
			<point x="146.751" y="346" type="curve" smooth="yes"/>
			<point x="136.751" y="297"/>
			<point x="155.751" y="262"/>
			<point x="193.751" y="263" type="curve" smooth="yes"/>
			<point x="336.751" y="266"/>
			<point x="400.751" y="252"/>
			<point x="391.751" y="204" type="curve" smooth="yes"/>
			<point x="386.751" y="182"/>
			<point x="304" y="151"/>
			<point x="267" y="151" type="curve" smooth="yes"/>
			<point x="242" y="151"/>
			<point x="225.751" y="199"/>
		</contour>
	</outline>
	<anchor name="bottom" x="229.551" y="-11"/>
	<anchor name="top" x="422.952" y="741"/>
</glyph>
<glyph name="D" format="2">
	<unicode hex="0044"/>
	<advance width="687"/>
	<outline>
		<contour>
			<point x="214" y="35" type="curve" smooth="yes"/>
			<point x="396" y="35"/>
			<point x="622" y="181"/>
			<point x="666" y="397" type="curve" smooth="yes"/>
			<point x="696" y="546"/>
			<point x="612" y="659"/>
			<point x="433" y="659" type="curve" smooth="yes"/>
			<point x="314" y="659"/>
			<point x="151.07" y="628"/>
			<point x="117.07" y="600" type="curve" smooth="yes"/>
			<point x="103.07" y="588"/>
			<point x="93.07" y="572"/>
			<point x="90.07" y="554" type="curve" smooth="yes"/>
			<point x="79.07" y="498"/>
			<point x="134.07" y="453"/>
			<point x="205.07" y="453" type="curve" smooth="yes"/>
			<point x="252.07" y="453"/>
			<point x="300.07" y="482"/>
			<point x="403.07" y="482" type="curve" smooth="yes"/>
			<point x="487.07" y="482"/>
			<point x="502.07" y="459"/>
			<point x="493.07" y="414" type="curve" smooth="yes"/>
			<point x="469.07" y="294"/>
			<point x="325.07" y="213"/>
			<point x="148.07" y="190" type="curve"/>
			<point x="241.07" y="154" type="line"/>
			<point x="245.07" y="195"/>
			<point x="248.07" y="228"/>
			<point x="252.07" y="251" type="curve" smooth="yes"/>
			<point x="272.07" y="350"/>
			<point x="296.07" y="419"/>
			<point x="309.07" y="486" type="curve" smooth="yes"/>
			<point x="320.07" y="539"/>
			<point x="288.07" y="571"/>
			<point x="240.07" y="571" type="curve" smooth="yes"/>
			<point x="179.07" y="571"/>
			<point x="158.07" y="552"/>
			<point x="146.07" y="511" type="curve" smooth="yes"/>
			<point x="115.07" y="418"/>
			<point x="91.07" y="336"/>
			<point x="71.07" y="237" type="curve" smooth="yes"/>
			<point x="51.07" y="137"/>
			<point x="113" y="35"/>
		</contour>
	</outline>
	<anchor name="bottom" x="189.67" y="43"/>
	<anchor name="top" x="446.671" y="643"/>
</glyph>
<glyph name="G" format="2">
	<unicode hex="0047"/>
	<advance width="849"/>
	<outline>
		<contour>
			<point x="383.231" y="246" type="curve" smooth="yes"/>
			<point x="454.231" y="246"/>
			<point x="539.231" y="273"/>
			<point x="750.231" y="273" type="curve" smooth="yes"/>
			<point x="816.231" y="273"/>
			<point x="849" y="302"/>
			<point x="859" y="353" type="curve" smooth="yes"/>
			<point x="868" y="400"/>
			<point x="846" y="439"/>
			<point x="761.231" y="439" type="curve" smooth="yes"/>
			<point x="610.231" y="439"/>
			<point x="494.231" y="428"/>
			<point x="386.231" y="398" type="curve" smooth="yes"/>
			<point x="333.231" y="384"/>
			<point x="317.231" y="368"/>
			<point x="310.231" y="333" type="curve" smooth="yes"/>
			<point x="300.231" y="283"/>
			<point x="334.231" y="246"/>
		</contour>
		<contour>
			<point x="590" y="-109" type="curve" smooth="yes"/>
			<point x="626.231" y="-109"/>
			<point x="670" y="-99"/>
			<point x="678" y="-59" type="curve" smooth="yes"/>
			<point x="682" y="-36"/>
			<point x="679.231" y="-19"/>
			<point x="667.231" y="28" type="curve" smooth="yes"/>
			<point x="647.231" y="95"/>
			<point x="647.231" y="147"/>
			<point x="676.231" y="289" type="curve" smooth="yes"/>
			<point x="683.231" y="326"/>
			<point x="658.231" y="348"/>
			<point x="604.231" y="348" type="curve" smooth="yes"/>
			<point x="559.231" y="348"/>
			<point x="542.231" y="335"/>
			<point x="509.231" y="296" type="curve" smooth="yes"/>
			<point x="428.231" y="200"/>
			<point x="342.231" y="167"/>
			<point x="276.231" y="167" type="curve" smooth="yes"/>
			<point x="223.231" y="167"/>
			<point x="202.231" y="195"/>
			<point x="214.231" y="254" type="curve" smooth="yes"/>
			<point x="238.231" y="377"/>
			<point x="379.231" y="520"/>
			<point x="520.231" y="520" type="curve" smooth="yes"/>
			<point x="572.231" y="520"/>
			<point x="580.231" y="496"/>
			<point x="613.231" y="496" type="curve" smooth="yes"/>
			<point x="655" y="496"/>
			<point x="697" y="529"/>
			<point x="709" y="583" type="curve" smooth="yes"/>
			<point x="723" y="653"/>
			<point x="664" y="707"/>
			<point x="570" y="707" type="curve" smooth="yes"/>
			<point x="333" y="707"/>
			<point x="79" y="522"/>
			<point x="30" y="280" type="curve" smooth="yes"/>
			<point x="1" y="131"/>
			<point x="75" y="-8"/>
			<point x="234" y="-8" type="curve" smooth="yes"/>
			<point x="333" y="-8"/>
			<point x="436.231" y="35"/>
			<point x="504.231" y="120" type="curve"/>
			<point x="479.231" y="124" type="line"/>
			<point x="475.231" y="31"/>
			<point x="480.231" y="-11"/>
			<point x="495.231" y="-51" type="curve" smooth="yes"/>
			<point x="513.231" y="-92"/>
			<point x="546.231" y="-109"/>
		</contour>
	</outline>
	<anchor name="bottom" x="334.231" y="0"/>
	<anchor name="top" x="582.231" y="700"/>
</glyph>
<glyph name="H" format="2">
	<unicode hex="0048"/>
	<advance width="730"/>
	<outline>
		<contour>
			<point x="145.618" y="8" type="curve" smooth="yes"/>
			<point x="194.618" y="8"/>
			<point x="230.618" y="35"/>
			<point x="240.618" y="86" type="curve" smooth="yes"/>
			<point x="266.618" y="215"/>
			<point x="291.618" y="416"/>
			<point x="332.618" y="620" type="curve" smooth="yes"/>
			<point x="348.618" y="701"/>
			<point x="305" y="739"/>
			<point x="250" y="739" type="curve" smooth="yes"/>
			<point x="191" y="739"/>
			<point x="157.618" y="712"/>
			<point x="144.618" y="643" type="curve" smooth="yes"/>
			<point x="131.618" y="581"/>
			<point x="114.618" y="384"/>
			<point x="69.618" y="184" type="curve" smooth="yes"/>
			<point x="40.618" y="55"/>
			<point x="78.618" y="8"/>
		</contour>
		<contour>
			<point x="519.618" y="-71" type="curve" smooth="yes"/>
			<point x="567.618" y="-71"/>
			<point x="599.618" y="-44"/>
			<point x="609.618" y="3" type="curve" smooth="yes"/>
			<point x="620.618" y="58"/>
			<point x="612.618" y="113"/>
			<point x="631.618" y="211" type="curve" smooth="yes"/>
			<point x="650.618" y="308"/>
			<point x="681.618" y="428"/>
			<point x="700.618" y="524" type="curve" smooth="yes"/>
			<point x="720.618" y="625"/>
			<point x="689.618" y="674"/>
			<point x="632.618" y="674" type="curve" smooth="yes"/>
			<point x="583.618" y="674"/>
			<point x="548.618" y="648"/>
			<point x="536.618" y="591" type="curve" smooth="yes"/>
			<point x="521.618" y="514"/>
			<point x="478.618" y="357"/>
			<point x="445.618" y="191" type="curve" smooth="yes"/>
			<point x="412.618" y="27"/>
			<point x="434.618" y="-71"/>
		</contour>
		<contour>
			<point x="178.618" y="276" type="curve" smooth="yes"/>
			<point x="245.618" y="276"/>
			<point x="360.618" y="306"/>
			<point x="654.618" y="306" type="curve" smooth="yes"/>
			<point x="697.618" y="306"/>
			<point x="722.618" y="329"/>
			<point x="729.618" y="366" type="curve" smooth="yes"/>
			<point x="738.618" y="410"/>
			<point x="712.618" y="469"/>
			<point x="586.618" y="469" type="curve" smooth="yes"/>
			<point x="419.618" y="469"/>
			<point x="246.618" y="471"/>
			<point x="95.618" y="429" type="curve" smooth="yes"/>
			<point x="59.618" y="420"/>
			<point x="40.618" y="401"/>
			<point x="35.618" y="373" type="curve" smooth="yes"/>
			<point x="25.618" y="324"/>
			<point x="60.618" y="276"/>
		</contour>
	</outline>
	<anchor name="bottom" x="317.618" y="0"/>
	<anchor name="top" x="457.619" y="700"/>
</glyph>
<glyph name="N" format="2">
	<unicode hex="004E"/>
	<advance width="822"/>
	<outline>
		<contour>
			<point x="112" y="42" type="curve" smooth="yes"/>
			<point x="160" y="42"/>
			<point x="191" y="66"/>
			<point x="211" y="102" type="curve" smooth="yes"/>
			<point x="235" y="151"/>
			<point x="249.722" y="228"/>
			<point x="267.722" y="316" type="curve" smooth="yes"/>
			<point x="278.722" y="375"/>
			<point x="282.722" y="407"/>
			<point x="285.722" y="488" type="curve"/>
			<point x="234" y="428" type="line"/>
			<point x="362" y="280"/>
			<point x="363.722" y="42"/>
			<point x="548.722" y="42" type="curve" smooth="yes"/>
			<point x="678.722" y="42"/>
			<point x="717.722" y="134"/>
			<point x="743.722" y="261" type="curve" smooth="yes"/>
			<point x="763.722" y="361"/>
			<point x="759.722" y="410"/>
			<point x="798.722" y="505" type="curve" smooth="yes"/>
			<point x="817.722" y="553"/>
			<point x="813.722" y="620"/>
			<point x="731.722" y="620" type="curve" smooth="yes"/>
			<point x="693.722" y="620"/>
			<point x="657" y="599"/>
			<point x="636" y="553" type="curve" smooth="yes"/>
			<point x="596" y="468"/>
			<point x="599" y="388"/>
			<point x="579" y="286" type="curve" smooth="yes"/>
			<point x="561" y="196"/>
			<point x="530" y="169"/>
			<point x="500" y="155" type="curve"/>
			<point x="587" y="189" type="line"/>
			<point x="466" y="257"/>
			<point x="448" y="615"/>
			<point x="232.722" y="615" type="curve" smooth="yes"/>
			<point x="168.722" y="615"/>
			<point x="135.722" y="579"/>
			<point x="125.722" y="528" type="curve" smooth="yes"/>
			<point x="117.722" y="490"/>
			<point x="115.722" y="406"/>
			<point x="100.722" y="329" type="curve" smooth="yes"/>
			<point x="69.722" y="175"/>
			<point x="42.722" y="152"/>
			<point x="34.722" y="111" type="curve" smooth="yes"/>
			<point x="27.722" y="75"/>
			<point x="54" y="42"/>
		</contour>
	</outline>
	<anchor name="bottom" x="356.722" y="55"/>
	<anchor name="top" x="467.122" y="607"/>
</glyph>
<glyph name="O" format="2">
	<unicode hex="004F"/>
	<advance width="657"/>
	<outline>
		<contour>
			<point x="319.305" y="433" type="curve" smooth="yes"/>
			<point x="352.305" y="454"/>
			<point x="364.305" y="501"/>
			<point x="345.305" y="535" type="curve" smooth="yes"/>
			<point x="334.305" y="556"/>
			<point x="308.305" y="566"/>
			<point x="285.305" y="566" type="curve" smooth="yes"/>
			<point x="242.305" y="566"/>
			<point x="77" y="482"/>
			<point x="44" y="321" type="curve" smooth="yes"/>
			<point x="12" y="157"/>
			<point x="120" y="36"/>
			<point x="286" y="36" type="curve" smooth="yes"/>
			<point x="458" y="36"/>
			<point x="602" y="123"/>
			<point x="635" y="285" type="curve" smooth="yes"/>
			<point x="669" y="458"/>
			<point x="575" y="640"/>
			<point x="393.305" y="640" type="curve" smooth="yes"/>
			<point x="298.305" y="640"/>
			<point x="234.305" y="590"/>
			<point x="223.305" y="535" type="curve" smooth="yes"/>
			<point x="206.305" y="452"/>
			<point x="250.305" y="411"/>
			<point x="301.305" y="411" type="curve" smooth="yes"/>
			<point x="325.305" y="411"/>
			<point x="347.305" y="424"/>
			<point x="352.305" y="448" type="curve" smooth="yes"/>
			<point x="355.305" y="463"/>
			<point x="363.305" y="472"/>
			<point x="378.305" y="472" type="curve" smooth="yes"/>
			<point x="437.305" y="472"/>
			<point x="479.305" y="383"/>
			<point x="464.305" y="310" type="curve" smooth="yes"/>
			<point x="451" y="244"/>
			<point x="388" y="200"/>
			<point x="298.305" y="200" type="curve" smooth="yes"/>
			<point x="238.305" y="200"/>
			<point x="198.305" y="233"/>
			<point x="211.305" y="300" type="curve" smooth="yes"/>
			<point x="221.305" y="350"/>
			<point x="243.305" y="384"/>
		</contour>
	</outline>
	<anchor name="bottom" x="272.705" y="47"/>
	<anchor name="ogonek" x="421.505" y="76"/>
	<anchor name="top" x="389.106" y="629"/>
</glyph>
<glyph name="P" format="2">
	<unicode hex="0050"/>
	<advance width="595"/>
	<outline>
		<contour>
			<point x="31" y="143" type="curve" smooth="yes"/>
			<point x="13" y="52"/>
			<point x="54" y="18"/>
			<point x="114" y="18" type="curve" smooth="yes"/>
			<point x="162" y="18"/>
			<point x="190" y="50"/>
			<point x="205" y="121" type="curve" smooth="yes"/>
			<point x="233" y="263"/>
			<point x="237.273" y="338"/>
			<point x="254.273" y="426" type="curve" smooth="yes"/>
			<point x="263.273" y="471"/>
			<point x="296.273" y="496"/>
			<point x="349.273" y="496" type="curve" smooth="yes"/>
			<point x="380.273" y="496"/>
			<point x="406" y="467"/>
			<point x="399" y="431" type="curve" smooth="yes"/>
			<point x="389" y="383"/>
			<point x="334.273" y="348"/>
			<point x="272.273" y="348" type="curve" smooth="yes"/>
			<point x="215.273" y="348"/>
			<point x="206.273" y="366"/>
			<point x="181.273" y="366" type="curve" smooth="yes"/>
			<point x="146.273" y="366"/>
			<point x="114.273" y="344"/>
			<point x="106.273" y="303" type="curve" smooth="yes"/>
			<point x="93.273" y="241"/>
			<point x="174" y="186"/>
			<point x="268" y="186" type="curve" smooth="yes"/>
			<point x="429" y="186"/>
			<point x="552" y="270"/>
			<point x="579" y="406" type="curve" smooth="yes"/>
			<point x="608" y="551"/>
			<point x="499" y="662"/>
			<point x="358" y="662" type="curve" smooth="yes"/>
			<point x="185" y="662"/>
			<point x="113" y="585"/>
			<point x="88" y="464" type="curve" smooth="yes"/>
			<point x="68" y="362"/>
			<point x="64" y="308"/>
		</contour>
	</outline>
	<anchor name="bottom" x="125.673" y="22"/>
	<anchor name="top" x="390.674" y="667"/>
</glyph>
<glyph name="R" format="2">
	<unicode hex="0052"/>
	<advance width="736"/>
	<outline>
		<contour>
			<point x="177.077" y="635" type="curve" smooth="yes"/>
			<point x="121.077" y="635"/>
			<point x="93.077" y="594"/>
			<point x="97.077" y="546" type="curve" smooth="yes"/>
			<point x="104.077" y="465"/>
			<point x="102.077" y="406"/>
			<point x="84.077" y="328" type="curve"/>
			<point x="31.077" y="240"/>
			<point x="2.077" y="175"/>
			<point x="-7.923" y="126" type="curve" smooth="yes"/>
			<point x="-26.923" y="29"/>
			<point x="9.077" y="-13"/>
			<point x="72.077" y="-13" type="curve" smooth="yes"/>
			<point x="119.077" y="-13"/>
			<point x="154.077" y="10"/>
			<point x="165.077" y="65" type="curve" smooth="yes"/>
			<point x="246.077" y="472"/>
			<point x="504.077" y="537"/>
			<point x="532.077" y="537" type="curve" smooth="yes"/>
			<point x="547.077" y="537"/>
			<point x="551.077" y="532"/>
			<point x="549.077" y="520" type="curve" smooth="yes"/>
			<point x="541.077" y="478"/>
			<point x="438.077" y="371"/>
			<point x="194.077" y="323" type="curve" smooth="yes"/>
			<point x="153.077" y="315"/>
			<point x="122.077" y="237"/>
			<point x="147.077" y="200" type="curve" smooth="yes"/>
			<point x="236.077" y="73"/>
			<point x="493.077" y="-12"/>
			<point x="579.077" y="-12" type="curve" smooth="yes"/>
			<point x="671.077" y="-12"/>
			<point x="713" y="27"/>
			<point x="722" y="70" type="curve" smooth="yes"/>
			<point x="731" y="115"/>
			<point x="709" y="135"/>
			<point x="646" y="150" type="curve" smooth="yes"/>
			<point x="567" y="169"/>
			<point x="498" y="185"/>
			<point x="409" y="228" type="curve"/>
			<point x="584" y="281"/>
			<point x="699" y="379"/>
			<point x="724" y="503" type="curve" smooth="yes"/>
			<point x="744" y="604"/>
			<point x="709.077" y="710"/>
			<point x="581.077" y="710" type="curve" smooth="yes"/>
			<point x="464.077" y="710"/>
			<point x="340.077" y="636"/>
			<point x="246.077" y="529" type="curve"/>
			<point x="277.077" y="524" type="line"/>
			<point x="274.077" y="595"/>
			<point x="246.077" y="635"/>
		</contour>
	</outline>
	<anchor name="bottom" x="288.077" y="0"/>
	<anchor name="top" x="428.078" y="700"/>
</glyph>
<glyph name="S" format="2">
	<unicode hex="0053"/>
	<advance width="563"/>
	<outline>
		<contour>
			<point x="192.737" y="11" type="curve" smooth="yes"/>
			<point x="389" y="11"/>
			<point x="497" y="71"/>
			<point x="518" y="172" type="curve" smooth="yes"/>
			<point x="555" y="359"/>
			<point x="230.737" y="382"/>
			<point x="241.737" y="436" type="curve" smooth="yes"/>
			<point x="248.737" y="468"/>
			<point x="315.737" y="492"/>
			<point x="504.737" y="525" type="curve" smooth="yes"/>
			<point x="546.737" y="532"/>
			<point x="574.737" y="561"/>
			<point x="581.737" y="595" type="curve" smooth="yes"/>
			<point x="591.737" y="644"/>
			<point x="576.737" y="690"/>
			<point x="504.737" y="690" type="curve" smooth="yes"/>
			<point x="360.737" y="690"/>
			<point x="96" y="620"/>
			<point x="66" y="470" type="curve" smooth="yes"/>
			<point x="29" y="281"/>
			<point x="315.737" y="248"/>
			<point x="333.737" y="191" type="curve"/>
			<point x="296.737" y="178"/>
			<point x="269.737" y="176"/>
			<point x="214.737" y="176" type="curve" smooth="yes"/>
			<point x="162.737" y="176"/>
			<point x="144.737" y="184"/>
			<point x="116.737" y="184" type="curve" smooth="yes"/>
			<point x="71.737" y="184"/>
			<point x="44.737" y="160"/>
			<point x="37.737" y="126" type="curve" smooth="yes"/>
			<point x="25.737" y="63"/>
			<point x="75.737" y="11"/>
		</contour>
	</outline>
	<anchor name="bottom" x="236.737" y="25"/>
	<anchor name="top" x="364.138" y="662"/>
</glyph>
<glyph name="T" format="2">
	<unicode hex="0054"/>
	<advance width="645"/>
	<outline>
		<contour>
			<point x="269.211" y="468" type="curve" smooth="yes"/>
			<point x="216.211" y="282"/>
			<point x="204.211" y="213"/>
			<point x="208.211" y="135" type="curve" smooth="yes"/>
			<point x="216.211" y="59"/>
			<point x="250.211" y="36"/>
			<point x="298.211" y="36" type="curve" smooth="yes"/>
			<point x="345.211" y="36"/>
			<point x="376.211" y="60"/>
			<point x="386.211" y="108" type="curve" smooth="yes"/>
			<point x="394.211" y="150"/>
			<point x="376.211" y="191"/>
			<point x="434.211" y="412" type="curve" smooth="yes"/>
			<point x="457.211" y="502"/>
			<point x="438.211" y="540"/>
			<point x="355.211" y="540" type="curve" smooth="yes"/>
			<point x="314.211" y="540"/>
			<point x="280.211" y="510"/>
		</contour>
		<contour>
			<point x="174.211" y="463" type="curve" smooth="yes"/>
			<point x="282.211" y="452"/>
			<point x="386.211" y="452"/>
			<point x="522.211" y="452" type="curve" smooth="yes"/>
			<point x="605.211" y="452"/>
			<point x="666" y="480"/>
			<point x="680" y="548" type="curve" smooth="yes"/>
			<point x="688" y="591"/>
			<point x="669" y="627"/>
			<point x="617" y="627" type="curve" smooth="yes"/>
			<point x="538" y="627"/>
			<point x="498.211" y="620"/>
			<point x="437.211" y="620" type="curve" smooth="yes"/>
			<point x="345.211" y="620"/>
			<point x="262.211" y="630"/>
			<point x="168.211" y="630" type="curve" smooth="yes"/>
			<point x="119.211" y="630"/>
			<point x="91.211" y="603"/>
			<point x="83.211" y="565" type="curve" smooth="yes"/>
			<point x="72.211" y="508"/>
			<point x="102.211" y="471"/>
		</contour>
	</outline>
	<anchor name="bottom" x="298.811" y="43"/>
	<anchor name="top" x="398.812" y="608"/>
</glyph>
<glyph name="U" format="2">
	<unicode hex="0055"/>
	<advance width="659"/>
	<outline>
		<contour>
			<point x="315" y="41" type="curve" smooth="yes"/>
			<point x="485" y="41"/>
			<point x="565" y="126"/>
			<point x="594" y="272" type="curve" smooth="yes"/>
			<point x="604" y="325"/>
			<point x="606.457" y="384"/>
			<point x="615.457" y="430" type="curve" smooth="yes"/>
			<point x="623.457" y="470"/>
			<point x="640.457" y="509"/>
			<point x="647.457" y="545" type="curve" smooth="yes"/>
			<point x="657.457" y="593"/>
			<point x="623" y="629"/>
			<point x="573" y="629" type="curve" smooth="yes"/>
			<point x="511" y="629"/>
			<point x="467.457" y="581"/>
			<point x="454.457" y="515" type="curve" smooth="yes"/>
			<point x="438.457" y="433"/>
			<point x="436.457" y="384"/>
			<point x="418.457" y="296" type="curve" smooth="yes"/>
			<point x="408.457" y="244"/>
			<point x="377.457" y="218"/>
			<point x="325.457" y="218" type="curve" smooth="yes"/>
			<point x="265.457" y="218"/>
			<point x="243.457" y="252"/>
			<point x="258.457" y="325" type="curve" smooth="yes"/>
			<point x="267.457" y="372"/>
			<point x="290.457" y="438"/>
			<point x="299.457" y="484" type="curve" smooth="yes"/>
			<point x="320.457" y="591"/>
			<point x="290.457" y="633"/>
			<point x="216.457" y="633" type="curve" smooth="yes"/>
			<point x="163.457" y="633"/>
			<point x="128.457" y="607"/>
			<point x="120.457" y="567" type="curve" smooth="yes"/>
			<point x="112.457" y="523"/>
			<point x="117.457" y="515"/>
			<point x="106.457" y="459" type="curve" smooth="yes"/>
			<point x="100.457" y="428"/>
			<point x="85.457" y="381"/>
			<point x="76.457" y="335" type="curve" smooth="yes"/>
			<point x="39.457" y="149"/>
			<point x="125" y="41"/>
		</contour>
	</outline>
	<anchor name="bottom" x="296.457" y="50"/>
	<anchor name="ogonek" x="427.057" y="73"/>
	<anchor name="top" x="399.458" y="610"/>
</glyph>
<glyph name="W" format="2">
	<unicode hex="0057"/>
	<advance width="935"/>
	<outline>
		<contour>
			<point x="286.122" y="509" type="curve" smooth="yes"/>
			<point x="293.122" y="566"/>
			<point x="253.122" y="602"/>
			<point x="191.122" y="602" type="curve" smooth="yes"/>
			<point x="127.122" y="602"/>
			<point x="103.122" y="566"/>
			<point x="97.122" y="521" type="curve" smooth="yes"/>
			<point x="81.122" y="396"/>
			<point x="98.122" y="261"/>
			<point x="129.122" y="142" type="curve" smooth="yes"/>
			<point x="149.122" y="68"/>
			<point x="176.122" y="55"/>
			<point x="213.122" y="55" type="curve" smooth="yes"/>
			<point x="256.122" y="55"/>
			<point x="282.122" y="75"/>
			<point x="307.122" y="118" type="curve" smooth="yes"/>
			<point x="364.122" y="216"/>
			<point x="424.122" y="291"/>
			<point x="488.122" y="347" type="curve"/>
			<point x="440.122" y="357" type="line"/>
			<point x="466.122" y="288"/>
			<point x="508.122" y="181"/>
			<point x="554.122" y="117" type="curve" smooth="yes"/>
			<point x="587.122" y="74"/>
			<point x="622.122" y="57"/>
			<point x="664.122" y="57" type="curve" smooth="yes"/>
			<point x="705.122" y="57"/>
			<point x="742.122" y="77"/>
			<point x="769.122" y="120" type="curve" smooth="yes"/>
			<point x="830.122" y="222"/>
			<point x="889.122" y="350"/>
			<point x="926.122" y="451" type="curve" smooth="yes"/>
			<point x="951.122" y="517"/>
			<point x="956.122" y="602"/>
			<point x="863.122" y="602" type="curve" smooth="yes"/>
			<point x="825.122" y="602"/>
			<point x="788" y="589"/>
			<point x="766" y="549" type="curve" smooth="yes"/>
			<point x="739" y="503"/>
			<point x="708" y="358"/>
			<point x="648" y="250" type="curve"/>
			<point x="713" y="205" type="line"/>
			<point x="658" y="308"/>
			<point x="620" y="422"/>
			<point x="607" y="477" type="curve" smooth="yes"/>
			<point x="595" y="524"/>
			<point x="571" y="551"/>
			<point x="516" y="551" type="curve" smooth="yes"/>
			<point x="474" y="551"/>
			<point x="437" y="530"/>
			<point x="395" y="491" type="curve" smooth="yes"/>
			<point x="338" y="437"/>
			<point x="280" y="373"/>
			<point x="210" y="257" type="curve"/>
			<point x="290.122" y="327" type="line"/>
			<point x="280.122" y="389"/>
			<point x="278.122" y="426"/>
		</contour>
	</outline>
	<anchor name="bottom" x="429.522" y="67"/>
	<anchor name="top" x="524.123" y="540"/>
</glyph>
<glyph name="b" format="2">
	<unicode hex="0062"/>
	<advance width="615"/>
	<outline>
		<contour>
			<point x="296.84" y="630" type="curve" smooth="yes"/>
			<point x="313" y="710"/>
			<point x="266" y="754"/>
			<point x="211" y="754" type="curve" smooth="yes"/>
			<point x="168" y="754"/>
			<point x="144" y="725"/>
			<point x="140.84" y="688" type="curve" smooth="yes"/>
			<point x="134.84" y="641"/>
			<point x="117.84" y="605"/>
			<point x="99.84" y="514" type="curve" smooth="yes"/>
			<point x="86.84" y="452"/>
			<point x="75.84" y="342"/>
			<point x="73.84" y="240" type="curve" smooth="yes"/>
			<point x="72.84" y="189"/>
			<point x="103.84" y="160"/>
			<point x="141.84" y="160" type="curve" smooth="yes"/>
			<point x="170.84" y="160"/>
			<point x="191.84" y="179"/>
			<point x="211.84" y="209" type="curve" smooth="yes"/>
			<point x="257.84" y="279"/>
			<point x="312.84" y="323"/>
			<point x="362.84" y="323" type="curve" smooth="yes"/>
			<point x="390.84" y="323"/>
			<point x="396.84" y="310"/>
			<point x="391.84" y="287" type="curve" smooth="yes"/>
			<point x="381.84" y="237"/>
			<point x="308.84" y="211"/>
			<point x="231.84" y="211" type="curve" smooth="yes"/>
			<point x="191.84" y="211"/>
			<point x="151.84" y="221"/>
			<point x="120.84" y="221" type="curve" smooth="yes"/>
			<point x="70.84" y="221"/>
			<point x="32.84" y="200"/>
			<point x="23.84" y="155" type="curve" smooth="yes"/>
			<point x="6.84" y="70"/>
			<point x="110.84" y="40"/>
			<point x="203.84" y="40" type="curve" smooth="yes"/>
			<point x="387" y="40"/>
			<point x="537" y="128"/>
			<point x="569" y="287" type="curve" smooth="yes"/>
			<point x="596" y="422"/>
			<point x="515" y="493"/>
			<point x="407" y="493" type="curve" smooth="yes"/>
			<point x="313" y="493"/>
			<point x="220" y="423"/>
			<point x="182" y="366" type="curve"/>
			<point x="240.84" y="336" type="line"/>
			<point x="244.84" y="393"/>
			<point x="247.84" y="425"/>
			<point x="258.84" y="481" type="curve" smooth="yes"/>
			<point x="270.84" y="541"/>
			<point x="289.84" y="597"/>
		</contour>
	</outline>
	<anchor name="bottom" x="261.64" y="54"/>
	<anchor name="top" x="239.841" y="750"/>
</glyph>
<glyph name="d" format="2">
	<unicode hex="0064"/>
	<advance width="708"/>
	<outline>
		<contour>
			<point x="256" y="21" type="curve" smooth="yes"/>
			<point x="332" y="21"/>
			<point x="443.333" y="72"/>
			<point x="521.333" y="222" type="curve"/>
			<point x="419.333" y="193" type="line"/>
			<point x="399.333" y="97"/>
			<point x="443.333" y="10"/>
			<point x="543" y="10" type="curve" smooth="yes"/>
			<point x="588" y="10"/>
			<point x="630" y="24"/>
			<point x="640" y="82" type="curve" smooth="yes"/>
			<point x="651" y="135"/>
			<point x="572" y="135"/>
			<point x="604.333" y="294" type="curve" smooth="yes"/>
			<point x="625.333" y="401"/>
			<point x="671.333" y="467"/>
			<point x="705.333" y="593" type="curve" smooth="yes"/>
			<point x="732.333" y="702"/>
			<point x="699.333" y="760"/>
			<point x="612.333" y="760" type="curve" smooth="yes"/>
			<point x="581.333" y="760"/>
			<point x="555.333" y="744"/>
			<point x="544.333" y="691" type="curve" smooth="yes"/>
			<point x="480.333" y="372"/>
			<point x="372.333" y="196"/>
			<point x="275.333" y="196" type="curve" smooth="yes"/>
			<point x="235" y="196"/>
			<point x="209" y="234"/>
			<point x="218.333" y="279" type="curve" smooth="yes"/>
			<point x="225.333" y="313"/>
			<point x="273.333" y="332"/>
			<point x="341.333" y="332" type="curve" smooth="yes"/>
			<point x="402.333" y="332"/>
			<point x="410.333" y="313"/>
			<point x="437.333" y="313" type="curve" smooth="yes"/>
			<point x="457.333" y="313"/>
			<point x="477.333" y="336"/>
			<point x="484.333" y="369" type="curve" smooth="yes"/>
			<point x="502.333" y="460"/>
			<point x="442.333" y="507"/>
			<point x="331.333" y="507" type="curve" smooth="yes"/>
			<point x="181.333" y="509"/>
			<point x="66" y="434"/>
			<point x="39" y="296" type="curve" smooth="yes"/>
			<point x="11" y="157"/>
			<point x="101" y="21"/>
		</contour>
	</outline>
	<anchor name="bottom" x="263.533" y="31"/>
	<anchor name="top" x="626.334" y="750"/>
</glyph>
<glyph name="f" format="2">
	<unicode hex="0066"/>
	<advance width="532"/>
	<outline>
		<contour>
			<point x="482.248" y="316" type="curve" smooth="yes"/>
			<point x="515.248" y="319"/>
			<point x="535.248" y="345"/>
			<point x="541.248" y="374" type="curve" smooth="yes"/>
			<point x="553.248" y="434"/>
			<point x="495.248" y="466"/>
			<point x="448.248" y="466" type="curve" smooth="yes"/>
			<point x="383.248" y="466"/>
			<point x="289.248" y="454"/>
			<point x="192.248" y="431" type="curve" smooth="yes"/>
			<point x="145.248" y="421"/>
			<point x="110.248" y="378"/>
			<point x="99.248" y="327" type="curve" smooth="yes"/>
			<point x="92.248" y="290"/>
			<point x="125.248" y="264"/>
			<point x="168.248" y="264" type="curve" smooth="yes"/>
			<point x="219.248" y="264"/>
			<point x="271.248" y="297"/>
		</contour>
		<contour>
			<point x="76" y="-209" type="curve" smooth="yes"/>
			<point x="124" y="-209"/>
			<point x="152" y="-185"/>
			<point x="170" y="-95" type="curve" smooth="yes"/>
			<point x="216" y="133"/>
			<point x="220" y="251"/>
			<point x="247.248" y="390" type="curve" smooth="yes"/>
			<point x="275.248" y="530"/>
			<point x="295.248" y="567"/>
			<point x="409.248" y="606" type="curve" smooth="yes"/>
			<point x="441.248" y="617"/>
			<point x="463.248" y="638"/>
			<point x="470.248" y="673" type="curve" smooth="yes"/>
			<point x="482.248" y="736"/>
			<point x="441.248" y="760"/>
			<point x="392.248" y="760" type="curve" smooth="yes"/>
			<point x="268.248" y="760"/>
			<point x="127.248" y="637"/>
			<point x="85.248" y="424" type="curve" smooth="yes"/>
			<point x="46" y="232"/>
			<point x="48" y="165"/>
			<point x="4" y="-54" type="curve" smooth="yes"/>
			<point x="-16" y="-154"/>
			<point x="24" y="-209"/>
		</contour>
	</outline>
	<anchor name="bottom" x="111.248" y="-195"/>
	<anchor name="top" x="387.249" y="750"/>
</glyph>
<glyph name="l" format="2">
	<unicode hex="006C"/>
	<advance width="423"/>
	<outline>
		<contour>
			<point x="324.635" y="625" type="curve" smooth="yes"/>
			<point x="343.635" y="720"/>
			<point x="317.635" y="760"/>
			<point x="257.635" y="760" type="curve" smooth="yes"/>
			<point x="214.635" y="760"/>
			<point x="187.635" y="741"/>
			<point x="170.635" y="696" type="curve" smooth="yes"/>
			<point x="132.635" y="596"/>
			<point x="99.635" y="494"/>
			<point x="73.635" y="367" type="curve" smooth="yes"/>
			<point x="6" y="26"/>
			<point x="134" y="-11"/>
			<point x="229" y="-11" type="curve" smooth="yes"/>
			<point x="313" y="-11"/>
			<point x="386" y="35"/>
			<point x="402" y="116" type="curve" smooth="yes"/>
			<point x="410" y="157"/>
			<point x="384" y="182"/>
			<point x="350" y="182" type="curve" smooth="yes"/>
			<point x="318" y="182"/>
			<point x="304.635" y="164"/>
			<point x="254.635" y="164" type="curve" smooth="yes"/>
			<point x="230.635" y="164"/>
			<point x="211.635" y="170"/>
			<point x="246.635" y="347" type="curve" smooth="yes"/>
			<point x="272.635" y="473"/>
			<point x="310.635" y="555"/>
		</contour>
	</outline>
	<anchor name="bottom" x="181.635" y="0"/>
	<anchor name="top" x="262.636" y="750"/>
</glyph>
<glyph name="p" format="2">
	<unicode hex="0070"/>
	<advance width="640"/>
	<outline>
		<contour>
			<point x="240.997" y="358" type="curve" smooth="yes"/>
			<point x="247.997" y="411"/>
			<point x="193.997" y="456"/>
			<point x="128.997" y="456" type="curve" smooth="yes"/>
			<point x="80.997" y="456"/>
			<point x="62.997" y="412"/>
			<point x="59.997" y="383" type="curve" smooth="yes"/>
			<point x="42.997" y="243"/>
			<point x="44" y="153"/>
			<point x="13" y="2" type="curve" smooth="yes"/>
			<point x="0" y="-64"/>
			<point x="-17" y="-88"/>
			<point x="-29" y="-151" type="curve" smooth="yes"/>
			<point x="-44" y="-226"/>
			<point x="0" y="-261"/>
			<point x="43" y="-261" type="curve" smooth="yes"/>
			<point x="136" y="-261"/>
			<point x="166" y="-144"/>
			<point x="186" y="-46" type="curve" smooth="yes"/>
			<point x="213" y="92"/>
			<point x="218.997" y="214"/>
		</contour>
		<contour>
			<point x="290.997" y="498" type="curve" smooth="yes"/>
			<point x="192.997" y="498"/>
			<point x="137.997" y="479"/>
			<point x="122.997" y="407" type="curve" smooth="yes"/>
			<point x="113.997" y="358"/>
			<point x="154.997" y="318"/>
			<point x="199.997" y="318" type="curve" smooth="yes"/>
			<point x="226.997" y="318"/>
			<point x="236.997" y="323"/>
			<point x="277.997" y="323" type="curve" smooth="yes"/>
			<point x="378.997" y="323"/>
			<point x="415.997" y="279"/>
			<point x="408.997" y="246" type="curve" smooth="yes"/>
			<point x="403.997" y="222"/>
			<point x="371.997" y="203"/>
			<point x="330.997" y="203" type="curve" smooth="yes"/>
			<point x="258.997" y="203"/>
			<point x="228.997" y="232"/>
			<point x="177.997" y="232" type="curve" smooth="yes"/>
			<point x="153.997" y="232"/>
			<point x="124.997" y="206"/>
			<point x="119.997" y="181" type="curve" smooth="yes"/>
			<point x="104.997" y="105"/>
			<point x="193.997" y="40"/>
			<point x="327.997" y="40" type="curve" smooth="yes"/>
			<point x="443" y="40"/>
			<point x="564" y="104"/>
			<point x="585" y="206" type="curve" smooth="yes"/>
			<point x="624" y="400"/>
			<point x="479.997" y="498"/>
		</contour>
	</outline>
	<anchor name="bottom" x="60.997" y="-250"/>
	<anchor name="top" x="350.798" y="484"/>
</glyph>
<glyph name="u" format="2">
	<unicode hex="0075"/>
	<advance width="629"/>
	<outline>
		<contour>
			<point x="273.753" y="10" type="curve" smooth="yes"/>
			<point x="414.753" y="10"/>
			<point x="549" y="95"/>
			<point x="597" y="333" type="curve" smooth="yes"/>
			<point x="615" y="423"/>
			<point x="584.753" y="497"/>
			<point x="519.753" y="497" type="curve" smooth="yes"/>
			<point x="465.753" y="497"/>
			<point x="445.753" y="468"/>
			<point x="435.753" y="419" type="curve" smooth="yes"/>
			<point x="428.753" y="387"/>
			<point x="427.753" y="362"/>
			<point x="419.753" y="322" type="curve" smooth="yes"/>
			<point x="406.753" y="255"/>
			<point x="344" y="185"/>
			<point x="281" y="185" type="curve" smooth="yes"/>
			<point x="231" y="185"/>
			<point x="195.753" y="244"/>
			<point x="205.753" y="297" type="curve" smooth="yes"/>
			<point x="212.753" y="330"/>
			<point x="241.753" y="366"/>
			<point x="246.753" y="391" type="curve" smooth="yes"/>
			<point x="259.753" y="456"/>
			<point x="227" y="498"/>
			<point x="175" y="498" type="curve" smooth="yes"/>
			<point x="143" y="498"/>
			<point x="110" y="482"/>
			<point x="97.753" y="459" type="curve" smooth="yes"/>
			<point x="64.753" y="405"/>
			<point x="44.753" y="356"/>
			<point x="32.753" y="297" type="curve" smooth="yes"/>
			<point x="9.753" y="178"/>
			<point x="92.753" y="10"/>
		</contour>
	</outline>
	<anchor name="bottom" x="269.353" y="23"/>
	<anchor name="ogonek" x="342.353" y="28"/>
	<anchor name="top" x="360.554" y="479"/>
</glyph>
<glyph name="w" format="2">
	<unicode hex="0077"/>
	<advance width="1027"/>
	<outline>
		<contour>
			<point x="207" y="440" type="curve" smooth="yes"/>
			<point x="189" y="484"/>
			<point x="160" y="495"/>
			<point x="119" y="495" type="curve" smooth="yes"/>
			<point x="43" y="495"/>
			<point x="3.931" y="439"/>
			<point x="38.931" y="371" type="curve" smooth="yes"/>
			<point x="57.931" y="331"/>
			<point x="66.931" y="279"/>
			<point x="81.931" y="178" type="curve" smooth="yes"/>
			<point x="99.931" y="69"/>
			<point x="144.931" y="22"/>
			<point x="232.931" y="22" type="curve" smooth="yes"/>
			<point x="277.931" y="22"/>
			<point x="326.931" y="49"/>
			<point x="364.931" y="98" type="curve" smooth="yes"/>
			<point x="442.931" y="193"/>
			<point x="467.931" y="282"/>
			<point x="531.931" y="339" type="curve"/>
			<point x="502.931" y="339" type="line"/>
			<point x="534.931" y="304"/>
			<point x="526.931" y="198"/>
			<point x="581.931" y="106" type="curve" smooth="yes"/>
			<point x="617.931" y="45"/>
			<point x="657.931" y="24"/>
			<point x="713.931" y="24" type="curve" smooth="yes"/>
			<point x="758.931" y="24"/>
			<point x="817.931" y="50"/>
			<point x="876.931" y="160" type="curve" smooth="yes"/>
			<point x="914.931" y="231"/>
			<point x="935.931" y="297"/>
			<point x="1000.931" y="348" type="curve" smooth="yes"/>
			<point x="1019.931" y="363"/>
			<point x="1034.931" y="381"/>
			<point x="1038.931" y="398" type="curve" smooth="yes"/>
			<point x="1047.931" y="445"/>
			<point x="1023" y="491"/>
			<point x="967.931" y="491" type="curve" smooth="yes"/>
			<point x="906.931" y="491"/>
			<point x="869" y="464"/>
			<point x="836" y="426" type="curve" smooth="yes"/>
			<point x="771" y="352"/>
			<point x="739" y="221"/>
			<point x="678" y="173" type="curve"/>
			<point x="742" y="183" type="line"/>
			<point x="679" y="207"/>
			<point x="699" y="259"/>
			<point x="668" y="365" type="curve" smooth="yes"/>
			<point x="644" y="442"/>
			<point x="607" y="489"/>
			<point x="525" y="489" type="curve" smooth="yes"/>
			<point x="452" y="489"/>
			<point x="407" y="436"/>
			<point x="350" y="353" type="curve" smooth="yes"/>
			<point x="285" y="260"/>
			<point x="277" y="232"/>
			<point x="219" y="175" type="curve"/>
			<point x="276" y="175" type="line"/>
			<point x="213" y="236"/>
			<point x="244" y="359"/>
		</contour>
	</outline>
	<anchor name="bottom" x="450.331" y="37"/>
	<anchor name="top" x="537.532" y="473"/>
</glyph>
<glyph name="z" format="2">
	<unicode hex="007A"/>
	<advance width="633"/>
	<outline>
		<contour>
			<point x="141.755" y="505" type="curve" smooth="yes"/>
			<point x="98.755" y="496"/>
			<point x="83.755" y="474"/>
			<point x="76.755" y="441" type="curve" smooth="yes"/>
			<point x="65.755" y="386"/>
			<point x="84" y="333"/>
			<point x="134.755" y="333" type="curve" smooth="yes"/>
			<point x="182" y="333"/>
			<point x="242" y="356"/>
			<point x="321.755" y="356" type="curve" smooth="yes"/>
			<point x="379.755" y="356"/>
			<point x="391.755" y="351"/>
			<point x="416.755" y="337" type="curve"/>
			<point x="375.755" y="387" type="line"/>
			<point x="341.755" y="314"/>
			<point x="278.755" y="227"/>
			<point x="89.755" y="176" type="curve" smooth="yes"/>
			<point x="54.755" y="167"/>
			<point x="20.755" y="139"/>
			<point x="6.755" y="71" type="curve" smooth="yes"/>
			<point x="-7.245" y="-2"/>
			<point x="12.755" y="-79"/>
			<point x="155.755" y="-79" type="curve" smooth="yes"/>
			<point x="250.755" y="-79"/>
			<point x="376.755" y="-59"/>
			<point x="456.755" y="-59" type="curve" smooth="yes"/>
			<point x="501.755" y="-59"/>
			<point x="525.755" y="-35"/>
			<point x="532.755" y="1" type="curve" smooth="yes"/>
			<point x="544.755" y="62"/>
			<point x="518.755" y="113"/>
			<point x="454.755" y="113" type="curve" smooth="yes"/>
			<point x="360.755" y="113"/>
			<point x="294.755" y="89"/>
			<point x="219.755" y="89" type="curve" smooth="yes"/>
			<point x="214.755" y="89"/>
			<point x="216.755" y="98"/>
			<point x="226.755" y="113" type="curve"/>
			<point x="168.755" y="83" type="line"/>
			<point x="427.755" y="134"/>
			<point x="532" y="275"/>
			<point x="547" y="351" type="curve" smooth="yes"/>
			<point x="562" y="426"/>
			<point x="530.755" y="525"/>
			<point x="378.755" y="525" type="curve" smooth="yes"/>
			<point x="302.755" y="525"/>
			<point x="221.755" y="518"/>
		</contour>
	</outline>
	<anchor name="bottom" x="245.755" y="-65"/>
	<anchor name="top" x="348.756" y="515"/>
</glyph>
<glyph name="copyright" format="2">
	<unicode hex="00A9"/>
	<advance width="965"/>
	<outline>
		<contour>
			<point x="403" y="568" type="curve" smooth="yes"/>
			<point x="443" y="588"/>
			<point x="468" y="609"/>
			<point x="473" y="634" type="curve" smooth="yes"/>
			<point x="477" y="657"/>
			<point x="467" y="668"/>
			<point x="439" y="668" type="curve" smooth="yes"/>
			<point x="351.422" y="668"/>
			<point x="130.566" y="605.84"/>
			<point x="81" y="357" type="curve" smooth="yes"/>
			<point x="31.454" y="111.252"/>
			<point x="179" y="-61"/>
			<point x="442" y="-61" type="curve" smooth="yes"/>
			<point x="664" y="-61"/>
			<point x="871" y="57"/>
			<point x="926" y="330" type="curve" smooth="yes"/>
			<point x="972" y="564"/>
			<point x="877" y="761"/>
			<point x="603" y="761" type="curve" smooth="yes"/>
			<point x="374" y="761"/>
			<point x="207.972" y="642.868"/>
			<point x="194" y="577" type="curve" smooth="yes"/>
			<point x="188" y="543"/>
			<point x="199.093" y="503"/>
			<point x="241.093" y="503" type="curve" smooth="yes"/>
			<point x="266.093" y="503"/>
			<point x="295.093" y="514"/>
			<point x="319.093" y="530" type="curve" smooth="yes"/>
			<point x="394.241" y="579.773"/>
			<point x="460.977" y="633.035"/>
			<point x="599" y="634" type="curve" smooth="yes"/>
			<point x="776.654" y="635.027"/>
			<point x="826" y="515"/>
			<point x="792" y="340" type="curve" smooth="yes"/>
			<point x="758" y="170"/>
			<point x="627" y="65"/>
			<point x="450" y="65" type="curve" smooth="yes"/>
			<point x="249" y="65"/>
			<point x="186.38" y="196.954"/>
			<point x="213" y="334" type="curve" smooth="yes"/>
			<point x="234.315" y="442.604"/>
			<point x="279.442" y="502.36"/>
		</contour>
		<contour>
			<point x="470" y="139" type="curve" smooth="yes"/>
			<point x="566" y="139"/>
			<point x="629" y="178"/>
			<point x="646" y="254" type="curve" smooth="yes"/>
			<point x="653" y="289"/>
			<point x="637.827" y="320"/>
			<point x="605" y="320" type="curve" smooth="yes"/>
			<point x="569" y="320"/>
			<point x="548.474" y="284"/>
			<point x="499.093" y="284" type="curve" smooth="yes"/>
			<point x="457.093" y="284"/>
			<point x="443" y="305"/>
			<point x="448" y="330" type="curve" smooth="yes"/>
			<point x="456.06" y="367.999"/>
			<point x="490.242" y="404"/>
			<point x="550" y="404" type="curve" smooth="yes"/>
			<point x="560" y="404"/>
			<point x="564" y="397"/>
			<point x="565" y="387" type="curve" smooth="yes"/>
			<point x="567" y="377"/>
			<point x="574" y="369"/>
			<point x="585" y="369" type="curve" smooth="yes"/>
			<point x="644.366" y="369"/>
			<point x="684.045" y="411.225"/>
			<point x="694" y="461" type="curve" smooth="yes"/>
			<point x="703.637" y="507.257"/>
			<point x="681.461" y="557"/>
			<point x="601" y="557" type="curve" smooth="yes"/>
			<point x="467.788" y="557"/>
			<point x="327.548" y="461.796"/>
			<point x="303" y="342" type="curve" smooth="yes"/>
			<point x="282" y="223"/>
			<point x="346" y="139"/>
		</contour>
	</outline>
</glyph>
<glyph name="ordfeminine" format="2">
	<unicode hex="00AA"/>
	<advance width="678"/>
	<outline>
		<contour>
			<point x="399.018" y="585" type="curve" smooth="yes"/>
			<point x="362.018" y="463"/>
			<point x="304.018" y="410"/>
			<point x="245.018" y="410" type="curve" smooth="yes"/>
			<point x="218.018" y="410"/>
			<point x="198.018" y="415"/>
			<point x="172.018" y="432" type="curve"/>
			<point x="222.018" y="321" type="line"/>
			<point x="222.018" y="332"/>
			<point x="222.018" y="340"/>
			<point x="224.018" y="351" type="curve" smooth="yes"/>
			<point x="241.018" y="452"/>
			<point x="327.018" y="541"/>
			<point x="440.018" y="566" type="curve" smooth="yes"/>
			<point x="454.018" y="569"/>
			<point x="470.018" y="581"/>
			<point x="474.018" y="602" type="curve" smooth="yes"/>
			<point x="486.018" y="671"/>
			<point x="450.018" y="710"/>
			<point x="394.018" y="710" type="curve" smooth="yes"/>
			<point x="269.018" y="710"/>
			<point x="95" y="553"/>
			<point x="68" y="399" type="curve" smooth="yes"/>
			<point x="54" y="322"/>
			<point x="115" y="241"/>
			<point x="226" y="241" type="curve" smooth="yes"/>
			<point x="315" y="241"/>
			<point x="410" y="286"/>
			<point x="490" y="443" type="curve"/>
			<point x="434" y="441" type="line"/>
			<point x="460" y="366"/>
			<point x="477" y="325"/>
			<point x="515" y="269" type="curve" smooth="yes"/>
			<point x="525" y="254"/>
			<point x="539" y="245"/>
			<point x="562" y="245" type="curve" smooth="yes"/>
			<point x="636" y="245"/>
			<point x="691.018" y="358"/>
			<point x="661.018" y="398" type="curve" smooth="yes"/>
			<point x="611.018" y="462"/>
			<point x="595.018" y="502"/>
			<point x="574.018" y="571" type="curve" smooth="yes"/>
			<point x="563.018" y="606"/>
			<point x="524.018" y="637"/>
			<point x="467.018" y="637" type="curve" smooth="yes"/>
			<point x="441.018" y="637"/>
			<point x="410.018" y="618"/>
		</contour>
	</outline>
</glyph>
<glyph name="tcaron" format="2">
	<unicode hex="0165"/>
	<advance width="503"/>
	<outline>
		<contour>
			<point x="507.602" y="844" type="curve" smooth="yes"/>
			<point x="458.602" y="844"/>
			<point x="430.602" y="815"/>
			<point x="423.602" y="778" type="curve" smooth="yes"/>
			<point x="417.602" y="749"/>
			<point x="420.602" y="718"/>
			<point x="381.602" y="657" type="curve" smooth="yes"/>
			<point x="367.602" y="633"/>
			<point x="361.602" y="618"/>
			<point x="358.602" y="604" type="curve" smooth="yes"/>
			<point x="352.602" y="577"/>
			<point x="367.602" y="562"/>
			<point x="404.602" y="562" type="curve" smooth="yes"/>
			<point x="443.602" y="562"/>
			<point x="476.602" y="576"/>
			<point x="512.602" y="608" type="curve" smooth="yes"/>
			<point x="561.602" y="651"/>
			<point x="587.602" y="701"/>
			<point x="598.602" y="757" type="curve" smooth="yes"/>
			<point x="609.602" y="808"/>
			<point x="573.602" y="844"/>
		</contour>
		<component base="t" xOffset="-3.804"/>
	</outline>
	<anchor name="bottom" x="217.798" y="0"/>
	<anchor name="top" x="223.799" y="750"/>
</glyph>
<glyph name="Ohorn" format="2">
	<unicode hex="01A0"/>
	<advance width="657"/>
	<outline>
		<contour>
			<point x="491.406" y="590" type="curve" smooth="yes"/>
			<point x="458.406" y="590"/>
			<point x="437.406" y="575"/>
			<point x="428.406" y="531" type="curve" smooth="yes"/>
			<point x="419.406" y="485"/>
			<point x="440.406" y="451"/>
			<point x="504.406" y="451" type="curve" smooth="yes"/>
			<point x="642.406" y="451"/>
			<point x="725" y="504"/>
			<point x="744" y="600" type="curve" smooth="yes"/>
			<point x="759" y="675"/>
			<point x="726.406" y="722"/>
			<point x="654.406" y="722" type="curve" smooth="yes"/>
			<point x="608.406" y="722"/>
			<point x="579.406" y="700"/>
			<point x="573.406" y="668" type="curve" smooth="yes"/>
			<point x="570.406" y="653"/>
			<point x="571.406" y="645"/>
			<point x="568.406" y="630" type="curve" smooth="yes"/>
			<point x="562.406" y="602"/>
			<point x="531.406" y="590"/>
		</contour>
		<component base="O"/>
	</outline>
	<anchor name="bottom" x="278.606" y="66"/>
	<anchor name="ogonek" x="421.505" y="76"/>
	<anchor name="top" x="384.407" y="620"/>
</glyph>
<glyph name="uhorn" format="2">
	<unicode hex="01B0"/>
	<advance width="717"/>
	<outline>
		<contour>
			<point x="555.753" y="470" type="curve" smooth="yes"/>
			<point x="508.753" y="470"/>
			<point x="468.753" y="452"/>
			<point x="458.753" y="401" type="curve" smooth="yes"/>
			<point x="448.753" y="349"/>
			<point x="465.753" y="311"/>
			<point x="522.753" y="311" type="curve" smooth="yes"/>
			<point x="656.753" y="311"/>
			<point x="739" y="368"/>
			<point x="759" y="470" type="curve" smooth="yes"/>
			<point x="773" y="542"/>
			<point x="740.753" y="587"/>
			<point x="671.753" y="587" type="curve" smooth="yes"/>
			<point x="629.753" y="587"/>
			<point x="602.753" y="567"/>
			<point x="597.753" y="538" type="curve" smooth="yes"/>
			<point x="594.753" y="523"/>
			<point x="595.753" y="515"/>
			<point x="591.753" y="497" type="curve" smooth="yes"/>
			<point x="588.753" y="479"/>
			<point x="573.753" y="470"/>
		</contour>
		<component base="u" xOffset="-3.653"/>
	</outline>
	<anchor name="bottom" x="269.353" y="23"/>
	<anchor name="ogonek" x="338.7" y="28"/>
	<anchor name="top" x="360.554" y="479"/>
</glyph>
<glyph name="jdotless" format="2">
	<unicode hex="0237"/>
	<advance width="300"/>
	<outline>
		<contour>
			<point x="246.457" y="442" type="curve" smooth="yes"/>
			<point x="246.457" y="508"/>
			<point x="227.457" y="524"/>
			<point x="184.457" y="524" type="curve" smooth="yes"/>
			<point x="138.457" y="524"/>
			<point x="86.457" y="490"/>
			<point x="68.457" y="402" type="curve" smooth="yes"/>
			<point x="41.457" y="265"/>
			<point x="77.457" y="182"/>
			<point x="35.457" y="-29" type="curve" smooth="yes"/>
			<point x="28.457" y="-64"/>
			<point x="11.457" y="-88"/>
			<point x="-12.543" y="-88" type="curve" smooth="yes"/>
			<point x="-30.543" y="-88"/>
			<point x="-37.543" y="-85"/>
			<point x="-52.543" y="-85" type="curve" smooth="yes"/>
			<point x="-81.543" y="-85"/>
			<point x="-106.543" y="-108"/>
			<point x="-114.543" y="-150" type="curve" smooth="yes"/>
			<point x="-126.543" y="-211"/>
			<point x="-89" y="-260"/>
			<point x="0" y="-260" type="curve" smooth="yes"/>
			<point x="99" y="-260"/>
			<point x="174" y="-204"/>
			<point x="203" y="-60" type="curve" smooth="yes"/>
			<point x="232" y="84"/>
			<point x="244.457" y="262"/>
		</contour>
	</outline>
	<anchor name="top" x="185.458" y="515"/>
</glyph>
<glyph name="schwa" format="2">
	<unicode hex="0259"/>
	<advance width="576"/>
	<outline>
		<contour>
			<point x="290" y="324" type="curve" smooth="yes"/>
			<point x="156" y="324"/>
			<point x="44" y="287"/>
			<point x="20" y="172" type="curve" smooth="yes"/>
			<point x="0" y="70"/>
			<point x="77" y="-10"/>
			<point x="217" y="-10" type="curve" smooth="yes"/>
			<point x="381" y="-10"/>
			<point x="507" y="94"/>
			<point x="534" y="229" type="curve" smooth="yes"/>
			<point x="568" y="401"/>
			<point x="506" y="525"/>
			<point x="298" y="525" type="curve" smooth="yes"/>
			<point x="163" y="525"/>
			<point x="76" y="472"/>
			<point x="64" y="409" type="curve" smooth="yes"/>
			<point x="55" y="365"/>
			<point x="71" y="340"/>
			<point x="109" y="340" type="curve" smooth="yes"/>
			<point x="152" y="340"/>
			<point x="191" y="383"/>
			<point x="296" y="383" type="curve" smooth="yes"/>
			<point x="377" y="383"/>
			<point x="397.211" y="346"/>
			<point x="378.211" y="251" type="curve" smooth="yes"/>
			<point x="364.211" y="181"/>
			<point x="305.211" y="141"/>
			<point x="226.211" y="141" type="curve" smooth="yes"/>
			<point x="189.211" y="141"/>
			<point x="176.211" y="153"/>
			<point x="180.211" y="177" type="curve" smooth="yes"/>
			<point x="186.211" y="207"/>
			<point x="255.211" y="229"/>
			<point x="310.211" y="229" type="curve" smooth="yes"/>
			<point x="342.211" y="229"/>
			<point x="359.211" y="224"/>
			<point x="373.211" y="224" type="curve" smooth="yes"/>
			<point x="394.211" y="224"/>
			<point x="405.211" y="234"/>
			<point x="409.211" y="254" type="curve" smooth="yes"/>
			<point x="416.265" y="291.287"/>
			<point x="374" y="324"/>
		</contour>
	</outline>
</glyph>
<glyph name="dotaccentcmb" format="2">
	<unicode hex="0307"/>
	<outline>
		<contour>
			<point x="73" y="574" type="curve" smooth="yes"/>
			<point x="143.259" y="574"/>
			<point x="178.803" y="619.015"/>
			<point x="186.8" y="662" type="curve" smooth="yes"/>
			<point x="195.839" y="707.196"/>
			<point x="164.646" y="763"/>
			<point x="86" y="763" type="curve" smooth="yes"/>
			<point x="28" y="763"/>
			<point x="-19.289" y="734.553"/>
			<point x="-30" y="681" type="curve" smooth="yes"/>
			<point x="-42.087" y="621.666"/>
			<point x="-1.279" y="574"/>
		</contour>
	</outline>
	<anchor name="_top" x="51.801" y="515"/>
	<anchor name="top" x="97.201" y="742"/>
</glyph>
<glyph name="hungarumlautcmb" format="2">
	<unicode hex="030B"/>
	<outline>
		<contour>
			<point x="40" y="811" type="curve" smooth="yes"/>
			<point x="5.735" y="811"/>
			<point x="-17.73" y="797.539"/>
			<point x="-39" y="755" type="curve" smooth="yes"/>
			<point x="-54" y="726"/>
			<point x="-68" y="711"/>
			<point x="-93" y="689" type="curve" smooth="yes"/>
			<point x="-116" y="669"/>
			<point x="-126" y="654"/>
			<point x="-131" y="632" type="curve" smooth="yes"/>
			<point x="-137.326" y="603.531"/>
			<point x="-118.442" y="585"/>
			<point x="-77" y="585" type="curve" smooth="yes"/>
			<point x="9" y="585"/>
			<point x="92" y="663"/>
			<point x="111" y="744" type="curve" smooth="yes"/>
			<point x="122.168" y="789.688"/>
			<point x="91.982" y="811"/>
		</contour>
		<contour>
			<point x="285" y="837" type="curve" smooth="yes"/>
			<point x="250.6" y="837"/>
			<point x="218.349" y="821.6"/>
			<point x="199" y="780" type="curve" smooth="yes"/>
			<point x="181" y="744"/>
			<point x="170" y="720"/>
			<point x="141" y="695" type="curve" smooth="yes"/>
			<point x="115" y="674"/>
			<point x="102" y="658"/>
			<point x="97" y="634" type="curve" smooth="yes"/>
			<point x="92.78" y="609.734"/>
			<point x="107.095" y="591"/>
			<point x="150" y="591" type="curve" smooth="yes"/>
			<point x="236" y="591"/>
			<point x="333" y="673"/>
			<point x="352" y="770" type="curve" smooth="yes"/>
			<point x="361.101" y="815.506"/>
			<point x="337.827" y="837"/>
		</contour>
	</outline>
	<anchor name="_top" x="51.241" y="515"/>
</glyph>
<glyph name="Djecyr" format="2">
	<unicode hex="0402"/>
	<advance width="788"/>
	<outline>
		<contour>
			<point x="731.194" y="146" type="curve" smooth="yes"/>
			<point x="761.194" y="297"/>
			<point x="740.194" y="448"/>
			<point x="588.194" y="448" type="curve" smooth="yes"/>
			<point x="502.194" y="448"/>
			<point x="392.194" y="377"/>
			<point x="317.194" y="283" type="curve"/>
			<point x="339.194" y="231" type="line"/>
			<point x="345.194" y="293"/>
			<point x="361.194" y="385"/>
			<point x="389.194" y="481" type="curve" smooth="yes"/>
			<point x="415.194" y="569"/>
			<point x="392.194" y="600"/>
			<point x="311.194" y="600" type="curve" smooth="yes"/>
			<point x="268.194" y="600"/>
			<point x="240.194" y="555"/>
			<point x="220.194" y="489" type="curve" smooth="yes"/>
			<point x="180.194" y="360"/>
			<point x="146.194" y="219"/>
			<point x="144.194" y="137" type="curve" smooth="yes"/>
			<point x="145.194" y="53"/>
			<point x="184.194" y="28"/>
			<point x="231.194" y="28" type="curve" smooth="yes"/>
			<point x="265.194" y="28"/>
			<point x="298.194" y="63"/>
			<point x="347.194" y="119" type="curve" smooth="yes"/>
			<point x="422.194" y="205"/>
			<point x="475.194" y="245"/>
			<point x="531.194" y="274" type="curve"/>
			<point x="556.194" y="245"/>
			<point x="561.194" y="192"/>
			<point x="550.194" y="136" type="curve" smooth="yes"/>
			<point x="528.194" y="25"/>
			<point x="482.194" y="-31"/>
			<point x="435.194" y="-52" type="curve" smooth="yes"/>
			<point x="392.194" y="-71"/>
			<point x="345.194" y="-81"/>
			<point x="336.194" y="-125" type="curve" smooth="yes"/>
			<point x="330.194" y="-155"/>
			<point x="343.194" y="-197"/>
			<point x="408.194" y="-197" type="curve" smooth="yes"/>
			<point x="545.194" y="-197"/>
			<point x="693.194" y="-46"/>
		</contour>
		<contour>
			<point x="169.194" y="521" type="curve" smooth="yes"/>
			<point x="277.194" y="506"/>
			<point x="393.194" y="510"/>
			<point x="500.194" y="510" type="curve" smooth="yes"/>
			<point x="597.194" y="510"/>
			<point x="674.194" y="542"/>
			<point x="690.194" y="619" type="curve" smooth="yes"/>
			<point x="697.194" y="656"/>
			<point x="682.194" y="681"/>
			<point x="640.194" y="681" type="curve" smooth="yes"/>
			<point x="577.194" y="681"/>
			<point x="506.194" y="670"/>
			<point x="442.194" y="670" type="curve" smooth="yes"/>
			<point x="350.194" y="670"/>
			<point x="244.194" y="680"/>
			<point x="143.194" y="680" type="curve" smooth="yes"/>
			<point x="105.194" y="680"/>
			<point x="85.194" y="653"/>
			<point x="78.194" y="621" type="curve" smooth="yes"/>
			<point x="66.194" y="560"/>
			<point x="86.194" y="524"/>
		</contour>
	</outline>
</glyph>
<glyph name="Eukrcyr" format="2">
	<unicode hex="0404"/>
	<advance width="614"/>
	<outline>
		<contour>
			<point x="401.846" y="421" type="curve" smooth="yes"/>
			<point x="306.846" y="435"/>
			<point x="175.846" y="419"/>
			<point x="96.846" y="406" type="curve"/>
			<point x="81.846" y="246" type="line"/>
			<point x="118.846" y="246"/>
			<point x="172.846" y="278"/>
			<point x="256.846" y="278" type="curve" smooth="yes"/>
			<point x="308.846" y="278"/>
			<point x="357.846" y="267"/>
			<point x="401.846" y="267" type="curve" smooth="yes"/>
			<point x="445.846" y="267"/>
			<point x="469.846" y="293"/>
			<point x="477.846" y="332" type="curve" smooth="yes"/>
			<point x="487.846" y="376"/>
			<point x="464.846" y="412"/>
		</contour>
		<contour>
			<point x="292.846" y="10" type="curve" smooth="yes"/>
			<point x="452.846" y="10"/>
			<point x="549.846" y="77"/>
			<point x="566.846" y="161" type="curve" smooth="yes"/>
			<point x="575.846" y="203"/>
			<point x="563.846" y="229"/>
			<point x="521.846" y="229" type="curve" smooth="yes"/>
			<point x="466.846" y="229"/>
			<point x="446.846" y="177"/>
			<point x="336.846" y="177" type="curve" smooth="yes"/>
			<point x="244.846" y="177"/>
			<point x="200.846" y="205"/>
			<point x="220.846" y="306" type="curve" smooth="yes"/>
			<point x="248.846" y="445"/>
			<point x="321.846" y="509"/>
			<point x="432.846" y="509" type="curve" smooth="yes"/>
			<point x="457.846" y="509"/>
			<point x="460.846" y="499"/>
			<point x="455.846" y="477" type="curve" smooth="yes"/>
			<point x="452.846" y="462"/>
			<point x="470.846" y="450"/>
			<point x="501.846" y="450" type="curve" smooth="yes"/>
			<point x="564.846" y="450"/>
			<point x="607.846" y="504"/>
			<point x="619.846" y="565" type="curve" smooth="yes"/>
			<point x="635.846" y="645"/>
			<point x="601.846" y="691"/>
			<point x="494.846" y="691" type="curve" smooth="yes"/>
			<point x="269.846" y="691"/>
			<point x="89.846" y="524"/>
			<point x="44.846" y="302" type="curve" smooth="yes"/>
			<point x="9.846" y="126"/>
			<point x="91.846" y="10"/>
		</contour>
	</outline>
	<guideline x="53.406" y="378" angle="90" identifier="b1V3DjCVlD"/>
</glyph>
<glyph name="Ljecyr" format="2">
	<unicode hex="0409"/>
	<advance width="1058"/>
	<outline>
		<contour>
			<point x="620.398" y="355" type="curve" smooth="yes"/>
			<point x="627.398" y="245"/>
			<point x="637.398" y="178"/>
			<point x="701.398" y="178" type="curve" smooth="yes"/>
			<point x="765.398" y="178"/>
			<point x="852.398" y="241"/>
			<point x="865.398" y="307" type="curve" smooth="yes"/>
			<point x="872.398" y="339"/>
			<point x="853.398" y="363"/>
			<point x="803.398" y="363" type="curve" smooth="yes"/>
			<point x="735.398" y="363"/>
			<point x="675.398" y="343"/>
			<point x="581.398" y="278" type="curve"/>
			<point x="537.398" y="406" type="line"/>
			<point x="657.398" y="478"/>
			<point x="741.398" y="519"/>
			<point x="848.398" y="519" type="curve" smooth="yes"/>
			<point x="1004.398" y="519"/>
			<point x="1067.398" y="445"/>
			<point x="1044.398" y="330" type="curve" smooth="yes"/>
			<point x="1017.398" y="193"/>
			<point x="845.398" y="11"/>
			<point x="657.398" y="11" type="curve" smooth="yes"/>
			<point x="491.398" y="11"/>
			<point x="455.398" y="113"/>
			<point x="443.398" y="257" type="curve" smooth="yes"/>
			<point x="433.398" y="390"/>
			<point x="425.398" y="469"/>
			<point x="421.398" y="525" type="curve"/>
			<point x="437.398" y="515" type="line"/>
			<point x="406.398" y="465"/>
			<point x="350.398" y="367"/>
			<point x="281.398" y="257" type="curve" smooth="yes"/>
			<point x="208.398" y="140"/>
			<point x="147.398" y="55"/>
			<point x="107.398" y="19" type="curve" smooth="yes"/>
			<point x="79.398" y="-6"/>
			<point x="62.398" y="-16"/>
			<point x="27.398" y="-16" type="curve" smooth="yes"/>
			<point x="-17.602" y="-16"/>
			<point x="-44.602" y="28"/>
			<point x="-36.602" y="68" type="curve" smooth="yes"/>
			<point x="-26.602" y="121"/>
			<point x="63.398" y="212"/>
			<point x="131.398" y="313" type="curve" smooth="yes"/>
			<point x="223.398" y="448"/>
			<point x="309.398" y="601"/>
			<point x="342.398" y="639" type="curve" smooth="yes"/>
			<point x="389.398" y="693"/>
			<point x="446.398" y="712"/>
			<point x="490.398" y="712" type="curve" smooth="yes"/>
			<point x="538.398" y="712"/>
			<point x="571.398" y="692"/>
			<point x="587.398" y="636" type="curve" smooth="yes"/>
			<point x="607.398" y="568"/>
			<point x="617.398" y="399"/>
		</contour>
	</outline>
	<guideline x="47.406" y="658" angle="0" identifier="b3w6f6co8h"/>
	<guideline x="47.406" y="658" angle="0" identifier="jdn5JLBvkG"/>
	<guideline x="47.406" y="658" angle="0" identifier="mF84iu6Knu"/>
</glyph>
<glyph name="Njecyr" format="2">
	<unicode hex="040A"/>
	<advance width="1037"/>
	<outline>
		<contour>
			<point x="148.947" y="8" type="curve" smooth="yes"/>
			<point x="194.947" y="8"/>
			<point x="228.947" y="35"/>
			<point x="237.947" y="81" type="curve" smooth="yes"/>
			<point x="264.947" y="216"/>
			<point x="292.947" y="411"/>
			<point x="332.947" y="610" type="curve" smooth="yes"/>
			<point x="350.947" y="700"/>
			<point x="314.947" y="739"/>
			<point x="253.947" y="739" type="curve" smooth="yes"/>
			<point x="192.947" y="739"/>
			<point x="158.947" y="711"/>
			<point x="144.947" y="642" type="curve" smooth="yes"/>
			<point x="135.947" y="593"/>
			<point x="113.947" y="406"/>
			<point x="71.947" y="195" type="curve" smooth="yes"/>
			<point x="43.947" y="56"/>
			<point x="80.947" y="8"/>
		</contour>
		<contour>
			<point x="805.947" y="328" type="curve" smooth="yes"/>
			<point x="842.947" y="328"/>
			<point x="853.947" y="303"/>
			<point x="847.947" y="274" type="curve" smooth="yes"/>
			<point x="835.947" y="213"/>
			<point x="748.947" y="158"/>
			<point x="684.947" y="158" type="curve" smooth="yes"/>
			<point x="598.947" y="158"/>
			<point x="615.947" y="218"/>
			<point x="626.947" y="277" type="curve" smooth="yes"/>
			<point x="640.947" y="344"/>
			<point x="681.947" y="474"/>
			<point x="697.947" y="554" type="curve" smooth="yes"/>
			<point x="714.947" y="640"/>
			<point x="674.947" y="679"/>
			<point x="615.947" y="679" type="curve" smooth="yes"/>
			<point x="568.947" y="679"/>
			<point x="544.947" y="654"/>
			<point x="535.947" y="611" type="curve" smooth="yes"/>
			<point x="524.947" y="553"/>
			<point x="514.947" y="492"/>
			<point x="502.947" y="428" type="curve" smooth="yes"/>
			<point x="491.947" y="374"/>
			<point x="465.947" y="309"/>
			<point x="451.947" y="239" type="curve" smooth="yes"/>
			<point x="426.947" y="115"/>
			<point x="448.947" y="-9"/>
			<point x="640.947" y="-9" type="curve" smooth="yes"/>
			<point x="795.947" y="-9"/>
			<point x="995.947" y="152"/>
			<point x="1022.947" y="284" type="curve" smooth="yes"/>
			<point x="1047.947" y="408"/>
			<point x="993.947" y="488"/>
			<point x="853.947" y="488" type="curve" smooth="yes"/>
			<point x="758.947" y="488"/>
			<point x="619.947" y="464"/>
			<point x="509.947" y="448" type="curve" smooth="yes"/>
			<point x="390.947" y="431"/>
			<point x="168.947" y="408"/>
			<point x="72.947" y="384" type="curve" smooth="yes"/>
			<point x="43.947" y="376"/>
			<point x="33.947" y="360"/>
			<point x="28.947" y="335" type="curve" smooth="yes"/>
			<point x="18.947" y="284"/>
			<point x="44.947" y="241"/>
			<point x="165.947" y="241" type="curve" smooth="yes"/>
			<point x="231.947" y="241"/>
			<point x="423.947" y="280"/>
			<point x="582.947" y="306" type="curve" smooth="yes"/>
			<point x="667.947" y="320"/>
			<point x="749.947" y="328"/>
		</contour>
	</outline>
</glyph>
<glyph name="Ushortcyr" format="2">
	<unicode hex="040E"/>
	<advance width="667"/>
	<outline>
		<contour>
			<point x="484.857" y="902" type="curve" smooth="yes"/>
			<point x="450.857" y="902"/>
			<point x="433.857" y="923"/>
			<point x="419.857" y="949" type="curve" smooth="yes"/>
			<point x="407.857" y="971"/>
			<point x="394.857" y="988"/>
			<point x="368.857" y="988" type="curve" smooth="yes"/>
			<point x="323.857" y="988"/>
			<point x="287.857" y="960"/>
			<point x="277.857" y="911" type="curve" smooth="yes"/>
			<point x="261.857" y="829"/>
			<point x="321.857" y="768"/>
			<point x="432.857" y="768" type="curve" smooth="yes"/>
			<point x="541.857" y="768"/>
			<point x="670.857" y="823"/>
			<point x="684.857" y="897" type="curve" smooth="yes"/>
			<point x="691.857" y="932"/>
			<point x="679.857" y="953"/>
			<point x="646.857" y="953" type="curve" smooth="yes"/>
			<point x="624.857" y="953"/>
			<point x="604.857" y="940"/>
			<point x="576.857" y="927" type="curve" smooth="yes"/>
			<point x="546.857" y="913"/>
			<point x="511.857" y="902"/>
		</contour>
		<component base="Ucyr" xOffset="-3.548"/>
	</outline>
	<anchor name="top" x="416.858" y="700"/>
</glyph>
<glyph name="Dzhecyr" format="2">
	<unicode hex="040F"/>
	<advance width="761"/>
	<outline>
		<contour>
			<point x="59" y="300" type="curve" smooth="yes"/>
			<point x="24" y="126"/>
			<point x="67" y="10"/>
			<point x="255" y="10" type="curve" smooth="yes"/>
			<point x="338" y="10"/>
			<point x="440" y="21"/>
			<point x="521" y="55" type="curve" smooth="yes"/>
			<point x="581" y="80"/>
			<point x="623" y="114"/>
			<point x="648" y="167" type="curve"/>
			<point x="659" y="186"/>
			<point x="671" y="222"/>
			<point x="680" y="268" type="curve" smooth="yes"/>
			<point x="694" y="339"/>
			<point x="694" y="480"/>
			<point x="685" y="534" type="curve" smooth="yes"/>
			<point x="677" y="579"/>
			<point x="666" y="606"/>
			<point x="621" y="606" type="curve" smooth="yes"/>
			<point x="564" y="606"/>
			<point x="511" y="559"/>
			<point x="503" y="515" type="curve" smooth="yes"/>
			<point x="490" y="452"/>
			<point x="516" y="344"/>
			<point x="503" y="275" type="curve" smooth="yes"/>
			<point x="491" y="215"/>
			<point x="480" y="190"/>
			<point x="460" y="163" type="curve"/>
			<point x="513" y="218" type="line"/>
			<point x="461" y="198"/>
			<point x="396" y="181"/>
			<point x="344" y="181" type="curve" smooth="yes"/>
			<point x="273" y="181"/>
			<point x="234" y="226"/>
			<point x="249" y="303" type="curve" smooth="yes"/>
			<point x="270" y="408"/>
			<point x="329" y="516"/>
			<point x="342" y="582" type="curve" smooth="yes"/>
			<point x="352" y="631"/>
			<point x="324" y="700"/>
			<point x="269" y="700" type="curve" smooth="yes"/>
			<point x="235" y="700"/>
			<point x="205" y="680"/>
			<point x="181" y="636" type="curve" smooth="yes"/>
			<point x="145" y="574"/>
			<point x="84" y="426"/>
		</contour>
		<contour>
			<point x="256" y="-90" type="curve" smooth="yes"/>
			<point x="241" y="-165"/>
			<point x="264" y="-217"/>
			<point x="330" y="-217" type="curve" smooth="yes"/>
			<point x="373" y="-217"/>
			<point x="411" y="-178"/>
			<point x="419" y="-138" type="curve" smooth="yes"/>
			<point x="431" y="-78"/>
			<point x="416" y="-8"/>
			<point x="430" y="62" type="curve" smooth="yes"/>
			<point x="435" y="87"/>
			<point x="415" y="99"/>
			<point x="387" y="99" type="curve" smooth="yes"/>
			<point x="347" y="99"/>
			<point x="291" y="80"/>
			<point x="285" y="50" type="curve" smooth="yes"/>
			<point x="279" y="20"/>
			<point x="265" y="-41"/>
		</contour>
	</outline>
</glyph>
<glyph name="Decyr" format="2">
	<unicode hex="0414"/>
	<advance width="832"/>
	<outline>
		<contour>
			<point x="222.75" y="426" type="curve" smooth="yes"/>
			<point x="171.75" y="344"/>
			<point x="134.75" y="275"/>
			<point x="90.75" y="191" type="curve"/>
			<point x="271.75" y="178" type="line"/>
			<point x="294.75" y="223"/>
			<point x="334.75" y="294"/>
			<point x="372.75" y="359" type="curve" smooth="yes"/>
			<point x="411.75" y="426"/>
			<point x="464.75" y="499"/>
			<point x="507.75" y="557" type="curve"/>
			<point x="450.75" y="524" type="line"/>
			<point x="479.75" y="449"/>
			<point x="502.75" y="323"/>
			<point x="509.75" y="176" type="curve"/>
			<point x="697.75" y="186" type="line"/>
			<point x="699.75" y="362"/>
			<point x="668.75" y="518"/>
			<point x="637.75" y="611" type="curve" smooth="yes"/>
			<point x="615.75" y="670"/>
			<point x="556.75" y="697"/>
			<point x="509.75" y="697" type="curve" smooth="yes"/>
			<point x="438.75" y="697"/>
			<point x="397.75" y="646"/>
			<point x="361.75" y="606" type="curve" smooth="yes"/>
			<point x="321.75" y="562"/>
			<point x="281.75" y="508"/>
		</contour>
		<contour>
			<point x="621.75" y="85" type="line"/>
			<point x="612.75" y="42"/>
			<point x="593.75" y="-39"/>
			<point x="585.75" y="-81" type="curve" smooth="yes"/>
			<point x="575.75" y="-130"/>
			<point x="600.75" y="-167"/>
			<point x="654.75" y="-167" type="curve" smooth="yes"/>
			<point x="696.75" y="-167"/>
			<point x="736.75" y="-146"/>
			<point x="750.75" y="-103" type="curve" smooth="yes"/>
			<point x="758.75" y="-76"/>
			<point x="782.75" y="18"/>
			<point x="795.75" y="85" type="curve" smooth="yes"/>
			<point x="811.75" y="166"/>
			<point x="805.75" y="222"/>
			<point x="718.75" y="230" type="curve" smooth="yes"/>
			<point x="675.75" y="234"/>
			<point x="585.75" y="237"/>
			<point x="490.75" y="237" type="curve" smooth="yes"/>
			<point x="308.75" y="237"/>
			<point x="171.75" y="230"/>
			<point x="115.75" y="227" type="curve" smooth="yes"/>
			<point x="6.75" y="221"/>
			<point x="-17.25" y="166"/>
			<point x="-29.25" y="105" type="curve" smooth="yes"/>
			<point x="-39.25" y="55"/>
			<point x="-36.25" y="-17"/>
			<point x="-32.25" y="-56" type="curve" smooth="yes"/>
			<point x="-28.25" y="-91"/>
			<point x="-13.25" y="-126"/>
			<point x="24.75" y="-126" type="curve" smooth="yes"/>
			<point x="72.75" y="-126"/>
			<point x="116.75" y="-98"/>
			<point x="126.75" y="-52" type="curve" smooth="yes"/>
			<point x="134.75" y="-11"/>
			<point x="135.75" y="75"/>
			<point x="133.75" y="125" type="curve"/>
			<point x="79.75" y="61" type="line"/>
			<point x="155.75" y="79"/>
			<point x="271.75" y="80"/>
			<point x="419.75" y="80" type="curve" smooth="yes"/>
			<point x="498.75" y="80"/>
			<point x="603.75" y="76"/>
			<point x="647.75" y="74" type="curve"/>
		</contour>
	</outline>
</glyph>
<glyph name="Ishortcyr" format="2">
	<unicode hex="0419"/>
	<advance width="746"/>
	<outline>
		<contour>
			<point x="524.645" y="902" type="curve" smooth="yes"/>
			<point x="490.645" y="902"/>
			<point x="473.645" y="923"/>
			<point x="459.645" y="949" type="curve" smooth="yes"/>
			<point x="447.645" y="971"/>
			<point x="434.645" y="988"/>
			<point x="408.645" y="988" type="curve" smooth="yes"/>
			<point x="363.645" y="988"/>
			<point x="327.645" y="960"/>
			<point x="317.645" y="911" type="curve" smooth="yes"/>
			<point x="301.645" y="829"/>
			<point x="361.645" y="768"/>
			<point x="472.645" y="768" type="curve" smooth="yes"/>
			<point x="581.645" y="768"/>
			<point x="710.645" y="823"/>
			<point x="724.645" y="897" type="curve" smooth="yes"/>
			<point x="731.645" y="932"/>
			<point x="719.645" y="953"/>
			<point x="686.645" y="953" type="curve" smooth="yes"/>
			<point x="664.645" y="953"/>
			<point x="644.645" y="940"/>
			<point x="616.645" y="927" type="curve" smooth="yes"/>
			<point x="586.645" y="913"/>
			<point x="551.645" y="902"/>
		</contour>
		<component base="Icyr" xOffset="-3.761"/>
	</outline>
	<anchor name="top" x="461.646" y="700"/>
</glyph>
<glyph name="Elcyr" format="2">
	<unicode hex="041B"/>
	<advance width="691"/>
	<outline>
		<contour>
			<point x="-7.559" y="138" type="curve" smooth="yes"/>
			<point x="-15.559" y="98"/>
			<point x="10.441" y="53"/>
			<point x="53.441" y="53" type="curve" smooth="yes"/>
			<point x="91.441" y="53"/>
			<point x="115.441" y="66"/>
			<point x="140.441" y="96" type="curve" smooth="yes"/>
			<point x="160.441" y="119"/>
			<point x="200.441" y="182"/>
			<point x="268.441" y="279" type="curve" smooth="yes"/>
			<point x="326.441" y="363"/>
			<point x="377.441" y="424"/>
			<point x="433.441" y="478" type="curve"/>
			<point x="372.441" y="476" type="line"/>
			<point x="415.441" y="418"/>
			<point x="445.441" y="264"/>
			<point x="452.441" y="136" type="curve" smooth="yes"/>
			<point x="456.441" y="52"/>
			<point x="456.441" y="13"/>
			<point x="517.441" y="13" type="curve" smooth="yes"/>
			<point x="569.441" y="13"/>
			<point x="625.441" y="60"/>
			<point x="634.441" y="106" type="curve" smooth="yes"/>
			<point x="662.441" y="243"/>
			<point x="602.441" y="490"/>
			<point x="563.441" y="562" type="curve" smooth="yes"/>
			<point x="532.441" y="621"/>
			<point x="492.441" y="656"/>
			<point x="427.441" y="656" type="curve" smooth="yes"/>
			<point x="380.441" y="656"/>
			<point x="335.441" y="618"/>
			<point x="305.441" y="585" type="curve" smooth="yes"/>
			<point x="280.441" y="559"/>
			<point x="190.441" y="449"/>
			<point x="118.441" y="348" type="curve" smooth="yes"/>
			<point x="62.441" y="269"/>
			<point x="1.441" y="183"/>
		</contour>
	</outline>
	<guideline x="47.406" y="658" angle="0" identifier="b3w6f6co8h"/>
	<guideline x="47.406" y="658" angle="0" identifier="jdn5JLBvkG"/>
	<guideline x="47.406" y="658" angle="0" identifier="mF84iu6Knu"/>
</glyph>
<glyph name="Emcyr" format="2">
	<unicode hex="041C"/>
	<advance width="1006"/>
	<outline>
		<contour>
			<point x="822.51" y="-5" type="curve" smooth="yes"/>
			<point x="776.51" y="-5"/>
			<point x="756.51" y="31"/>
			<point x="743.51" y="116" type="curve" smooth="yes"/>
			<point x="734.51" y="196"/>
			<point x="737.51" y="293"/>
			<point x="746.51" y="408" type="curve"/>
			<point x="774.51" y="392" type="line"/>
			<point x="757.51" y="365"/>
			<point x="672.51" y="257"/>
			<point x="616.51" y="192" type="curve" smooth="yes"/>
			<point x="554.51" y="119"/>
			<point x="524.51" y="82"/>
			<point x="469.51" y="82" type="curve" smooth="yes"/>
			<point x="418.51" y="82"/>
			<point x="389.51" y="123"/>
			<point x="372.51" y="175" type="curve" smooth="yes"/>
			<point x="358.51" y="219"/>
			<point x="337.51" y="352"/>
			<point x="341.51" y="446" type="curve"/>
			<point x="370.51" y="435" type="line"/>
			<point x="334.51" y="404"/>
			<point x="288.51" y="353"/>
			<point x="247.51" y="287" type="curve" smooth="yes"/>
			<point x="208.51" y="219"/>
			<point x="180.51" y="153"/>
			<point x="171.51" y="131" type="curve" smooth="yes"/>
			<point x="152.51" y="92"/>
			<point x="118.51" y="55"/>
			<point x="68.51" y="55" type="curve" smooth="yes"/>
			<point x="16.51" y="55"/>
			<point x="-2.49" y="102"/>
			<point x="13.51" y="182" type="curve" smooth="yes"/>
			<point x="24.51" y="235"/>
			<point x="65.51" y="329"/>
			<point x="143.51" y="425" type="curve" smooth="yes"/>
			<point x="228.51" y="532"/>
			<point x="333.51" y="606"/>
			<point x="376.51" y="606" type="curve" smooth="yes"/>
			<point x="433.51" y="606"/>
			<point x="494.51" y="565"/>
			<point x="506.51" y="479" type="curve" smooth="yes"/>
			<point x="515.51" y="413"/>
			<point x="536.51" y="313"/>
			<point x="545.51" y="267" type="curve"/>
			<point x="495.51" y="258" type="line"/>
			<point x="548.51" y="327"/>
			<point x="595.51" y="393"/>
			<point x="636.51" y="446" type="curve" smooth="yes"/>
			<point x="726.51" y="561"/>
			<point x="754.51" y="600"/>
			<point x="818.51" y="600" type="curve" smooth="yes"/>
			<point x="859.51" y="600"/>
			<point x="903.51" y="559"/>
			<point x="906.51" y="497" type="curve" smooth="yes"/>
			<point x="910.51" y="422"/>
			<point x="905.51" y="339"/>
			<point x="913.51" y="254" type="curve" smooth="yes"/>
			<point x="921.51" y="157"/>
			<point x="946.51" y="120"/>
			<point x="939.51" y="84" type="curve" smooth="yes"/>
			<point x="930.51" y="38"/>
			<point x="875.51" y="-5"/>
		</contour>
	</outline>
</glyph>
<glyph name="Ucyr" format="2">
	<unicode hex="0423"/>
	<advance width="667"/>
	<outline>
		<contour>
			<point x="268.857" y="511" type="curve" smooth="yes"/>
			<point x="276.857" y="550"/>
			<point x="290.857" y="594"/>
			<point x="297.857" y="629" type="curve" smooth="yes"/>
			<point x="306.857" y="676"/>
			<point x="274.857" y="706"/>
			<point x="219.857" y="706" type="curve" smooth="yes"/>
			<point x="159.857" y="706"/>
			<point x="117.857" y="615"/>
			<point x="100.857" y="531" type="curve" smooth="yes"/>
			<point x="71.857" y="385"/>
			<point x="110.857" y="280"/>
			<point x="282.857" y="280" type="curve" smooth="yes"/>
			<point x="395.857" y="280"/>
			<point x="454.857" y="351"/>
			<point x="521.857" y="429" type="curve"/>
			<point x="496.857" y="538" type="line"/>
			<point x="484.857" y="494"/>
			<point x="422.857" y="295"/>
			<point x="399.857" y="229" type="curve" smooth="yes"/>
			<point x="377.857" y="173"/>
			<point x="331.857" y="108"/>
			<point x="263.857" y="108" type="curve" smooth="yes"/>
			<point x="160.857" y="108"/>
			<point x="153.857" y="163"/>
			<point x="99.857" y="163" type="curve" smooth="yes"/>
			<point x="59.857" y="163"/>
			<point x="20.857" y="119"/>
			<point x="13.857" y="83" type="curve" smooth="yes"/>
			<point x="-2.143" y="6"/>
			<point x="86.857" y="-52"/>
			<point x="217.857" y="-52" type="curve" smooth="yes"/>
			<point x="417.857" y="-52"/>
			<point x="501.857" y="85"/>
			<point x="556.857" y="192" type="curve" smooth="yes"/>
			<point x="600.857" y="291"/>
			<point x="655.857" y="464"/>
			<point x="671.857" y="543" type="curve" smooth="yes"/>
			<point x="686.857" y="621"/>
			<point x="651.857" y="669"/>
			<point x="587.857" y="669" type="curve" smooth="yes"/>
			<point x="550.857" y="669"/>
			<point x="511.857" y="611"/>
			<point x="469.857" y="549" type="curve" smooth="yes"/>
			<point x="435.857" y="502"/>
			<point x="387.857" y="436"/>
			<point x="330.857" y="436" type="curve" smooth="yes"/>
			<point x="257.857" y="436"/>
			<point x="263.857" y="487"/>
		</contour>
	</outline>
	<anchor name="top" x="416.858" y="700"/>
</glyph>
<glyph name="Shacyr" format="2">
	<unicode hex="0428"/>
	<advance width="991"/>
	<outline>
		<contour>
			<point x="357.453" y="50" type="curve" smooth="yes"/>
			<point x="57.453" y="50"/>
			<point x="26.453" y="124"/>
			<point x="63.453" y="311" type="curve" smooth="yes"/>
			<point x="81.453" y="401"/>
			<point x="122.453" y="522"/>
			<point x="143.453" y="560" type="curve" smooth="yes"/>
			<point x="167.453" y="600"/>
			<point x="197.453" y="624"/>
			<point x="231.453" y="624" type="curve" smooth="yes"/>
			<point x="286.453" y="624"/>
			<point x="314.453" y="555"/>
			<point x="304.453" y="506" type="curve" smooth="yes"/>
			<point x="295.453" y="458"/>
			<point x="255.453" y="369"/>
			<point x="242.453" y="305" type="curve" smooth="yes"/>
			<point x="233.453" y="261"/>
			<point x="236.453" y="238"/>
			<point x="254.453" y="229" type="curve" smooth="yes"/>
			<point x="278.453" y="206"/>
			<point x="340.453" y="212"/>
			<point x="393.453" y="212" type="curve" smooth="yes"/>
			<point x="588.453" y="212"/>
			<point x="666.453" y="225"/>
			<point x="717.453" y="247" type="curve" smooth="yes"/>
			<point x="753.453" y="260"/>
			<point x="771.453" y="286"/>
			<point x="777.453" y="316" type="curve" smooth="yes"/>
			<point x="798.453" y="418"/>
			<point x="793.453" y="511"/>
			<point x="798.453" y="534" type="curve" smooth="yes"/>
			<point x="806.453" y="577"/>
			<point x="861.453" y="623"/>
			<point x="909.453" y="623" type="curve" smooth="yes"/>
			<point x="956.453" y="623"/>
			<point x="970.453" y="597"/>
			<point x="972.453" y="551" type="curve" smooth="yes"/>
			<point x="977.453" y="513"/>
			<point x="970.453" y="420"/>
			<point x="952.453" y="332" type="curve" smooth="yes"/>
			<point x="933.453" y="236"/>
			<point x="912.453" y="181"/>
			<point x="855.453" y="139" type="curve" smooth="yes"/>
			<point x="781.453" y="85"/>
			<point x="623.453" y="50"/>
		</contour>
		<contour>
			<point x="389.453" y="156" type="line"/>
			<point x="389.453" y="207"/>
			<point x="400.453" y="268"/>
			<point x="412.453" y="330" type="curve" smooth="yes"/>
			<point x="422.453" y="379"/>
			<point x="439.453" y="438"/>
			<point x="446.453" y="474" type="curve" smooth="yes"/>
			<point x="459.453" y="538"/>
			<point x="474.453" y="591"/>
			<point x="534.453" y="591" type="curve" smooth="yes"/>
			<point x="617.453" y="591"/>
			<point x="624.453" y="523"/>
			<point x="608.453" y="447" type="curve" smooth="yes"/>
			<point x="600.453" y="407"/>
			<point x="587.453" y="359"/>
			<point x="578.453" y="313" type="curve" smooth="yes"/>
			<point x="567.453" y="259"/>
			<point x="559.453" y="205"/>
			<point x="561.453" y="158" type="curve"/>
		</contour>
	</outline>
</glyph>
<glyph name="Shchacyr" format="2">
	<unicode hex="0429"/>
	<advance width="1074"/>
	<outline>
		<contour>
			<point x="640.924" y="565" type="curve" smooth="yes"/>
			<point x="651.924" y="621"/>
			<point x="612.924" y="666"/>
			<point x="569.924" y="666" type="curve" smooth="yes"/>
			<point x="521.924" y="666"/>
			<point x="488.924" y="631"/>
			<point x="477.924" y="585" type="curve" smooth="yes"/>
			<point x="470.924" y="559"/>
			<point x="450.924" y="500"/>
			<point x="433.924" y="413" type="curve" smooth="yes"/>
			<point x="417.924" y="333"/>
			<point x="404.924" y="253"/>
			<point x="403.924" y="197" type="curve" smooth="yes"/>
			<point x="403.924" y="156"/>
			<point x="434.924" y="124"/>
			<point x="475.924" y="124" type="curve" smooth="yes"/>
			<point x="516.924" y="124"/>
			<point x="565.924" y="151"/>
			<point x="575.924" y="198" type="curve" smooth="yes"/>
			<point x="582.924" y="237"/>
			<point x="581.924" y="305"/>
			<point x="603.924" y="414" type="curve" smooth="yes"/>
			<point x="615.924" y="475"/>
			<point x="635.924" y="540"/>
		</contour>
		<contour>
			<point x="912.924" y="235" type="curve" smooth="yes"/>
			<point x="923.924" y="288"/>
			<point x="931.924" y="338"/>
			<point x="945.924" y="383" type="curve" smooth="yes"/>
			<point x="960.924" y="438"/>
			<point x="978.924" y="492"/>
			<point x="982.924" y="512" type="curve" smooth="yes"/>
			<point x="992.924" y="559"/>
			<point x="977.924" y="625"/>
			<point x="912.924" y="625" type="curve" smooth="yes"/>
			<point x="860.924" y="625"/>
			<point x="839.924" y="597"/>
			<point x="816.924" y="534" type="curve" smooth="yes"/>
			<point x="799.924" y="488"/>
			<point x="769.924" y="383"/>
			<point x="750.924" y="291" type="curve" smooth="yes"/>
			<point x="733.924" y="206"/>
			<point x="743.924" y="146"/>
			<point x="809.924" y="146" type="curve" smooth="yes"/>
			<point x="856.924" y="146"/>
			<point x="902.924" y="187"/>
		</contour>
		<contour>
			<point x="224.924" y="633" type="curve" smooth="yes"/>
			<point x="180.924" y="633"/>
			<point x="152.924" y="599"/>
			<point x="143.924" y="554" type="curve" smooth="yes"/>
			<point x="140.924" y="538"/>
			<point x="134.924" y="502"/>
			<point x="130.924" y="481" type="curve" smooth="yes"/>
			<point x="117.924" y="413"/>
			<point x="68.924" y="316"/>
			<point x="59.924" y="269" type="curve" smooth="yes"/>
			<point x="30.924" y="126"/>
			<point x="70.924" y="60"/>
			<point x="359.924" y="60" type="curve" smooth="yes"/>
			<point x="546.924" y="60"/>
			<point x="692.924" y="88"/>
			<point x="792.924" y="88" type="curve" smooth="yes"/>
			<point x="814.924" y="88"/>
			<point x="834.924" y="87"/>
			<point x="852.924" y="83" type="curve"/>
			<point x="852.924" y="121" type="line"/>
			<point x="829.924" y="25"/>
			<point x="752.924" y="-66"/>
			<point x="739.924" y="-131" type="curve" smooth="yes"/>
			<point x="731.924" y="-168"/>
			<point x="751.924" y="-197"/>
			<point x="808.924" y="-197" type="curve" smooth="yes"/>
			<point x="835.924" y="-197"/>
			<point x="864.924" y="-183"/>
			<point x="888.924" y="-156" type="curve" smooth="yes"/>
			<point x="951.924" y="-72"/>
			<point x="1015.924" y="58"/>
			<point x="1031.924" y="141" type="curve" smooth="yes"/>
			<point x="1045.924" y="210"/>
			<point x="995.924" y="254"/>
			<point x="897.924" y="254" type="curve" smooth="yes"/>
			<point x="775.924" y="254"/>
			<point x="544.924" y="229"/>
			<point x="340.924" y="229" type="curve" smooth="yes"/>
			<point x="277.924" y="229"/>
			<point x="226.924" y="239"/>
			<point x="237.924" y="297" type="curve" smooth="yes"/>
			<point x="245.924" y="335"/>
			<point x="293.924" y="431"/>
			<point x="308.924" y="503" type="curve" smooth="yes"/>
			<point x="324.924" y="587"/>
			<point x="284.924" y="633"/>
		</contour>
	</outline>
</glyph>
<glyph name="Yucyr" format="2">
	<unicode hex="042E"/>
	<advance width="946"/>
	<outline>
		<contour>
			<point x="274.957" y="589" type="curve" smooth="yes"/>
			<point x="269.957" y="620"/>
			<point x="248.957" y="657"/>
			<point x="209.957" y="657" type="curve" smooth="yes"/>
			<point x="156.957" y="657"/>
			<point x="109.957" y="617"/>
			<point x="100.957" y="571" type="curve" smooth="yes"/>
			<point x="97.957" y="553"/>
			<point x="113.957" y="467"/>
			<point x="99.957" y="395" type="curve" smooth="yes"/>
			<point x="79.957" y="297"/>
			<point x="15.957" y="147"/>
			<point x="7.957" y="104" type="curve" smooth="yes"/>
			<point x="-3.043" y="51"/>
			<point x="33.957" y="21"/>
			<point x="77.957" y="21" type="curve" smooth="yes"/>
			<point x="113.957" y="21"/>
			<point x="153.957" y="46"/>
			<point x="169.957" y="93" type="curve" smooth="yes"/>
			<point x="184.957" y="136"/>
			<point x="199.957" y="196"/>
			<point x="239.957" y="232" type="curve" smooth="yes"/>
			<point x="276.957" y="268"/>
			<point x="329.957" y="277"/>
			<point x="384.957" y="277" type="curve" smooth="yes"/>
			<point x="468.957" y="277"/>
			<point x="519.957" y="362"/>
			<point x="634.957" y="401" type="curve"/>
			<point x="597.957" y="525" type="line"/>
			<point x="461.957" y="468"/>
			<point x="387.957" y="371"/>
			<point x="371.957" y="288" type="curve" smooth="yes"/>
			<point x="347.957" y="171"/>
			<point x="401.957" y="49"/>
			<point x="580.957" y="49" type="curve" smooth="yes"/>
			<point x="750.957" y="49"/>
			<point x="899.957" y="169"/>
			<point x="925.957" y="300" type="curve" smooth="yes"/>
			<point x="961.957" y="480"/>
			<point x="832.957" y="609"/>
			<point x="660.957" y="609" type="curve" smooth="yes"/>
			<point x="614.957" y="609"/>
			<point x="566.957" y="569"/>
			<point x="557.957" y="523" type="curve" smooth="yes"/>
			<point x="547.957" y="477"/>
			<point x="579.957" y="437"/>
			<point x="625.957" y="437" type="curve" smooth="yes"/>
			<point x="717.957" y="437"/>
			<point x="768.957" y="377"/>
			<point x="756.957" y="315" type="curve" smooth="yes"/>
			<point x="745.957" y="258"/>
			<point x="702.957" y="217"/>
			<point x="622.957" y="217" type="curve" smooth="yes"/>
			<point x="551.957" y="217"/>
			<point x="535.957" y="251"/>
			<point x="542.957" y="286" type="curve" smooth="yes"/>
			<point x="551.957" y="330"/>
			<point x="610.957" y="390"/>
			<point x="702.957" y="422" type="curve"/>
			<point x="596.957" y="489" type="line"/>
			<point x="498.957" y="441"/>
			<point x="450.957" y="440"/>
			<point x="391.957" y="440" type="curve" smooth="yes"/>
			<point x="264.957" y="440"/>
			<point x="228.957" y="399"/>
			<point x="167.957" y="343" type="curve" smooth="yes"/>
			<point x="90.957" y="281"/>
			<point x="35.957" y="133"/>
			<point x="35.957" y="133" type="curve"/>
			<point x="173.957" y="115" type="line"/>
			<point x="173.957" y="115"/>
			<point x="253.957" y="321"/>
			<point x="271.957" y="411" type="curve" smooth="yes"/>
			<point x="288.957" y="494"/>
			<point x="277.957" y="570"/>
		</contour>
	</outline>
</glyph>
<glyph name="Yacyr" format="2">
	<unicode hex="042F"/>
	<advance width="660"/>
	<outline>
		<contour>
			<point x="396.39" y="71" type="curve" smooth="yes"/>
			<point x="396.39" y="30"/>
			<point x="415.39" y="0"/>
			<point x="455.39" y="0" type="curve" smooth="yes"/>
			<point x="502.39" y="0"/>
			<point x="562.39" y="35"/>
			<point x="571.39" y="80" type="curve" smooth="yes"/>
			<point x="575.39" y="101"/>
			<point x="569.39" y="172"/>
			<point x="588.39" y="263" type="curve" smooth="yes"/>
			<point x="609.39" y="370"/>
			<point x="654.39" y="507"/>
			<point x="660.39" y="535" type="curve" smooth="yes"/>
			<point x="676.39" y="615"/>
			<point x="615.39" y="647"/>
			<point x="489.39" y="647" type="curve" smooth="yes"/>
			<point x="194.39" y="647"/>
			<point x="91.39" y="518"/>
			<point x="75.39" y="440" type="curve" smooth="yes"/>
			<point x="61.39" y="371"/>
			<point x="101.39" y="266"/>
			<point x="307.39" y="244" type="curve"/>
			<point x="274.39" y="299" type="line"/>
			<point x="217.39" y="243"/>
			<point x="162.39" y="196"/>
			<point x="105.39" y="152" type="curve" smooth="yes"/>
			<point x="31.39" y="94"/>
			<point x="-31.61" y="61"/>
			<point x="-39.61" y="20" type="curve" smooth="yes"/>
			<point x="-46.61" y="-13"/>
			<point x="-27.61" y="-52"/>
			<point x="27.39" y="-52" type="curve" smooth="yes"/>
			<point x="76.39" y="-52"/>
			<point x="150.39" y="-8"/>
			<point x="249.39" y="80" type="curve" smooth="yes"/>
			<point x="320.39" y="143"/>
			<point x="442.39" y="257"/>
			<point x="452.39" y="304" type="curve" smooth="yes"/>
			<point x="459.39" y="338"/>
			<point x="436.39" y="353"/>
			<point x="392.39" y="364" type="curve" smooth="yes"/>
			<point x="302.39" y="386"/>
			<point x="244.39" y="405"/>
			<point x="251.39" y="439" type="curve" smooth="yes"/>
			<point x="255.39" y="459"/>
			<point x="326.39" y="481"/>
			<point x="409.39" y="481" type="curve" smooth="yes"/>
			<point x="445.39" y="481"/>
			<point x="472.39" y="476"/>
			<point x="488.39" y="472" type="curve"/>
			<point x="481.39" y="500" type="line"/>
			<point x="476.39" y="475"/>
			<point x="435.39" y="350"/>
			<point x="418.39" y="274" type="curve" smooth="yes"/>
			<point x="399.39" y="182"/>
			<point x="396.39" y="82"/>
		</contour>
	</outline>
</glyph>
<glyph name="becyr" format="2">
	<unicode hex="0431"/>
	<advance width="645"/>
	<outline>
		<contour>
			<point x="267.473" y="-37" type="curve" smooth="yes"/>
			<point x="64.473" y="-37"/>
			<point x="16.473" y="137"/>
			<point x="51.473" y="310" type="curve" smooth="yes"/>
			<point x="88.473" y="495"/>
			<point x="182.473" y="601"/>
			<point x="301.473" y="651" type="curve" smooth="yes"/>
			<point x="383.473" y="686"/>
			<point x="457.473" y="701"/>
			<point x="512.473" y="722" type="curve" smooth="yes"/>
			<point x="562.473" y="741"/>
			<point x="583.473" y="760"/>
			<point x="611.473" y="760" type="curve" smooth="yes"/>
			<point x="640.473" y="760"/>
			<point x="686.473" y="735"/>
			<point x="673.473" y="669" type="curve" smooth="yes"/>
			<point x="663.473" y="619"/>
			<point x="627.473" y="591"/>
			<point x="572.473" y="574" type="curve" smooth="yes"/>
			<point x="511.473" y="558"/>
			<point x="406.473" y="535"/>
			<point x="341.473" y="503" type="curve" smooth="yes"/>
			<point x="281.473" y="477"/>
			<point x="240.473" y="427"/>
			<point x="225.473" y="350" type="curve" smooth="yes"/>
			<point x="199.473" y="220"/>
			<point x="214.473" y="129"/>
			<point x="296.473" y="129" type="curve" smooth="yes"/>
			<point x="367.473" y="129"/>
			<point x="412.473" y="172"/>
			<point x="419.473" y="207" type="curve" smooth="yes"/>
			<point x="424.473" y="230"/>
			<point x="405.473" y="242"/>
			<point x="365.473" y="242" type="curve" smooth="yes"/>
			<point x="309.473" y="242"/>
			<point x="244.473" y="214"/>
			<point x="191.473" y="173" type="curve"/>
			<point x="139.473" y="257" type="line"/>
			<point x="191.473" y="337"/>
			<point x="316.473" y="412"/>
			<point x="440.473" y="412" type="curve" smooth="yes"/>
			<point x="540.473" y="412"/>
			<point x="621.473" y="357"/>
			<point x="599.473" y="247" type="curve" smooth="yes"/>
			<point x="574.473" y="120"/>
			<point x="419.473" y="-37"/>
		</contour>
	</outline>
	<guideline x="443.406" y="302" angle="90" identifier="1IemZ97HBj"/>
</glyph>
<glyph name="vecyr" format="2">
	<unicode hex="0432"/>
	<advance width="603"/>
	<outline>
		<contour>
			<point x="198.509" y="-52" type="curve" smooth="yes"/>
			<point x="54.509" y="-52"/>
			<point x="3.509" y="37"/>
			<point x="29.509" y="166" type="curve" smooth="yes"/>
			<point x="45.509" y="246"/>
			<point x="79.509" y="329"/>
			<point x="101.509" y="365" type="curve" smooth="yes"/>
			<point x="129.509" y="410"/>
			<point x="193.509" y="450"/>
			<point x="240.509" y="450" type="curve" smooth="yes"/>
			<point x="271.509" y="450"/>
			<point x="291.509" y="431"/>
			<point x="285.509" y="401" type="curve" smooth="yes"/>
			<point x="276.509" y="353"/>
			<point x="218.509" y="278"/>
			<point x="194.509" y="159" type="curve" smooth="yes"/>
			<point x="185.509" y="117"/>
			<point x="198.509" y="89"/>
			<point x="237.509" y="89" type="curve" smooth="yes"/>
			<point x="292.509" y="89"/>
			<point x="362.509" y="130"/>
			<point x="393.509" y="211" type="curve"/>
			<point x="423.509" y="166" type="line"/>
			<point x="367.509" y="178"/>
			<point x="261.509" y="189"/>
			<point x="196.509" y="190" type="curve"/>
			<point x="234.509" y="294" type="line"/>
			<point x="298.509" y="300"/>
			<point x="389.509" y="337"/>
			<point x="397.509" y="374" type="curve" smooth="yes"/>
			<point x="400.509" y="390"/>
			<point x="390.509" y="398"/>
			<point x="366.509" y="398" type="curve" smooth="yes"/>
			<point x="324.509" y="398"/>
			<point x="265.509" y="373"/>
			<point x="216.509" y="373" type="curve" smooth="yes"/>
			<point x="166.509" y="373"/>
			<point x="154.509" y="408"/>
			<point x="161.509" y="443" type="curve" smooth="yes"/>
			<point x="168.509" y="478"/>
			<point x="204.509" y="518"/>
			<point x="261.509" y="537" type="curve" smooth="yes"/>
			<point x="312.509" y="550"/>
			<point x="391.509" y="561"/>
			<point x="445.509" y="561" type="curve" smooth="yes"/>
			<point x="546.509" y="561"/>
			<point x="606.509" y="516"/>
			<point x="589.509" y="431" type="curve" smooth="yes"/>
			<point x="571.509" y="340"/>
			<point x="447.509" y="261"/>
			<point x="316.509" y="231" type="curve"/>
			<point x="341.509" y="292" type="line"/>
			<point x="455.509" y="292"/>
			<point x="568.509" y="285"/>
			<point x="548.509" y="186" type="curve" smooth="yes"/>
			<point x="527.509" y="81"/>
			<point x="366.509" y="-52"/>
		</contour>
	</outline>
	<guideline x="131.406" y="621" angle="90" identifier="NQt60oWmSh"/>
</glyph>
<glyph name="zhecyr" format="2">
	<unicode hex="0436"/>
	<advance width="906"/>
	<outline>
		<contour>
			<point x="571.995" y="430" type="curve" smooth="yes"/>
			<point x="580.995" y="477"/>
			<point x="562.995" y="530"/>
			<point x="500.995" y="530" type="curve" smooth="yes"/>
			<point x="454.995" y="530"/>
			<point x="434.995" y="508"/>
			<point x="419.995" y="471" type="curve" smooth="yes"/>
			<point x="402.995" y="427"/>
			<point x="377.995" y="327"/>
			<point x="370.995" y="288" type="curve" smooth="yes"/>
			<point x="360.995" y="241"/>
			<point x="331.995" y="161"/>
			<point x="325.995" y="132" type="curve" smooth="yes"/>
			<point x="311.995" y="58"/>
			<point x="343.995" y="21"/>
			<point x="390.995" y="21" type="curve" smooth="yes"/>
			<point x="442.995" y="21"/>
			<point x="478.995" y="52"/>
			<point x="489.995" y="106" type="curve" smooth="yes"/>
			<point x="497.995" y="147"/>
			<point x="503.995" y="209"/>
			<point x="509.995" y="241" type="curve" smooth="yes"/>
			<point x="520.995" y="297"/>
			<point x="560.995" y="373"/>
		</contour>
		<contour>
			<point x="327.995" y="414" type="curve" smooth="yes"/>
			<point x="273.995" y="461"/>
			<point x="226.995" y="530"/>
			<point x="183.995" y="530" type="curve" smooth="yes"/>
			<point x="138.995" y="530"/>
			<point x="111.995" y="492"/>
			<point x="104.995" y="456" type="curve" smooth="yes"/>
			<point x="92.995" y="394"/>
			<point x="131.995" y="360"/>
			<point x="197.995" y="318" type="curve" smooth="yes"/>
			<point x="272.995" y="270"/>
			<point x="296.995" y="263"/>
			<point x="333.995" y="251" type="curve"/>
			<point x="301.995" y="338" type="line"/>
			<point x="289.995" y="333"/>
			<point x="251.995" y="317"/>
			<point x="209.995" y="292" type="curve" smooth="yes"/>
			<point x="100.995" y="227"/>
			<point x="10.995" y="147"/>
			<point x="0.995" y="95" type="curve" smooth="yes"/>
			<point x="-8.005" y="48"/>
			<point x="13.995" y="0"/>
			<point x="55.995" y="0" type="curve" smooth="yes"/>
			<point x="98.995" y="0"/>
			<point x="177.995" y="91"/>
			<point x="261.995" y="156" type="curve" smooth="yes"/>
			<point x="304.995" y="190"/>
			<point x="342.995" y="214"/>
			<point x="385.995" y="236" type="curve"/>
			<point x="410.995" y="351" type="line"/>
			<point x="383.995" y="367"/>
			<point x="353.995" y="391"/>
		</contour>
		<contour>
			<point x="764.995" y="321" type="curve" smooth="yes"/>
			<point x="833.995" y="358"/>
			<point x="885.995" y="377"/>
			<point x="893.995" y="416" type="curve" smooth="yes"/>
			<point x="902.995" y="462"/>
			<point x="883.995" y="506"/>
			<point x="831.995" y="506" type="curve" smooth="yes"/>
			<point x="802.995" y="506"/>
			<point x="767.995" y="492"/>
			<point x="730.995" y="471" type="curve" smooth="yes"/>
			<point x="669.995" y="437"/>
			<point x="575.995" y="351"/>
			<point x="535.995" y="315" type="curve" smooth="yes"/>
			<point x="513.995" y="295"/>
			<point x="491.995" y="274"/>
			<point x="486.995" y="248" type="curve" smooth="yes"/>
			<point x="481.995" y="225"/>
			<point x="491.995" y="199"/>
			<point x="499.995" y="182" type="curve" smooth="yes"/>
			<point x="524.995" y="132"/>
			<point x="561.995" y="80"/>
			<point x="604.995" y="41" type="curve" smooth="yes"/>
			<point x="652.995" y="-3"/>
			<point x="698.995" y="-37"/>
			<point x="750.995" y="-37" type="curve" smooth="yes"/>
			<point x="795.995" y="-37"/>
			<point x="840.995" y="-2"/>
			<point x="849.995" y="47" type="curve" smooth="yes"/>
			<point x="855.995" y="73"/>
			<point x="831.995" y="96"/>
			<point x="765.995" y="133" type="curve" smooth="yes"/>
			<point x="703.995" y="167"/>
			<point x="663.995" y="213"/>
			<point x="667.995" y="236" type="curve" smooth="yes"/>
			<point x="672.995" y="260"/>
			<point x="706.995" y="289"/>
		</contour>
	</outline>
	<anchor name="top" x="509.995" y="535"/>
</glyph>
<glyph name="zecyr" format="2">
	<unicode hex="0437"/>
	<advance width="567"/>
	<outline>
		<contour>
			<point x="69.126" y="436" type="curve" smooth="yes"/>
			<point x="62.126" y="399"/>
			<point x="78.126" y="365"/>
			<point x="114.126" y="365" type="curve" smooth="yes"/>
			<point x="154.126" y="365"/>
			<point x="207.126" y="398"/>
			<point x="278.126" y="398" type="curve" smooth="yes"/>
			<point x="316.126" y="398"/>
			<point x="349.126" y="392"/>
			<point x="347.126" y="378" type="curve" smooth="yes"/>
			<point x="342.126" y="357"/>
			<point x="305.126" y="345"/>
			<point x="249.126" y="335" type="curve" smooth="yes"/>
			<point x="184.126" y="320"/>
			<point x="155.126" y="308"/>
			<point x="147.126" y="268" type="curve" smooth="yes"/>
			<point x="139.126" y="231"/>
			<point x="163.126" y="216"/>
			<point x="220.126" y="205" type="curve" smooth="yes"/>
			<point x="302.126" y="189"/>
			<point x="343.126" y="165"/>
			<point x="335.126" y="127" type="curve" smooth="yes"/>
			<point x="333.126" y="114"/>
			<point x="291.126" y="106"/>
			<point x="242.126" y="106" type="curve" smooth="yes"/>
			<point x="140.126" y="106"/>
			<point x="122.126" y="159"/>
			<point x="75.126" y="159" type="curve" smooth="yes"/>
			<point x="42.126" y="159"/>
			<point x="11.126" y="139"/>
			<point x="0.126" y="84" type="curve" smooth="yes"/>
			<point x="-16.874" y="-2"/>
			<point x="69.126" y="-52"/>
			<point x="221.126" y="-52" type="curve" smooth="yes"/>
			<point x="362.126" y="-52"/>
			<point x="490.126" y="23"/>
			<point x="509.126" y="118" type="curve" smooth="yes"/>
			<point x="528.126" y="214"/>
			<point x="468.126" y="291"/>
			<point x="356.126" y="291" type="curve"/>
			<point x="354.126" y="271" type="line"/>
			<point x="440.126" y="293"/>
			<point x="530.126" y="349"/>
			<point x="546.126" y="428" type="curve" smooth="yes"/>
			<point x="562.126" y="508"/>
			<point x="487.126" y="563"/>
			<point x="322.126" y="563" type="curve" smooth="yes"/>
			<point x="223.126" y="563"/>
			<point x="87.126" y="524"/>
		</contour>
	</outline>
	<anchor name="top" x="337.926" y="574"/>
	<guideline x="39.406" y="263" angle="90" identifier="5pv7sr0WZR"/>
	<guideline x="42.406" y="278" angle="90" identifier="ix0anRrM36"/>
	<guideline x="39.406" y="263" angle="90" identifier="AJVdwzBkqH"/>
	<guideline x="42.406" y="278" angle="90" identifier="B3eDkwXKdX"/>
</glyph>
<glyph name="icyr" format="2">
	<unicode hex="0438"/>
	<advance width="723"/>
	<outline>
		<contour>
			<point x="229.366" y="242" type="curve" smooth="yes"/>
			<point x="239.366" y="290"/>
			<point x="264.366" y="344"/>
			<point x="270.366" y="375" type="curve" smooth="yes"/>
			<point x="281.366" y="428"/>
			<point x="239.366" y="472"/>
			<point x="186.366" y="472" type="curve" smooth="yes"/>
			<point x="155.366" y="472"/>
			<point x="121.366" y="450"/>
			<point x="104.366" y="399" type="curve" smooth="yes"/>
			<point x="91.366" y="361"/>
			<point x="67.366" y="272"/>
			<point x="54.366" y="206" type="curve" smooth="yes"/>
			<point x="31.366" y="89"/>
			<point x="45.366" y="-19"/>
			<point x="157.366" y="-19" type="curve" smooth="yes"/>
			<point x="247.366" y="-19"/>
			<point x="353.366" y="53"/>
			<point x="448.366" y="207" type="curve" smooth="yes"/>
			<point x="494.366" y="276"/>
			<point x="529.366" y="346"/>
			<point x="541.366" y="369" type="curve"/>
			<point x="456.366" y="353" type="line"/>
			<point x="455.366" y="300"/>
			<point x="453.366" y="241"/>
			<point x="463.366" y="173" type="curve" smooth="yes"/>
			<point x="471.366" y="81"/>
			<point x="486.366" y="12"/>
			<point x="547.366" y="12" type="curve" smooth="yes"/>
			<point x="598.366" y="12"/>
			<point x="651.366" y="57"/>
			<point x="661.366" y="105" type="curve" smooth="yes"/>
			<point x="671.366" y="154"/>
			<point x="637.366" y="180"/>
			<point x="631.366" y="261" type="curve" smooth="yes"/>
			<point x="627.366" y="298"/>
			<point x="630.366" y="380"/>
			<point x="629.366" y="423" type="curve" smooth="yes"/>
			<point x="627.366" y="469"/>
			<point x="609.366" y="508"/>
			<point x="547.366" y="508" type="curve" smooth="yes"/>
			<point x="463.366" y="508"/>
			<point x="415.366" y="394"/>
			<point x="343.366" y="282" type="curve" smooth="yes"/>
			<point x="297.366" y="202"/>
			<point x="260.366" y="156"/>
			<point x="233.366" y="156" type="curve" smooth="yes"/>
			<point x="211.366" y="156"/>
			<point x="222.366" y="203"/>
		</contour>
	</outline>
	<anchor name="top" x="403.367" y="515"/>
</glyph>
<glyph name="ishortcyr" format="2">
	<unicode hex="0439"/>
	<advance width="723"/>
	<outline>
		<contour>
			<point x="400.366" y="670" type="curve" smooth="yes"/>
			<point x="368.366" y="670"/>
			<point x="369.366" y="695"/>
			<point x="362.366" y="717" type="curve" smooth="yes"/>
			<point x="355.366" y="744"/>
			<point x="340.366" y="759"/>
			<point x="312.366" y="759" type="curve" smooth="yes"/>
			<point x="268.366" y="759"/>
			<point x="229.366" y="730"/>
			<point x="218.366" y="674" type="curve" smooth="yes"/>
			<point x="205.366" y="609"/>
			<point x="259.366" y="542"/>
			<point x="350.366" y="542" type="curve" smooth="yes"/>
			<point x="496.366" y="542"/>
			<point x="612.366" y="662"/>
			<point x="628.366" y="741" type="curve" smooth="yes"/>
			<point x="635.366" y="773"/>
			<point x="620.366" y="795"/>
			<point x="582.366" y="795" type="curve" smooth="yes"/>
			<point x="553.366" y="795"/>
			<point x="534.366" y="782"/>
			<point x="508.366" y="758" type="curve" smooth="yes"/>
			<point x="471.366" y="726"/>
			<point x="432.366" y="670"/>
		</contour>
		<component base="icyr" xOffset="-4.04"/>
	</outline>
	<anchor name="top" x="403.367" y="515"/>
	<guideline x="230.406" y="515" angle="90" identifier="p0aJ1s3JmT"/>
	<guideline x="246.406" y="464" angle="90" identifier="XJW6VjdRJe"/>
</glyph>
<glyph name="tsecyr" format="2">
	<unicode hex="0446"/>
	<advance width="724"/>
	<outline>
		<contour>
			<point x="269.565" y="375" type="curve" smooth="yes"/>
			<point x="281.565" y="434"/>
			<point x="246.565" y="465"/>
			<point x="209.565" y="465" type="curve" smooth="yes"/>
			<point x="156.565" y="465"/>
			<point x="133.565" y="446"/>
			<point x="114.565" y="403" type="curve" smooth="yes"/>
			<point x="91.565" y="354"/>
			<point x="44.565" y="232"/>
			<point x="35.565" y="184" type="curve" smooth="yes"/>
			<point x="19.565" y="106"/>
			<point x="33.565" y="28"/>
			<point x="137.565" y="28" type="curve" smooth="yes"/>
			<point x="234.565" y="28"/>
			<point x="444.565" y="49"/>
			<point x="516.565" y="61" type="curve"/>
			<point x="505.565" y="75" type="line"/>
			<point x="486.565" y="27"/>
			<point x="449.565" y="-41"/>
			<point x="441.565" y="-79" type="curve" smooth="yes"/>
			<point x="435.565" y="-110"/>
			<point x="458.565" y="-152"/>
			<point x="515.565" y="-152" type="curve" smooth="yes"/>
			<point x="561.565" y="-152"/>
			<point x="578.565" y="-116"/>
			<point x="610.565" y="-68" type="curve" smooth="yes"/>
			<point x="634.565" y="-25"/>
			<point x="664.565" y="53"/>
			<point x="674.565" y="107" type="curve" smooth="yes"/>
			<point x="691.565" y="190"/>
			<point x="649.565" y="221"/>
			<point x="567.565" y="221" type="curve" smooth="yes"/>
			<point x="492.565" y="221"/>
			<point x="332.565" y="178"/>
			<point x="231.565" y="178" type="curve" smooth="yes"/>
			<point x="216.565" y="178"/>
			<point x="208.565" y="187"/>
			<point x="212.565" y="204" type="curve" smooth="yes"/>
			<point x="223.565" y="259"/>
			<point x="263.565" y="345"/>
		</contour>
		<contour>
			<point x="586.565" y="444" type="curve" smooth="yes"/>
			<point x="576.565" y="483"/>
			<point x="553.565" y="507"/>
			<point x="495.565" y="507" type="curve" smooth="yes"/>
			<point x="456.565" y="507"/>
			<point x="423.565" y="481"/>
			<point x="414.565" y="435" type="curve" smooth="yes"/>
			<point x="407.565" y="401"/>
			<point x="411.565" y="316"/>
			<point x="401.565" y="265" type="curve" smooth="yes"/>
			<point x="394.565" y="230"/>
			<point x="383.565" y="203"/>
			<point x="371.565" y="175" type="curve"/>
			<point x="548.565" y="187" type="line"/>
			<point x="561.565" y="224"/>
			<point x="574.565" y="268"/>
			<point x="582.565" y="310" type="curve" smooth="yes"/>
			<point x="591.565" y="357"/>
			<point x="594.565" y="402"/>
		</contour>
	</outline>
	<guideline x="39.406" y="263" angle="90" identifier="rQENFQOEUJ"/>
	<guideline x="42.406" y="278" angle="90" identifier="rKZszPBnKc"/>
</glyph>
<glyph name="checyr" format="2">
	<unicode hex="0447"/>
	<advance width="636"/>
	<outline>
		<contour>
			<point x="494.675" y="324" type="curve"/>
			<point x="457.675" y="448" type="line"/>
			<point x="372.675" y="359"/>
			<point x="277.675" y="276"/>
			<point x="232.675" y="276" type="curve" smooth="yes"/>
			<point x="213.675" y="276"/>
			<point x="209.675" y="287"/>
			<point x="212.675" y="302" type="curve" smooth="yes"/>
			<point x="222.675" y="350"/>
			<point x="279.675" y="389"/>
			<point x="286.675" y="426" type="curve" smooth="yes"/>
			<point x="293.675" y="462"/>
			<point x="250.675" y="493"/>
			<point x="209.675" y="493" type="curve" smooth="yes"/>
			<point x="128.675" y="493"/>
			<point x="55.675" y="365"/>
			<point x="35.675" y="266" type="curve" smooth="yes"/>
			<point x="20.675" y="191"/>
			<point x="50.675" y="127"/>
			<point x="142.675" y="127" type="curve" smooth="yes"/>
			<point x="268.675" y="127"/>
			<point x="380.675" y="212"/>
		</contour>
		<contour>
			<point x="603.675" y="390" type="curve" smooth="yes"/>
			<point x="614.675" y="445"/>
			<point x="580.675" y="488"/>
			<point x="538.675" y="488" type="curve" smooth="yes"/>
			<point x="499.675" y="488"/>
			<point x="455.675" y="464"/>
			<point x="438.675" y="414" type="curve" smooth="yes"/>
			<point x="425.675" y="381"/>
			<point x="391.675" y="292"/>
			<point x="382.675" y="243" type="curve" smooth="yes"/>
			<point x="369.675" y="179"/>
			<point x="365.675" y="100"/>
			<point x="372.675" y="63" type="curve" smooth="yes"/>
			<point x="380.675" y="30"/>
			<point x="397.675" y="3"/>
			<point x="441.675" y="3" type="curve" smooth="yes"/>
			<point x="491.675" y="3"/>
			<point x="538.675" y="42"/>
			<point x="546.675" y="80" type="curve" smooth="yes"/>
			<point x="547.675" y="86"/>
			<point x="548.675" y="93"/>
			<point x="547.675" y="101" type="curve" smooth="yes"/>
			<point x="546.675" y="135"/>
			<point x="541.675" y="179"/>
			<point x="554.675" y="243" type="curve" smooth="yes"/>
			<point x="562.675" y="285"/>
			<point x="597.675" y="358"/>
		</contour>
	</outline>
	<anchor name="top" x="394.675" y="515"/>
</glyph>
<glyph name="shacyr" format="2">
	<unicode hex="0448"/>
	<advance width="1036"/>
	<outline>
		<contour>
			<point x="614.989" y="352" type="curve" smooth="yes"/>
			<point x="624.989" y="399"/>
			<point x="584.989" y="431"/>
			<point x="541.989" y="431" type="curve" smooth="yes"/>
			<point x="491.989" y="431"/>
			<point x="471.989" y="403"/>
			<point x="455.989" y="380" type="curve" smooth="yes"/>
			<point x="442.989" y="361"/>
			<point x="426.989" y="322"/>
			<point x="416.989" y="271" type="curve" smooth="yes"/>
			<point x="409.989" y="234"/>
			<point x="406.989" y="194"/>
			<point x="412.989" y="156" type="curve" smooth="yes"/>
			<point x="416.989" y="118"/>
			<point x="447.989" y="93"/>
			<point x="485.989" y="93" type="curve" smooth="yes"/>
			<point x="527.989" y="93"/>
			<point x="569.989" y="131"/>
			<point x="577.989" y="171" type="curve" smooth="yes"/>
			<point x="582.989" y="197"/>
			<point x="576.989" y="227"/>
			<point x="583.989" y="262" type="curve" smooth="yes"/>
			<point x="591.989" y="299"/>
			<point x="610.989" y="330"/>
		</contour>
		<contour>
			<point x="281.989" y="414" type="curve" smooth="yes"/>
			<point x="292.989" y="470"/>
			<point x="251.989" y="497"/>
			<point x="203.989" y="497" type="curve" smooth="yes"/>
			<point x="156.989" y="497"/>
			<point x="139.989" y="472"/>
			<point x="117.989" y="427" type="curve" smooth="yes"/>
			<point x="88.989" y="366"/>
			<point x="62.989" y="306"/>
			<point x="50.989" y="244" type="curve" smooth="yes"/>
			<point x="26.989" y="123"/>
			<point x="57.989" y="10"/>
			<point x="251.989" y="10" type="curve" smooth="yes"/>
			<point x="373.989" y="10"/>
			<point x="716.989" y="28"/>
			<point x="803.989" y="46" type="curve" smooth="yes"/>
			<point x="913.989" y="69"/>
			<point x="967.989" y="121"/>
			<point x="986.989" y="213" type="curve" smooth="yes"/>
			<point x="998.989" y="276"/>
			<point x="962.989" y="436"/>
			<point x="945.989" y="479" type="curve" smooth="yes"/>
			<point x="934.989" y="506"/>
			<point x="909.989" y="524"/>
			<point x="878.989" y="524" type="curve" smooth="yes"/>
			<point x="826.989" y="524"/>
			<point x="780.989" y="491"/>
			<point x="771.989" y="446" type="curve" smooth="yes"/>
			<point x="763.989" y="407"/>
			<point x="818.989" y="285"/>
			<point x="806.989" y="227" type="curve" smooth="yes"/>
			<point x="804.989" y="213"/>
			<point x="796.989" y="209"/>
			<point x="777.989" y="205" type="curve" smooth="yes"/>
			<point x="707.989" y="186"/>
			<point x="408.989" y="170"/>
			<point x="303.989" y="170" type="curve" smooth="yes"/>
			<point x="229.989" y="170"/>
			<point x="218.989" y="223"/>
			<point x="228.989" y="275" type="curve" smooth="yes"/>
			<point x="240.989" y="337"/>
			<point x="277.989" y="394"/>
		</contour>
	</outline>
	<guideline x="39.406" y="263" angle="90" identifier="rQENFQOEUJ"/>
	<guideline x="42.406" y="278" angle="90" identifier="rKZszPBnKc"/>
</glyph>
<glyph name="hardcyr" format="2">
	<unicode hex="044A"/>
	<advance width="698"/>
	<outline>
		<contour>
			<point x="393.282" y="363" type="curve" smooth="yes"/>
			<point x="343.282" y="363"/>
			<point x="295.282" y="338"/>
			<point x="285.282" y="289" type="curve" smooth="yes"/>
			<point x="276.282" y="247"/>
			<point x="298.282" y="230"/>
			<point x="347.282" y="222" type="curve" smooth="yes"/>
			<point x="412.282" y="216"/>
			<point x="486.282" y="213"/>
			<point x="481.282" y="190" type="curve" smooth="yes"/>
			<point x="476.282" y="167"/>
			<point x="413.282" y="142"/>
			<point x="357.282" y="142" type="curve" smooth="yes"/>
			<point x="332.282" y="142"/>
			<point x="310.282" y="149"/>
			<point x="316.282" y="178" type="curve" smooth="yes"/>
			<point x="330.282" y="250"/>
			<point x="397.282" y="359"/>
			<point x="407.282" y="412" type="curve" smooth="yes"/>
			<point x="418.282" y="463"/>
			<point x="406.282" y="533"/>
			<point x="277.282" y="533" type="curve" smooth="yes"/>
			<point x="138.282" y="533"/>
			<point x="51.282" y="487"/>
			<point x="36.282" y="412" type="curve" smooth="yes"/>
			<point x="28.282" y="368"/>
			<point x="58.282" y="351"/>
			<point x="110.282" y="351" type="curve" smooth="yes"/>
			<point x="136.282" y="351"/>
			<point x="194.282" y="363"/>
			<point x="245.282" y="368" type="curve"/>
			<point x="227.282" y="375" type="line"/>
			<point x="221.282" y="345"/>
			<point x="159.282" y="256"/>
			<point x="144.282" y="178" type="curve" smooth="yes"/>
			<point x="122.282" y="70"/>
			<point x="163.282" y="-12"/>
			<point x="320.282" y="-12" type="curve" smooth="yes"/>
			<point x="499.282" y="-12"/>
			<point x="633.282" y="110"/>
			<point x="649.282" y="191" type="curve" smooth="yes"/>
			<point x="665.282" y="271"/>
			<point x="636.282" y="303"/>
			<point x="595.282" y="326" type="curve" smooth="yes"/>
			<point x="547.282" y="345"/>
			<point x="465.282" y="363"/>
		</contour>
	</outline>
	<guideline x="129.406" y="150" angle="90" identifier="NQt60oWmSh"/>
	<guideline x="39.406" y="263" angle="90" identifier="55wn4vuwvT"/>
	<guideline x="42.406" y="278" angle="90" identifier="FH9W4J5yk1"/>
	<guideline x="39.406" y="263" angle="90" identifier="AZWDyj2lEk"/>
	<guideline x="42.406" y="278" angle="90" identifier="2n062Scq9I"/>
	<guideline x="39.406" y="263" angle="90" identifier="vV6AR5TnkJ"/>
	<guideline x="42.406" y="278" angle="90" identifier="5zsGWQIfEH"/>
	<guideline x="39.406" y="263" angle="90" identifier="eg5AhK5R7P"/>
	<guideline x="42.406" y="278" angle="90" identifier="AEjwDqtCct"/>
</glyph>
<glyph name="ylongcyr" format="2">
	<unicode hex="044B"/>
	<advance width="839"/>
	<outline>
		<contour>
			<point x="192.273" y="4" type="curve" smooth="yes"/>
			<point x="70.273" y="4"/>
			<point x="13.273" y="78"/>
			<point x="34.273" y="186" type="curve" smooth="yes"/>
			<point x="56.273" y="296"/>
			<point x="80.273" y="364"/>
			<point x="91.273" y="394" type="curve" smooth="yes"/>
			<point x="108.273" y="440"/>
			<point x="156.273" y="495"/>
			<point x="205.273" y="495" type="curve" smooth="yes"/>
			<point x="241.273" y="495"/>
			<point x="274.273" y="479"/>
			<point x="266.273" y="439" type="curve" smooth="yes"/>
			<point x="260.273" y="411"/>
			<point x="247.273" y="359"/>
			<point x="233.273" y="312" type="curve" smooth="yes"/>
			<point x="223.273" y="277"/>
			<point x="214.273" y="245"/>
			<point x="204.273" y="196" type="curve" smooth="yes"/>
			<point x="199.273" y="172"/>
			<point x="212.273" y="151"/>
			<point x="242.273" y="151" type="curve" smooth="yes"/>
			<point x="265.273" y="151"/>
			<point x="307.273" y="168"/>
			<point x="312.273" y="193" type="curve" smooth="yes"/>
			<point x="317.273" y="218"/>
			<point x="303.273" y="232"/>
			<point x="279.273" y="240" type="curve" smooth="yes"/>
			<point x="255.273" y="248"/>
			<point x="199.273" y="260"/>
			<point x="180.273" y="264" type="curve"/>
			<point x="207.273" y="384" type="line"/>
			<point x="280.273" y="407"/>
			<point x="378.273" y="433"/>
			<point x="468.273" y="464" type="curve" smooth="yes"/>
			<point x="570.273" y="499"/>
			<point x="649.273" y="550"/>
			<point x="698.273" y="550" type="curve" smooth="yes"/>
			<point x="782.273" y="550"/>
			<point x="819.273" y="505"/>
			<point x="803.273" y="427" type="curve" smooth="yes"/>
			<point x="797.273" y="393"/>
			<point x="786.273" y="348"/>
			<point x="775.273" y="294" type="curve" smooth="yes"/>
			<point x="767.273" y="257"/>
			<point x="760.273" y="206"/>
			<point x="762.273" y="162" type="curve" smooth="yes"/>
			<point x="763.273" y="146"/>
			<point x="764.273" y="136"/>
			<point x="762.273" y="125" type="curve" smooth="yes"/>
			<point x="753.273" y="79"/>
			<point x="703.273" y="33"/>
			<point x="645.273" y="33" type="curve" smooth="yes"/>
			<point x="596.273" y="33"/>
			<point x="577.273" y="61"/>
			<point x="576.273" y="95" type="curve" smooth="yes"/>
			<point x="574.273" y="146"/>
			<point x="584.273" y="208"/>
			<point x="593.273" y="254" type="curve" smooth="yes"/>
			<point x="607.273" y="325"/>
			<point x="626.273" y="398"/>
			<point x="631.273" y="427" type="curve"/>
			<point x="663.273" y="397" type="line"/>
			<point x="616.273" y="372"/>
			<point x="368.273" y="291"/>
			<point x="218.273" y="269" type="curve"/>
			<point x="243.273" y="384" type="line"/>
			<point x="252.273" y="385"/>
			<point x="277.273" y="388"/>
			<point x="306.273" y="388" type="curve" smooth="yes"/>
			<point x="354.273" y="388"/>
			<point x="510.273" y="335"/>
			<point x="481.273" y="190" type="curve" smooth="yes"/>
			<point x="458.273" y="75"/>
			<point x="305.273" y="4"/>
		</contour>
	</outline>
	<anchor name="top" x="456.273" y="515"/>
</glyph>
<glyph name="ereversedcyr" format="2">
	<unicode hex="044D"/>
	<advance width="580"/>
	<outline>
		<contour>
			<point x="353.978" y="520" type="curve" smooth="yes"/>
			<point x="221.978" y="520"/>
			<point x="95.978" y="443"/>
			<point x="79.978" y="365" type="curve" smooth="yes"/>
			<point x="72.978" y="328"/>
			<point x="93.978" y="303"/>
			<point x="126.978" y="303" type="curve" smooth="yes"/>
			<point x="164.978" y="303"/>
			<point x="184.978" y="323"/>
			<point x="230.978" y="351" type="curve" smooth="yes"/>
			<point x="255.978" y="366"/>
			<point x="282.978" y="379"/>
			<point x="318.978" y="379" type="curve" smooth="yes"/>
			<point x="366.978" y="379"/>
			<point x="407.978" y="353"/>
			<point x="395.978" y="293" type="curve" smooth="yes"/>
			<point x="373.978" y="185"/>
			<point x="294.978" y="125"/>
			<point x="192.978" y="125" type="curve" smooth="yes"/>
			<point x="127.978" y="125"/>
			<point x="127.978" y="179"/>
			<point x="85.978" y="179" type="curve" smooth="yes"/>
			<point x="52.978" y="179"/>
			<point x="8.978" y="148"/>
			<point x="-5.022" y="82" type="curve" smooth="yes"/>
			<point x="-19.022" y="10"/>
			<point x="41.978" y="-38"/>
			<point x="155.978" y="-38" type="curve" smooth="yes"/>
			<point x="299.978" y="-38"/>
			<point x="510.978" y="79"/>
			<point x="553.978" y="293" type="curve" smooth="yes"/>
			<point x="584.978" y="451"/>
			<point x="480.978" y="520"/>
		</contour>
		<contour>
			<point x="232.978" y="304" type="curve" smooth="yes"/>
			<point x="205.978" y="298"/>
			<point x="186.978" y="285"/>
			<point x="181.978" y="260" type="curve" smooth="yes"/>
			<point x="172.978" y="213"/>
			<point x="194.978" y="185"/>
			<point x="228.978" y="185" type="curve" smooth="yes"/>
			<point x="279.978" y="185"/>
			<point x="326.978" y="196"/>
			<point x="366.978" y="196" type="curve" smooth="yes"/>
			<point x="398.978" y="196"/>
			<point x="427.978" y="190"/>
			<point x="460.978" y="190" type="curve"/>
			<point x="489.978" y="315" type="line"/>
			<point x="456.978" y="318"/>
			<point x="423.978" y="320"/>
			<point x="390.978" y="320" type="curve" smooth="yes"/>
			<point x="338.978" y="320"/>
			<point x="287.978" y="315"/>
		</contour>
	</outline>
	<anchor name="top" x="334.979" y="515"/>
	<guideline x="39.406" y="263" angle="90" identifier="n4jm0tBg3Y"/>
	<guideline x="42.406" y="278" angle="90" identifier="a7QVIHyV5D"/>
	<guideline x="39.406" y="263" angle="90" identifier="JNJX8kAXkD"/>
	<guideline x="42.406" y="278" angle="90" identifier="GPS9Qb41By"/>
</glyph>
<glyph name="djecyr" format="2">
	<unicode hex="0452"/>
	<advance width="698"/>
	<outline>
		<contour>
			<point x="207.388" y="569" type="curve" smooth="yes"/>
			<point x="260.388" y="569"/>
			<point x="347.388" y="579"/>
			<point x="581.388" y="579" type="curve" smooth="yes"/>
			<point x="612.388" y="579"/>
			<point x="634.388" y="600"/>
			<point x="641.388" y="633" type="curve" smooth="yes"/>
			<point x="649.388" y="677"/>
			<point x="616.388" y="710"/>
			<point x="498.388" y="710" type="curve" smooth="yes"/>
			<point x="403.388" y="710"/>
			<point x="292.388" y="702"/>
			<point x="158.388" y="688" type="curve" smooth="yes"/>
			<point x="122.388" y="684"/>
			<point x="102.388" y="669"/>
			<point x="97.388" y="645" type="curve" smooth="yes"/>
			<point x="88.388" y="601"/>
			<point x="117.388" y="569"/>
		</contour>
		<contour>
			<point x="451.388" y="333" type="curve"/>
			<point x="476.388" y="309"/>
			<point x="486.388" y="261"/>
			<point x="475.388" y="206" type="curve" smooth="yes"/>
			<point x="449.388" y="73"/>
			<point x="367.388" y="9"/>
			<point x="315.388" y="-21" type="curve" smooth="yes"/>
			<point x="288.388" y="-37"/>
			<point x="255.388" y="-52"/>
			<point x="247.388" y="-88" type="curve" smooth="yes"/>
			<point x="241.388" y="-120"/>
			<point x="258.388" y="-162"/>
			<point x="314.388" y="-162" type="curve" smooth="yes"/>
			<point x="434.388" y="-162"/>
			<point x="615.388" y="0"/>
			<point x="662.388" y="234" type="curve" smooth="yes"/>
			<point x="686.388" y="357"/>
			<point x="665.388" y="533"/>
			<point x="521.388" y="533" type="curve" smooth="yes"/>
			<point x="428.388" y="533"/>
			<point x="327.388" y="465"/>
			<point x="214.388" y="293" type="curve"/>
			<point x="230.388" y="224" type="line"/>
			<point x="269.388" y="419"/>
			<point x="311.388" y="506"/>
			<point x="325.388" y="577" type="curve" smooth="yes"/>
			<point x="354.388" y="720"/>
			<point x="298.388" y="760"/>
			<point x="246.388" y="760" type="curve" smooth="yes"/>
			<point x="192.388" y="760"/>
			<point x="167.388" y="731"/>
			<point x="161.388" y="701" type="curve" smooth="yes"/>
			<point x="153.388" y="660"/>
			<point x="162.388" y="632"/>
			<point x="147.388" y="555" type="curve" smooth="yes"/>
			<point x="126.388" y="451"/>
			<point x="78.388" y="324"/>
			<point x="40.388" y="135" type="curve" smooth="yes"/>
			<point x="24.388" y="53"/>
			<point x="52.388" y="-6"/>
			<point x="120.388" y="-6" type="curve" smooth="yes"/>
			<point x="154.388" y="-6"/>
			<point x="176.388" y="7"/>
			<point x="201.388" y="46" type="curve" smooth="yes"/>
			<point x="317.388" y="230"/>
			<point x="409.388" y="319"/>
		</contour>
	</outline>
</glyph>
<glyph name="ljecyr" format="2">
	<unicode hex="0459"/>
	<advance width="868"/>
	<outline>
		<contour>
			<point x="513.301" y="245" type="curve" smooth="yes"/>
			<point x="506.301" y="297"/>
			<point x="490.301" y="401"/>
			<point x="465.301" y="465" type="curve" smooth="yes"/>
			<point x="448.301" y="504"/>
			<point x="410.301" y="523"/>
			<point x="370.301" y="523" type="curve" smooth="yes"/>
			<point x="337.301" y="523"/>
			<point x="301.301" y="512"/>
			<point x="268.301" y="487" type="curve" smooth="yes"/>
			<point x="212.301" y="443"/>
			<point x="153.301" y="368"/>
			<point x="108.301" y="307" type="curve" smooth="yes"/>
			<point x="29.301" y="201"/>
			<point x="-25.699" y="108"/>
			<point x="-32.699" y="73" type="curve" smooth="yes"/>
			<point x="-42.699" y="25"/>
			<point x="-19.699" y="-21"/>
			<point x="28.301" y="-21" type="curve" smooth="yes"/>
			<point x="66.301" y="-21"/>
			<point x="94.301" y="-3"/>
			<point x="113.301" y="26" type="curve" smooth="yes"/>
			<point x="130.301" y="50"/>
			<point x="180.301" y="140"/>
			<point x="232.301" y="213" type="curve" smooth="yes"/>
			<point x="271.301" y="271"/>
			<point x="314.301" y="325"/>
			<point x="359.301" y="359" type="curve"/>
			<point x="316.301" y="362" type="line"/>
			<point x="319.301" y="323"/>
			<point x="323.301" y="250"/>
			<point x="330.301" y="186" type="curve" smooth="yes"/>
			<point x="339.301" y="107"/>
			<point x="352.301" y="11"/>
			<point x="507.301" y="11" type="curve" smooth="yes"/>
			<point x="645.301" y="11"/>
			<point x="815.301" y="140"/>
			<point x="841.301" y="269" type="curve" smooth="yes"/>
			<point x="863.301" y="379"/>
			<point x="818.301" y="434"/>
			<point x="703.301" y="434" type="curve" smooth="yes"/>
			<point x="637.301" y="434"/>
			<point x="521.301" y="411"/>
			<point x="489.301" y="402" type="curve" smooth="yes"/>
			<point x="444.301" y="386"/>
			<point x="414.301" y="376"/>
			<point x="404.301" y="325" type="curve" smooth="yes"/>
			<point x="396.301" y="286"/>
			<point x="440.301" y="272"/>
			<point x="487.301" y="272" type="curve" smooth="yes"/>
			<point x="509.301" y="272"/>
			<point x="589.301" y="282"/>
			<point x="636.301" y="282" type="curve" smooth="yes"/>
			<point x="657.301" y="282"/>
			<point x="670.301" y="275"/>
			<point x="666.301" y="254" type="curve" smooth="yes"/>
			<point x="656.301" y="207"/>
			<point x="601.301" y="173"/>
			<point x="563.301" y="173" type="curve" smooth="yes"/>
			<point x="530.301" y="173"/>
			<point x="520.301" y="196"/>
		</contour>
	</outline>
	<guideline x="129.406" y="150" angle="90" identifier="kzZDnq6J2Z"/>
</glyph>
<glyph name="dzhecyr" format="2">
	<unicode hex="045F"/>
	<advance width="655"/>
	<outline>
		<contour>
			<point x="510.063" y="224" type="line"/>
			<point x="438.063" y="202"/>
			<point x="339.063" y="165"/>
			<point x="267.063" y="165" type="curve" smooth="yes"/>
			<point x="228.063" y="165"/>
			<point x="221.063" y="184"/>
			<point x="226.063" y="211" type="curve" smooth="yes"/>
			<point x="243.063" y="293"/>
			<point x="293.063" y="418"/>
			<point x="296.063" y="435" type="curve" smooth="yes"/>
			<point x="308.063" y="495"/>
			<point x="258.063" y="527"/>
			<point x="208.063" y="527" type="curve" smooth="yes"/>
			<point x="168.063" y="527"/>
			<point x="150.063" y="505"/>
			<point x="135.063" y="468" type="curve" smooth="yes"/>
			<point x="108.063" y="407"/>
			<point x="60.063" y="265"/>
			<point x="48.063" y="205" type="curve" smooth="yes"/>
			<point x="24.063" y="85"/>
			<point x="58.063" y="13"/>
			<point x="199.063" y="13" type="curve" smooth="yes"/>
			<point x="306.063" y="13"/>
			<point x="383.063" y="29"/>
			<point x="421.063" y="40" type="curve" smooth="yes"/>
			<point x="545.063" y="75"/>
			<point x="580.063" y="182"/>
			<point x="600.063" y="281" type="curve" smooth="yes"/>
			<point x="611.063" y="334"/>
			<point x="615.063" y="407"/>
			<point x="611.063" y="454" type="curve" smooth="yes"/>
			<point x="606.063" y="497"/>
			<point x="581.063" y="529"/>
			<point x="523.063" y="529" type="curve" smooth="yes"/>
			<point x="482.063" y="529"/>
			<point x="448.063" y="502"/>
			<point x="439.063" y="453" type="curve" smooth="yes"/>
			<point x="432.063" y="418"/>
			<point x="444.063" y="367"/>
			<point x="423.063" y="262" type="curve" smooth="yes"/>
			<point x="417.063" y="228"/>
			<point x="408.063" y="195"/>
			<point x="397.063" y="169" type="curve"/>
		</contour>
		<contour>
			<point x="186.063" y="-3" type="curve" smooth="yes"/>
			<point x="165.063" y="-110"/>
			<point x="170.063" y="-182"/>
			<point x="261.063" y="-182" type="curve" smooth="yes"/>
			<point x="304.063" y="-182"/>
			<point x="341.063" y="-143"/>
			<point x="349.063" y="-103" type="curve" smooth="yes"/>
			<point x="359.063" y="-54"/>
			<point x="347.063" y="5"/>
			<point x="358.063" y="62" type="curve" smooth="yes"/>
			<point x="364.063" y="89"/>
			<point x="338.063" y="102"/>
			<point x="308.063" y="102" type="curve" smooth="yes"/>
			<point x="257.063" y="102"/>
			<point x="200.063" y="63"/>
		</contour>
	</outline>
	<guideline x="39.406" y="263" angle="90" identifier="rQENFQOEUJ"/>
	<guideline x="42.406" y="278" angle="90" identifier="rKZszPBnKc"/>
</glyph>
<glyph name="Yatcyr" format="2">
	<unicode hex="0462"/>
	<advance width="735"/>
	<outline>
		<contour>
			<point x="713.357" y="277" type="curve" smooth="yes"/>
			<point x="734.357" y="382"/>
			<point x="673.357" y="446"/>
			<point x="531.357" y="446" type="curve" smooth="yes"/>
			<point x="435.357" y="446"/>
			<point x="337.357" y="421"/>
			<point x="241.357" y="385" type="curve"/>
			<point x="270.357" y="269" type="line"/>
			<point x="316.357" y="282"/>
			<point x="429.357" y="295"/>
			<point x="487.357" y="295" type="curve" smooth="yes"/>
			<point x="524.357" y="295"/>
			<point x="538.357" y="286"/>
			<point x="534.357" y="267" type="curve" smooth="yes"/>
			<point x="524.357" y="213"/>
			<point x="442.357" y="167"/>
			<point x="378.357" y="167" type="curve" smooth="yes"/>
			<point x="293.357" y="167"/>
			<point x="300.357" y="232"/>
			<point x="313.357" y="296" type="curve" smooth="yes"/>
			<point x="332.357" y="390"/>
			<point x="391.357" y="567"/>
			<point x="406.357" y="641" type="curve" smooth="yes"/>
			<point x="421.357" y="717"/>
			<point x="404.357" y="750"/>
			<point x="352.357" y="750" type="curve" smooth="yes"/>
			<point x="306.357" y="750"/>
			<point x="242.357" y="704"/>
			<point x="234.357" y="667" type="curve" smooth="yes"/>
			<point x="227.357" y="632"/>
			<point x="228.357" y="583"/>
			<point x="223.357" y="562" type="curve" smooth="yes"/>
			<point x="211.357" y="502"/>
			<point x="153.357" y="361"/>
			<point x="138.357" y="283" type="curve" smooth="yes"/>
			<point x="108.357" y="137"/>
			<point x="145.357" y="10"/>
			<point x="337.357" y="10" type="curve" smooth="yes"/>
			<point x="492.357" y="10"/>
			<point x="688.357" y="150"/>
		</contour>
		<contour>
			<point x="137.357" y="468" type="curve" smooth="yes"/>
			<point x="187.357" y="468"/>
			<point x="452.357" y="504"/>
			<point x="589.357" y="504" type="curve" smooth="yes"/>
			<point x="621.357" y="504"/>
			<point x="646.357" y="534"/>
			<point x="652.357" y="564" type="curve" smooth="yes"/>
			<point x="659.357" y="598"/>
			<point x="635.357" y="657"/>
			<point x="525.357" y="657" type="curve" smooth="yes"/>
			<point x="461.357" y="657"/>
			<point x="185.357" y="626"/>
			<point x="110.357" y="613" type="curve" smooth="yes"/>
			<point x="81.357" y="608"/>
			<point x="66.357" y="588"/>
			<point x="61.357" y="566" type="curve" smooth="yes"/>
			<point x="52.357" y="520"/>
			<point x="67.357" y="468"/>
		</contour>
	</outline>
</glyph>
<glyph name="yusbigcyr" format="2">
	<unicode hex="046B"/>
	<advance width="707"/>
	<outline>
		<contour>
			<point x="197.724" y="170" type="curve"/>
			<point x="355.724" y="241" type="line"/>
			<point x="284.724" y="350"/>
			<point x="284.724" y="380"/>
			<point x="278.724" y="411" type="curve"/>
			<point x="260.724" y="394" type="line"/>
			<point x="294.724" y="394"/>
			<point x="449.724" y="362"/>
			<point x="513.724" y="362" type="curve"/>
			<point x="499.724" y="386" type="line"/>
			<point x="476.724" y="354"/>
			<point x="442.724" y="313"/>
			<point x="374.724" y="262" type="curve"/>
			<point x="441.724" y="152" type="line"/>
			<point x="587.724" y="286"/>
			<point x="651.724" y="337"/>
			<point x="667.724" y="414" type="curve" smooth="yes"/>
			<point x="677.724" y="463"/>
			<point x="646.724" y="513"/>
			<point x="567.724" y="513" type="curve" smooth="yes"/>
			<point x="438.724" y="513"/>
			<point x="374.724" y="544"/>
			<point x="278.724" y="544" type="curve" smooth="yes"/>
			<point x="189.724" y="544"/>
			<point x="135.724" y="484"/>
			<point x="127.724" y="447" type="curve" smooth="yes"/>
			<point x="106.724" y="340"/>
			<point x="142.724" y="259"/>
		</contour>
		<contour>
			<point x="245.724" y="102" type="curve" smooth="yes"/>
			<point x="235.724" y="48"/>
			<point x="253.724" y="9"/>
			<point x="303.724" y="9" type="curve" smooth="yes"/>
			<point x="342.724" y="9"/>
			<point x="401.724" y="22"/>
			<point x="415.724" y="89" type="curve" smooth="yes"/>
			<point x="431.724" y="171"/>
			<point x="441.724" y="259"/>
			<point x="442.724" y="268" type="curve"/>
			<point x="445.724" y="293"/>
			<point x="407.724" y="306"/>
			<point x="356.724" y="306" type="curve" smooth="yes"/>
			<point x="319.724" y="306"/>
			<point x="276.724" y="284"/>
			<point x="273.724" y="250" type="curve"/>
			<point x="272.724" y="246"/>
			<point x="268.724" y="207"/>
			<point x="259.724" y="161" type="curve" smooth="yes"/>
			<point x="255.724" y="141"/>
			<point x="249.724" y="122"/>
		</contour>
		<contour>
			<point x="361.724" y="284" type="curve" smooth="yes"/>
			<point x="124.724" y="284"/>
			<point x="-18.276" y="122"/>
			<point x="-30.276" y="58" type="curve" smooth="yes"/>
			<point x="-40.276" y="12"/>
			<point x="-5.276" y="-27"/>
			<point x="35.724" y="-27" type="curve" smooth="yes"/>
			<point x="62.724" y="-27"/>
			<point x="91.724" y="-14"/>
			<point x="112.724" y="9" type="curve" smooth="yes"/>
			<point x="155.724" y="62"/>
			<point x="243.724" y="157"/>
			<point x="365.724" y="157" type="curve" smooth="yes"/>
			<point x="436.724" y="157"/>
			<point x="471.724" y="110"/>
			<point x="524.724" y="49" type="curve" smooth="yes"/>
			<point x="544.724" y="22"/>
			<point x="559.724" y="-3"/>
			<point x="593.724" y="-3" type="curve" smooth="yes"/>
			<point x="637.724" y="-3"/>
			<point x="663.724" y="22"/>
			<point x="672.724" y="67" type="curve" smooth="yes"/>
			<point x="684.724" y="127"/>
			<point x="616.724" y="284"/>
		</contour>
	</outline>
</glyph>
<glyph name="izhitsacyr" format="2">
	<unicode hex="0475"/>
	<advance width="632"/>
	<outline>
		<contour>
			<point x="532.55" y="339" type="curve" smooth="yes"/>
			<point x="544.55" y="352"/>
			<point x="554.55" y="356"/>
			<point x="564.55" y="356" type="curve" smooth="yes"/>
			<point x="581.55" y="356"/>
			<point x="597.55" y="343"/>
			<point x="618.55" y="343" type="curve" smooth="yes"/>
			<point x="649.55" y="343"/>
			<point x="675.55" y="390"/>
			<point x="683.55" y="431" type="curve" smooth="yes"/>
			<point x="693.55" y="481"/>
			<point x="672.55" y="551"/>
			<point x="600.55" y="551" type="curve" smooth="yes"/>
			<point x="551.55" y="551"/>
			<point x="504.55" y="525"/>
			<point x="460.55" y="476" type="curve" smooth="yes"/>
			<point x="406.55" y="416"/>
			<point x="334.55" y="326"/>
			<point x="255.55" y="200" type="curve"/>
			<point x="299.55" y="182" type="line"/>
			<point x="286.55" y="248"/>
			<point x="274.55" y="319"/>
			<point x="262.55" y="384" type="curve" smooth="yes"/>
			<point x="248.55" y="459"/>
			<point x="211.55" y="524"/>
			<point x="120.55" y="524" type="curve" smooth="yes"/>
			<point x="85.55" y="524"/>
			<point x="62.55" y="502"/>
			<point x="57.55" y="474" type="curve" smooth="yes"/>
			<point x="45.55" y="413"/>
			<point x="78.55" y="355"/>
			<point x="101.55" y="260" type="curve" smooth="yes"/>
			<point x="115.55" y="201"/>
			<point x="130.55" y="115"/>
			<point x="148.55" y="73" type="curve" smooth="yes"/>
			<point x="170.55" y="14"/>
			<point x="196.55" y="-10"/>
			<point x="250.55" y="-10" type="curve" smooth="yes"/>
			<point x="274.55" y="-10"/>
			<point x="291.55" y="13"/>
			<point x="330.55" y="70" type="curve" smooth="yes"/>
			<point x="395.55" y="164"/>
			<point x="471.55" y="275"/>
		</contour>
	</outline>
</glyph>
<glyph name="Gestrokecyr" format="2">
	<unicode hex="0492"/>
	<advance width="590"/>
	<outline>
		<contour>
			<point x="113.357" y="267" type="curve" smooth="yes"/>
			<point x="171.357" y="267"/>
			<point x="290.357" y="303"/>
			<point x="449.357" y="303" type="curve" smooth="yes"/>
			<point x="481.357" y="303"/>
			<point x="505.357" y="330"/>
			<point x="511.357" y="360" type="curve" smooth="yes"/>
			<point x="518.357" y="394"/>
			<point x="489.357" y="450"/>
			<point x="379.357" y="450" type="curve" smooth="yes"/>
			<point x="303.357" y="450"/>
			<point x="173.357" y="443"/>
			<point x="80.357" y="406" type="curve" smooth="yes"/>
			<point x="52.357" y="395"/>
			<point x="42.357" y="384"/>
			<point x="37.357" y="362" type="curve" smooth="yes"/>
			<point x="28.357" y="316"/>
			<point x="43.357" y="267"/>
		</contour>
		<component base="Gecyr" xOffset="-3.049"/>
	</outline>
	<anchor name="top" x="400.358" y="700"/>
</glyph>
<glyph name="gestrokecyr" format="2">
	<unicode hex="0493"/>
	<advance width="531"/>
	<outline>
		<contour>
			<point x="80.599" y="152" type="curve" smooth="yes"/>
			<point x="119.599" y="152"/>
			<point x="235.599" y="166"/>
			<point x="301.599" y="166" type="curve" smooth="yes"/>
			<point x="351.599" y="166"/>
			<point x="383.599" y="181"/>
			<point x="391.599" y="219" type="curve" smooth="yes"/>
			<point x="399.599" y="258"/>
			<point x="373.599" y="303"/>
			<point x="296.599" y="303" type="curve" smooth="yes"/>
			<point x="252.599" y="303"/>
			<point x="124.599" y="288"/>
			<point x="73.599" y="283" type="curve" smooth="yes"/>
			<point x="15.599" y="279"/>
			<point x="3.599" y="262"/>
			<point x="-2.401" y="229" type="curve" smooth="yes"/>
			<point x="-12.401" y="181"/>
			<point x="25.599" y="152"/>
		</contour>
		<component base="gecyr" xOffset="12.194"/>
	</outline>
	<anchor name="top" x="364.6" y="515"/>
</glyph>
<glyph name="Zhetailcyr" format="2">
	<unicode hex="0496"/>
	<advance width="1060"/>
	<outline>
		<contour>
			<point x="889.682" y="135" type="curve" smooth="yes"/>
			<point x="811.682" y="135"/>
			<point x="713.682" y="262"/>
			<point x="722.682" y="305" type="curve" smooth="yes"/>
			<point x="729.682" y="339"/>
			<point x="854.682" y="430"/>
			<point x="927.682" y="480" type="curve" smooth="yes"/>
			<point x="963.682" y="505"/>
			<point x="987.682" y="533"/>
			<point x="992.682" y="560" type="curve" smooth="yes"/>
			<point x="1001.682" y="603"/>
			<point x="962.682" y="639"/>
			<point x="917.682" y="639" type="curve" smooth="yes"/>
			<point x="851.682" y="639"/>
			<point x="566.682" y="378"/>
			<point x="551.682" y="306" type="curve" smooth="yes"/>
			<point x="528.682" y="191"/>
			<point x="713.682" y="-28"/>
			<point x="832.682" y="-28" type="curve" smooth="yes"/>
			<point x="882.682" y="-28"/>
			<point x="894.682" y="-16"/>
			<point x="905.682" y="2" type="curve"/>
			<point x="844.682" y="11" type="line"/>
			<point x="820.682" y="-40"/>
			<point x="804.682" y="-95"/>
			<point x="798.682" y="-129" type="curve" smooth="yes"/>
			<point x="792.682" y="-166"/>
			<point x="808.682" y="-207"/>
			<point x="863.682" y="-207" type="curve" smooth="yes"/>
			<point x="918.682" y="-207"/>
			<point x="946.682" y="-168"/>
			<point x="964.682" y="-116" type="curve" smooth="yes"/>
			<point x="994.682" y="-22"/>
			<point x="1029.682" y="59"/>
			<point x="1039.682" y="112" type="curve" smooth="yes"/>
			<point x="1051.682" y="171"/>
			<point x="1013.682" y="200"/>
			<point x="981.682" y="200" type="curve" smooth="yes"/>
			<point x="931.682" y="200"/>
			<point x="908.682" y="135"/>
		</contour>
		<contour>
			<point x="526.682" y="66" type="curve" smooth="yes"/>
			<point x="534.682" y="103"/>
			<point x="534.682" y="158"/>
			<point x="543.682" y="205" type="curve" smooth="yes"/>
			<point x="554.682" y="259"/>
			<point x="570.682" y="324"/>
			<point x="589.682" y="402" type="curve" smooth="yes"/>
			<point x="596.682" y="430"/>
			<point x="624.682" y="565"/>
			<point x="628.682" y="587" type="curve" smooth="yes"/>
			<point x="647.682" y="679"/>
			<point x="598.682" y="706"/>
			<point x="544.682" y="706" type="curve" smooth="yes"/>
			<point x="492.682" y="706"/>
			<point x="461.682" y="665"/>
			<point x="452.682" y="619" type="curve" smooth="yes"/>
			<point x="443.682" y="574"/>
			<point x="434.682" y="484"/>
			<point x="419.682" y="410" type="curve" smooth="yes"/>
			<point x="404.682" y="333"/>
			<point x="384.682" y="267"/>
			<point x="373.682" y="210" type="curve" smooth="yes"/>
			<point x="348.682" y="83"/>
			<point x="341.682" y="-15"/>
			<point x="414.682" y="-15" type="curve" smooth="yes"/>
			<point x="459.682" y="-15"/>
			<point x="517.682" y="21"/>
		</contour>
		<contour>
			<point x="437.682" y="367" type="curve" smooth="yes"/>
			<point x="452.682" y="442"/>
			<point x="281.682" y="675"/>
			<point x="174.682" y="675" type="curve" smooth="yes"/>
			<point x="125.682" y="675"/>
			<point x="85.682" y="637"/>
			<point x="78.682" y="598" type="curve" smooth="yes"/>
			<point x="72.682" y="569"/>
			<point x="88.682" y="544"/>
			<point x="126.682" y="519" type="curve" smooth="yes"/>
			<point x="179.682" y="480"/>
			<point x="277.682" y="389"/>
			<point x="271.682" y="361" type="curve" smooth="yes"/>
			<point x="268.682" y="343"/>
			<point x="137.682" y="252"/>
			<point x="50.682" y="194" type="curve"/>
			<point x="11.682" y="164"/>
			<point x="1.682" y="147"/>
			<point x="-2.318" y="124" type="curve" smooth="yes"/>
			<point x="-11.318" y="80"/>
			<point x="16.682" y="38"/>
			<point x="60.682" y="38" type="curve" smooth="yes"/>
			<point x="140.682" y="38"/>
			<point x="420.682" y="281"/>
		</contour>
	</outline>
	<guideline x="181.406" y="356" angle="90" identifier="JUwCnAo7xy"/>
	<guideline x="83.406" y="424" angle="90" identifier="pv43GWLurq"/>
</glyph>
<glyph name="Zetailcyr" format="2">
	<unicode hex="0498"/>
	<advance width="606"/>
	<outline>
		<contour>
			<point x="186.406" y="50" type="curve" smooth="yes"/>
			<point x="180.406" y="20"/>
			<point x="167.406" y="-41"/>
			<point x="157.406" y="-90" type="curve" smooth="yes"/>
			<point x="142.406" y="-165"/>
			<point x="165.406" y="-217"/>
			<point x="232.406" y="-217" type="curve" smooth="yes"/>
			<point x="275.406" y="-217"/>
			<point x="312.406" y="-178"/>
			<point x="320.406" y="-138" type="curve" smooth="yes"/>
			<point x="332.406" y="-78"/>
			<point x="312.406" y="-8"/>
			<point x="326.406" y="62" type="curve" smooth="yes"/>
			<point x="331.406" y="87"/>
			<point x="314.406" y="99"/>
			<point x="289.406" y="99" type="curve" smooth="yes"/>
			<point x="249.406" y="99"/>
			<point x="192.406" y="80"/>
		</contour>
		<component base="Zecyr"/>
	</outline>
	<anchor name="top" x="395.407" y="700"/>
</glyph>
<glyph name="katailcyr" format="2">
	<unicode hex="049B"/>
	<advance width="714"/>
	<outline>
		<contour>
			<point x="208.85" y="69" type="curve" smooth="yes"/>
			<point x="215.85" y="103"/>
			<point x="204.85" y="136"/>
			<point x="222.85" y="226" type="curve" smooth="yes"/>
			<point x="233.85" y="279"/>
			<point x="265.85" y="359"/>
			<point x="279.85" y="431" type="curve" smooth="yes"/>
			<point x="291.85" y="489"/>
			<point x="279.85" y="534"/>
			<point x="224.85" y="534" type="curve" smooth="yes"/>
			<point x="185.85" y="534"/>
			<point x="123.85" y="510"/>
			<point x="113.85" y="460" type="curve" smooth="yes"/>
			<point x="98.85" y="386"/>
			<point x="65.85" y="276"/>
			<point x="55.85" y="226" type="curve" smooth="yes"/>
			<point x="27.85" y="84"/>
			<point x="22.85" y="1"/>
			<point x="98.85" y="1" type="curve" smooth="yes"/>
			<point x="144.85" y="1"/>
			<point x="198.85" y="22"/>
		</contour>
		<contour>
			<point x="532.85" y="111" type="curve" smooth="yes"/>
			<point x="492.85" y="111"/>
			<point x="373.85" y="220"/>
			<point x="378.85" y="243" type="curve" smooth="yes"/>
			<point x="380.85" y="254"/>
			<point x="437.85" y="292"/>
			<point x="508.85" y="326" type="curve" smooth="yes"/>
			<point x="555.85" y="347"/>
			<point x="596.85" y="372"/>
			<point x="605.85" y="413" type="curve" smooth="yes"/>
			<point x="612.85" y="452"/>
			<point x="586.85" y="500"/>
			<point x="537.85" y="500" type="curve" smooth="yes"/>
			<point x="442.85" y="500"/>
			<point x="289.85" y="372"/>
			<point x="251.85" y="336" type="curve" smooth="yes"/>
			<point x="216.85" y="305"/>
			<point x="198.85" y="275"/>
			<point x="192.85" y="246" type="curve" smooth="yes"/>
			<point x="185.85" y="210"/>
			<point x="206.85" y="183"/>
			<point x="222.85" y="150" type="curve" smooth="yes"/>
			<point x="256.85" y="82"/>
			<point x="384.85" y="-34"/>
			<point x="460.85" y="-34" type="curve" smooth="yes"/>
			<point x="504.85" y="-34"/>
			<point x="517.85" y="-28"/>
			<point x="548.85" y="-14" type="curve"/>
			<point x="512.85" y="12" type="line"/>
			<point x="477.85" y="-32"/>
			<point x="460.85" y="-72"/>
			<point x="455.85" y="-93" type="curve" smooth="yes"/>
			<point x="447.85" y="-135"/>
			<point x="467.85" y="-171"/>
			<point x="522.85" y="-171" type="curve" smooth="yes"/>
			<point x="569.85" y="-171"/>
			<point x="591.85" y="-120"/>
			<point x="622.85" y="-52" type="curve" smooth="yes"/>
			<point x="645.85" y="0"/>
			<point x="666.85" y="34"/>
			<point x="674.85" y="74" type="curve" smooth="yes"/>
			<point x="684.85" y="123"/>
			<point x="643.85" y="146"/>
			<point x="610.85" y="146" type="curve" smooth="yes"/>
			<point x="573.85" y="146"/>
			<point x="551.85" y="111"/>
		</contour>
	</outline>
	<guideline x="39.406" y="263" angle="90" identifier="AEoq2U1whz"/>
	<guideline x="42.406" y="278" angle="90" identifier="lAjk0U2JTq"/>
</glyph>
<glyph name="Entailcyr" format="2">
	<unicode hex="04A2"/>
	<advance width="820"/>
	<outline>
		<contour>
			<point x="542.618" y="-129" type="curve" smooth="yes"/>
			<point x="536.618" y="-166"/>
			<point x="552.618" y="-207"/>
			<point x="607.618" y="-207" type="curve" smooth="yes"/>
			<point x="662.618" y="-207"/>
			<point x="690.618" y="-168"/>
			<point x="708.618" y="-116" type="curve" smooth="yes"/>
			<point x="742.618" y="-22"/>
			<point x="784.618" y="59"/>
			<point x="794.618" y="112" type="curve" smooth="yes"/>
			<point x="806.618" y="169"/>
			<point x="779.618" y="196"/>
			<point x="739.618" y="196" type="curve" smooth="yes"/>
			<point x="687.618" y="196"/>
			<point x="663.618" y="167"/>
			<point x="639.618" y="167" type="curve" smooth="yes"/>
			<point x="627.618" y="167"/>
			<point x="626.618" y="183"/>
			<point x="633.618" y="219" type="curve" smooth="yes"/>
			<point x="652.618" y="314"/>
			<point x="681.618" y="430"/>
			<point x="700.618" y="524" type="curve" smooth="yes"/>
			<point x="720.618" y="625"/>
			<point x="689.618" y="674"/>
			<point x="632.618" y="674" type="curve" smooth="yes"/>
			<point x="584.618" y="674"/>
			<point x="548.618" y="648"/>
			<point x="536.618" y="591" type="curve" smooth="yes"/>
			<point x="521.618" y="514"/>
			<point x="478.618" y="357"/>
			<point x="445.618" y="191" type="curve" smooth="yes"/>
			<point x="421.618" y="69"/>
			<point x="458.618" y="-5"/>
			<point x="566.618" y="-5" type="curve" smooth="yes"/>
			<point x="621.618" y="-5"/>
			<point x="630.618" y="5"/>
			<point x="643.618" y="18" type="curve"/>
			<point x="602.618" y="27" type="line"/>
			<point x="568.618" y="-30"/>
			<point x="548.618" y="-91"/>
		</contour>
		<contour>
			<point x="35.618" y="373" type="curve" smooth="yes"/>
			<point x="25.618" y="324"/>
			<point x="60.618" y="276"/>
			<point x="178.618" y="276" type="curve" smooth="yes"/>
			<point x="245.618" y="276"/>
			<point x="360.618" y="306"/>
			<point x="654.618" y="306" type="curve" smooth="yes"/>
			<point x="696.618" y="306"/>
			<point x="722.618" y="329"/>
			<point x="729.618" y="366" type="curve" smooth="yes"/>
			<point x="738.618" y="410"/>
			<point x="713.618" y="469"/>
			<point x="586.618" y="469" type="curve" smooth="yes"/>
			<point x="419.618" y="469"/>
			<point x="246.618" y="471"/>
			<point x="95.618" y="429" type="curve" smooth="yes"/>
			<point x="59.618" y="420"/>
			<point x="40.618" y="401"/>
		</contour>
		<contour>
			<point x="145.618" y="8" type="curve" smooth="yes"/>
			<point x="194.618" y="8"/>
			<point x="230.618" y="35"/>
			<point x="240.618" y="86" type="curve" smooth="yes"/>
			<point x="266.618" y="215"/>
			<point x="291.618" y="416"/>
			<point x="332.618" y="620" type="curve" smooth="yes"/>
			<point x="348.618" y="701"/>
			<point x="305.618" y="739"/>
			<point x="254.618" y="739" type="curve" smooth="yes"/>
			<point x="190.618" y="739"/>
			<point x="157.618" y="712"/>
			<point x="144.618" y="643" type="curve" smooth="yes"/>
			<point x="131.618" y="581"/>
			<point x="114.618" y="384"/>
			<point x="69.618" y="184" type="curve" smooth="yes"/>
			<point x="40.618" y="55"/>
			<point x="78.618" y="8"/>
		</contour>
	</outline>
</glyph>
<glyph name="entailcyr" format="2">
	<unicode hex="04A3"/>
	<advance width="780"/>
	<outline>
		<contour>
			<point x="210.592" y="72" type="curve" smooth="yes"/>
			<point x="219.592" y="115"/>
			<point x="229.592" y="169"/>
			<point x="236.592" y="206" type="curve" smooth="yes"/>
			<point x="246.592" y="254"/>
			<point x="278.592" y="356"/>
			<point x="291.592" y="419" type="curve" smooth="yes"/>
			<point x="306.592" y="493"/>
			<point x="280.592" y="540"/>
			<point x="204.592" y="540" type="curve" smooth="yes"/>
			<point x="158.592" y="540"/>
			<point x="135.592" y="498"/>
			<point x="125.592" y="451" type="curve" smooth="yes"/>
			<point x="111.592" y="382"/>
			<point x="90" y="291"/>
			<point x="74" y="212" type="curve"/>
			<point x="161.592" y="175" type="line"/>
			<point x="276.592" y="175"/>
			<point x="409.592" y="182"/>
			<point x="519.592" y="229" type="curve"/>
			<point x="495.592" y="370" type="line"/>
			<point x="402.592" y="337"/>
			<point x="287.592" y="321"/>
			<point x="190.592" y="321" type="curve" smooth="yes"/>
			<point x="171.592" y="321"/>
			<point x="149.592" y="318"/>
			<point x="131.592" y="306" type="curve" smooth="yes"/>
			<point x="100.592" y="286"/>
			<point x="54.592" y="246"/>
			<point x="37.592" y="160" type="curve" smooth="yes"/>
			<point x="20.592" y="73"/>
			<point x="65.592" y="4"/>
			<point x="137.592" y="4" type="curve" smooth="yes"/>
			<point x="172.592" y="4"/>
			<point x="203.592" y="33"/>
		</contour>
		<contour>
			<point x="530.592" y="-11" type="curve" smooth="yes"/>
			<point x="561.592" y="-11"/>
			<point x="580.592" y="-6"/>
			<point x="602.592" y="5" type="curve"/>
			<point x="576.592" y="40" type="line"/>
			<point x="539.592" y="-12"/>
			<point x="514.592" y="-74"/>
			<point x="509.592" y="-99" type="curve" smooth="yes"/>
			<point x="501.592" y="-141"/>
			<point x="514.592" y="-175"/>
			<point x="562.592" y="-175" type="curve" smooth="yes"/>
			<point x="610.592" y="-175"/>
			<point x="641.592" y="-138"/>
			<point x="671.592" y="-70" type="curve" smooth="yes"/>
			<point x="706.592" y="9"/>
			<point x="737.592" y="54"/>
			<point x="747.592" y="107" type="curve" smooth="yes"/>
			<point x="756.592" y="148"/>
			<point x="731.592" y="177"/>
			<point x="699.592" y="177" type="curve" smooth="yes"/>
			<point x="664.592" y="177"/>
			<point x="624.592" y="129"/>
			<point x="602.592" y="129" type="curve" smooth="yes"/>
			<point x="579.592" y="129"/>
			<point x="583.592" y="181"/>
			<point x="599.592" y="258" type="curve" smooth="yes"/>
			<point x="611.592" y="322"/>
			<point x="644.592" y="395"/>
			<point x="653.592" y="438" type="curve" smooth="yes"/>
			<point x="660.592" y="474"/>
			<point x="632.592" y="506"/>
			<point x="592.592" y="506" type="curve" smooth="yes"/>
			<point x="546.592" y="506"/>
			<point x="500.592" y="475"/>
			<point x="481.592" y="435" type="curve" smooth="yes"/>
			<point x="461.592" y="394"/>
			<point x="441.592" y="330"/>
			<point x="421.592" y="229" type="curve" smooth="yes"/>
			<point x="391.592" y="81"/>
			<point x="424.592" y="-11"/>
		</contour>
	</outline>
	<guideline x="39.406" y="263" angle="90" identifier="rQENFQOEUJ"/>
	<guideline x="42.406" y="278" angle="90" identifier="rKZszPBnKc"/>
	<guideline x="39.406" y="263" angle="90" identifier="5E34WgFDuY"/>
	<guideline x="42.406" y="278" angle="90" identifier="Kcc90PHHKR"/>
	<guideline x="39.406" y="263" angle="90" identifier="zF1gezmNwb"/>
	<guideline x="42.406" y="278" angle="90" identifier="GTqYHIda0t"/>
</glyph>
<glyph name="Estailcyr" format="2">
	<unicode hex="04AA"/>
	<advance width="621"/>
	<outline>
		<contour>
			<point x="208.155" y="60" type="curve" smooth="yes"/>
			<point x="201.155" y="24"/>
			<point x="180.155" y="-53"/>
			<point x="170.155" y="-107" type="curve" smooth="yes"/>
			<point x="160.155" y="-155"/>
			<point x="185.155" y="-207"/>
			<point x="255.155" y="-207" type="curve" smooth="yes"/>
			<point x="299.155" y="-207"/>
			<point x="339.155" y="-164"/>
			<point x="348.155" y="-119" type="curve" smooth="yes"/>
			<point x="355.155" y="-86"/>
			<point x="341.155" y="5"/>
			<point x="354.155" y="71" type="curve" smooth="yes"/>
			<point x="362.155" y="111"/>
			<point x="343.155" y="130"/>
			<point x="314.155" y="130" type="curve" smooth="yes"/>
			<point x="275.155" y="130"/>
			<point x="217.155" y="103"/>
		</contour>
		<component base="C" xOffset="-3.25"/>
	</outline>
	<anchor name="bottom" x="279.955" y="64"/>
	<anchor name="top" x="416.356" y="616"/>
</glyph>
<glyph name="Ustraightcyr" format="2">
	<unicode hex="04AE"/>
	<advance width="626"/>
	<outline>
		<contour>
			<point x="638.578" y="487" type="curve" smooth="yes"/>
			<point x="689.578" y="518"/>
			<point x="702.578" y="549"/>
			<point x="709.578" y="585" type="curve" smooth="yes"/>
			<point x="720.578" y="639"/>
			<point x="702.578" y="673"/>
			<point x="658.578" y="673" type="curve" smooth="yes"/>
			<point x="636.578" y="673"/>
			<point x="617.578" y="666"/>
			<point x="584.578" y="643" type="curve" smooth="yes"/>
			<point x="465.578" y="560"/>
			<point x="347.578" y="456"/>
			<point x="269.578" y="355" type="curve" smooth="yes"/>
			<point x="224.578" y="292"/>
			<point x="203.578" y="229"/>
			<point x="192.578" y="173" type="curve" smooth="yes"/>
			<point x="173.578" y="80"/>
			<point x="173.578" y="14"/>
			<point x="245.578" y="14" type="curve" smooth="yes"/>
			<point x="283.578" y="14"/>
			<point x="323.578" y="32"/>
			<point x="334.578" y="86" type="curve" smooth="yes"/>
			<point x="349.578" y="162"/>
			<point x="354.578" y="225"/>
			<point x="395.578" y="294" type="curve" smooth="yes"/>
			<point x="419.578" y="334"/>
			<point x="525.578" y="416"/>
		</contour>
		<contour>
			<point x="223.578" y="651" type="curve" smooth="yes"/>
			<point x="204.578" y="692"/>
			<point x="180.578" y="700"/>
			<point x="150.578" y="700" type="curve" smooth="yes"/>
			<point x="110.578" y="700"/>
			<point x="75.578" y="666"/>
			<point x="65.578" y="617" type="curve" smooth="yes"/>
			<point x="58.578" y="579"/>
			<point x="66.578" y="554"/>
			<point x="80.578" y="529" type="curve" smooth="yes"/>
			<point x="136.578" y="441"/>
			<point x="170.578" y="429"/>
			<point x="242.578" y="281" type="curve" smooth="yes"/>
			<point x="253.578" y="257"/>
			<point x="266.578" y="242"/>
			<point x="292.578" y="242" type="curve" smooth="yes"/>
			<point x="334.578" y="242"/>
			<point x="370.578" y="290"/>
			<point x="379.578" y="335" type="curve" smooth="yes"/>
			<point x="382.578" y="351"/>
			<point x="382.578" y="366"/>
			<point x="378.578" y="379" type="curve" smooth="yes"/>
			<point x="321.578" y="527"/>
			<point x="274.578" y="537"/>
		</contour>
	</outline>
</glyph>
<glyph name="Ustraightstrokecyr" format="2">
	<unicode hex="04B0"/>
	<advance width="626"/>
	<outline>
		<contour>
			<point x="138.879" y="192" type="curve" smooth="yes"/>
			<point x="195.879" y="192"/>
			<point x="356.879" y="222"/>
			<point x="510.879" y="222" type="curve" smooth="yes"/>
			<point x="542.879" y="222"/>
			<point x="566.879" y="247"/>
			<point x="572.879" y="274" type="curve" smooth="yes"/>
			<point x="579.879" y="308"/>
			<point x="557.879" y="355"/>
			<point x="447.879" y="355" type="curve" smooth="yes"/>
			<point x="374.879" y="355"/>
			<point x="186.879" y="337"/>
			<point x="109.879" y="318" type="curve" smooth="yes"/>
			<point x="79.879" y="310"/>
			<point x="65.879" y="298"/>
			<point x="60.879" y="276" type="curve" smooth="yes"/>
			<point x="52.879" y="233"/>
			<point x="68.879" y="192"/>
		</contour>
		<component base="Ustraightcyr" xOffset="-3.527"/>
	</outline>
</glyph>
<glyph name="ustraightstrokecyr" format="2">
	<unicode hex="04B1"/>
	<advance width="562"/>
	<outline>
		<contour>
			<point x="84.66" y="-164" type="curve" smooth="yes"/>
			<point x="71.66" y="-231"/>
			<point x="110.66" y="-267"/>
			<point x="148.66" y="-267" type="curve" smooth="yes"/>
			<point x="192.66" y="-267"/>
			<point x="220.66" y="-237"/>
			<point x="243.66" y="-184" type="curve" smooth="yes"/>
			<point x="276.66" y="-110"/>
			<point x="328.66" y="-34"/>
			<point x="393.66" y="66" type="curve" smooth="yes"/>
			<point x="457.66" y="167"/>
			<point x="517.66" y="256"/>
			<point x="533.66" y="337" type="curve" smooth="yes"/>
			<point x="553.66" y="433"/>
			<point x="517.66" y="483"/>
			<point x="465.66" y="483" type="curve" smooth="yes"/>
			<point x="421.66" y="483"/>
			<point x="406.66" y="456"/>
			<point x="386.66" y="421" type="curve" smooth="yes"/>
			<point x="344.66" y="350"/>
			<point x="312.66" y="326"/>
			<point x="265.66" y="326" type="curve" smooth="yes"/>
			<point x="223.66" y="326"/>
			<point x="221.66" y="343"/>
			<point x="226.66" y="368" type="curve" smooth="yes"/>
			<point x="231.66" y="394"/>
			<point x="240.66" y="417"/>
			<point x="244.66" y="435" type="curve" smooth="yes"/>
			<point x="254.66" y="485"/>
			<point x="237.66" y="534"/>
			<point x="156.66" y="534" type="curve" smooth="yes"/>
			<point x="112.66" y="534"/>
			<point x="79.66" y="509"/>
			<point x="49.66" y="361" type="curve" smooth="yes"/>
			<point x="27.66" y="248"/>
			<point x="86.66" y="175"/>
			<point x="186.66" y="175" type="curve" smooth="yes"/>
			<point x="275.66" y="175"/>
			<point x="330.66" y="204"/>
			<point x="367.66" y="260" type="curve"/>
			<point x="328.66" y="295" type="line"/>
			<point x="294.66" y="147"/>
			<point x="121.66" y="19"/>
		</contour>
		<contour>
			<point x="8.66" y="79" type="curve" smooth="yes"/>
			<point x="-2.34" y="25"/>
			<point x="42.66" y="-1"/>
			<point x="104.66" y="-1" type="curve" smooth="yes"/>
			<point x="157.66" y="-1"/>
			<point x="374.66" y="-18"/>
			<point x="434.66" y="-18" type="curve" smooth="yes"/>
			<point x="484.66" y="-18"/>
			<point x="516.66" y="-5"/>
			<point x="522.66" y="23" type="curve" smooth="yes"/>
			<point x="530.66" y="67"/>
			<point x="483.66" y="106"/>
			<point x="412.66" y="106" type="curve" smooth="yes"/>
			<point x="280.66" y="106"/>
			<point x="180.66" y="125"/>
			<point x="84.66" y="125" type="curve" smooth="yes"/>
			<point x="38.66" y="125"/>
			<point x="14.66" y="108"/>
		</contour>
	</outline>
	<guideline x="39.406" y="263" angle="90" identifier="TqGNIf0mql"/>
	<guideline x="42.406" y="278" angle="90" identifier="pPlfMfFYxl"/>
</glyph>
<glyph name="chetailcyr" format="2">
	<unicode hex="04B7"/>
	<advance width="721"/>
	<outline>
		<contour>
			<point x="494.675" y="324" type="curve"/>
			<point x="457.675" y="448" type="line"/>
			<point x="372.675" y="359"/>
			<point x="277.675" y="276"/>
			<point x="232.675" y="276" type="curve" smooth="yes"/>
			<point x="213.675" y="276"/>
			<point x="209.675" y="287"/>
			<point x="212.675" y="302" type="curve" smooth="yes"/>
			<point x="222.675" y="350"/>
			<point x="279.675" y="389"/>
			<point x="286.675" y="426" type="curve" smooth="yes"/>
			<point x="293.675" y="462"/>
			<point x="250.675" y="493"/>
			<point x="209.675" y="493" type="curve" smooth="yes"/>
			<point x="128.675" y="493"/>
			<point x="55.675" y="365"/>
			<point x="35.675" y="266" type="curve" smooth="yes"/>
			<point x="20.675" y="191"/>
			<point x="50.675" y="127"/>
			<point x="142.675" y="127" type="curve" smooth="yes"/>
			<point x="268.675" y="127"/>
			<point x="380.675" y="212"/>
		</contour>
		<contour>
			<point x="541.675" y="231" type="curve" smooth="yes"/>
			<point x="551.675" y="282"/>
			<point x="597.675" y="358"/>
			<point x="603.675" y="390" type="curve" smooth="yes"/>
			<point x="614.675" y="445"/>
			<point x="580.675" y="488"/>
			<point x="538.675" y="488" type="curve" smooth="yes"/>
			<point x="499.675" y="488"/>
			<point x="459.675" y="468"/>
			<point x="438.675" y="414" type="curve" smooth="yes"/>
			<point x="421.675" y="369"/>
			<point x="380.675" y="267"/>
			<point x="369.675" y="208" type="curve" smooth="yes"/>
			<point x="348.675" y="105"/>
			<point x="347.675" y="6"/>
			<point x="475.675" y="6" type="curve" smooth="yes"/>
			<point x="500.675" y="6"/>
			<point x="531.675" y="17"/>
			<point x="548.675" y="26" type="curve"/>
			<point x="519.675" y="53" type="line"/>
			<point x="481.675" y="4"/>
			<point x="452.675" y="-61"/>
			<point x="446.675" y="-90" type="curve" smooth="yes"/>
			<point x="437.675" y="-136"/>
			<point x="451.675" y="-174"/>
			<point x="503.675" y="-174" type="curve" smooth="yes"/>
			<point x="549.675" y="-174"/>
			<point x="582.675" y="-134"/>
			<point x="609.675" y="-72" type="curve" smooth="yes"/>
			<point x="643.675" y="8"/>
			<point x="679.675" y="66"/>
			<point x="690.675" y="120" type="curve" smooth="yes"/>
			<point x="698.675" y="161"/>
			<point x="674.675" y="190"/>
			<point x="642.675" y="190" type="curve" smooth="yes"/>
			<point x="605.675" y="190"/>
			<point x="578.675" y="153"/>
			<point x="557.675" y="153" type="curve" smooth="yes"/>
			<point x="533.675" y="153"/>
			<point x="531.675" y="179"/>
		</contour>
	</outline>
	<guideline x="363.406" y="248" angle="90" identifier="GGEFes61Q6"/>
	<guideline x="397.406" y="249" angle="90" identifier="RDFBihUABo"/>
	<guideline x="363.406" y="248" angle="90" identifier="idJrD5E4hT"/>
	<guideline x="373.406" y="265" angle="90" identifier="g5R8C5mRAs"/>
	<guideline x="363.406" y="248" angle="90" identifier="gqaqriYRaR"/>
	<guideline x="373.406" y="265" angle="90" identifier="50BbntIidL"/>
	<guideline x="39.406" y="263" angle="90" identifier="uTAKow8vGg"/>
	<guideline x="42.406" y="278" angle="90" identifier="eSEch0ZVDi"/>
</glyph>
<glyph name="Shhacyr" format="2">
	<unicode hex="04BA"/>
	<advance width="697"/>
	<outline>
		<contour>
			<point x="454.132" y="46" type="curve" smooth="yes"/>
			<point x="456.132" y="-17"/>
			<point x="483.132" y="-52"/>
			<point x="538.132" y="-52" type="curve" smooth="yes"/>
			<point x="595.132" y="-52"/>
			<point x="645.132" y="-22"/>
			<point x="652.132" y="15" type="curve" smooth="yes"/>
			<point x="661.132" y="62"/>
			<point x="644.132" y="93"/>
			<point x="646.132" y="160" type="curve" smooth="yes"/>
			<point x="646.132" y="193"/>
			<point x="669.132" y="292"/>
			<point x="671.132" y="350" type="curve" smooth="yes"/>
			<point x="676.132" y="430"/>
			<point x="632.132" y="504"/>
			<point x="546.132" y="504" type="curve" smooth="yes"/>
			<point x="412.132" y="504"/>
			<point x="303.132" y="408"/>
			<point x="183.132" y="256" type="curve"/>
			<point x="222.132" y="213" type="line"/>
			<point x="226.132" y="223"/>
			<point x="271.132" y="347"/>
			<point x="297.132" y="473" type="curve" smooth="yes"/>
			<point x="307.132" y="523"/>
			<point x="314.132" y="576"/>
			<point x="316.132" y="629" type="curve" smooth="yes"/>
			<point x="317.132" y="681"/>
			<point x="292.132" y="714"/>
			<point x="252.132" y="714" type="curve" smooth="yes"/>
			<point x="201.132" y="714"/>
			<point x="156.132" y="684"/>
			<point x="146.132" y="634" type="curve" smooth="yes"/>
			<point x="131.132" y="562"/>
			<point x="117.132" y="449"/>
			<point x="101.132" y="368" type="curve" smooth="yes"/>
			<point x="88.132" y="304"/>
			<point x="55.132" y="219"/>
			<point x="45.132" y="172" type="curve" smooth="yes"/>
			<point x="28.132" y="87"/>
			<point x="55.132" y="28"/>
			<point x="100.132" y="28" type="curve" smooth="yes"/>
			<point x="170.132" y="28"/>
			<point x="189.132" y="85"/>
			<point x="256.132" y="159" type="curve" smooth="yes"/>
			<point x="321.132" y="231"/>
			<point x="418.132" y="317"/>
			<point x="455.132" y="317" type="curve" smooth="yes"/>
			<point x="482.132" y="317"/>
			<point x="484.132" y="288"/>
			<point x="479.132" y="245" type="curve" smooth="yes"/>
			<point x="472.132" y="190"/>
			<point x="449.132" y="102"/>
		</contour>
	</outline>
</glyph>
<glyph name="Palochkacyr" format="2">
	<unicode hex="04C0"/>
	<advance width="345"/>
	<outline>
		<contour>
			<point x="149.477" y="48" type="curve" smooth="yes"/>
			<point x="195.477" y="48"/>
			<point x="229.477" y="75"/>
			<point x="238.477" y="121" type="curve" smooth="yes"/>
			<point x="258.477" y="219"/>
			<point x="282.477" y="361"/>
			<point x="311.477" y="505" type="curve" smooth="yes"/>
			<point x="332.477" y="608"/>
			<point x="296.477" y="652"/>
			<point x="235.477" y="652" type="curve" smooth="yes"/>
			<point x="177.477" y="652"/>
			<point x="146.477" y="624"/>
			<point x="132.477" y="555" type="curve" smooth="yes"/>
			<point x="126.477" y="525"/>
			<point x="108.477" y="384"/>
			<point x="87.477" y="279" type="curve" smooth="yes"/>
			<point x="82.477" y="253"/>
			<point x="69.477" y="193"/>
			<point x="66.477" y="182" type="curve" smooth="yes"/>
			<point x="48.477" y="92"/>
			<point x="86.477" y="48"/>
		</contour>
	</outline>
</glyph>
<glyph name="chekhakascyr" format="2">
	<unicode hex="04CC"/>
	<advance width="631"/>
	<outline>
		<contour>
			<point x="494.675" y="324" type="curve"/>
			<point x="457.675" y="448" type="line"/>
			<point x="372.675" y="359"/>
			<point x="277.675" y="276"/>
			<point x="232.675" y="276" type="curve" smooth="yes"/>
			<point x="213.675" y="276"/>
			<point x="209.675" y="287"/>
			<point x="212.675" y="302" type="curve" smooth="yes"/>
			<point x="222.675" y="350"/>
			<point x="279.675" y="389"/>
			<point x="286.675" y="426" type="curve" smooth="yes"/>
			<point x="293.675" y="462"/>
			<point x="250.675" y="493"/>
			<point x="209.675" y="493" type="curve" smooth="yes"/>
			<point x="128.675" y="493"/>
			<point x="55.675" y="365"/>
			<point x="35.675" y="266" type="curve" smooth="yes"/>
			<point x="20.675" y="191"/>
			<point x="50.675" y="127"/>
			<point x="142.675" y="127" type="curve" smooth="yes"/>
			<point x="268.675" y="127"/>
			<point x="380.675" y="212"/>
		</contour>
		<contour>
			<point x="541.675" y="104" type="curve" smooth="yes"/>
			<point x="548.675" y="139"/>
			<point x="541.675" y="181"/>
			<point x="554.675" y="243" type="curve" smooth="yes"/>
			<point x="562.675" y="285"/>
			<point x="597.675" y="358"/>
			<point x="603.675" y="390" type="curve" smooth="yes"/>
			<point x="614.675" y="445"/>
			<point x="580.675" y="488"/>
			<point x="538.675" y="488" type="curve" smooth="yes"/>
			<point x="499.675" y="488"/>
			<point x="455.675" y="464"/>
			<point x="438.675" y="414" type="curve" smooth="yes"/>
			<point x="425.675" y="381"/>
			<point x="391.675" y="292"/>
			<point x="382.675" y="243" type="curve" smooth="yes"/>
			<point x="369.675" y="179"/>
			<point x="370.675" y="100"/>
			<point x="382.675" y="63" type="curve"/>
			<point x="418.675" y="139" type="line"/>
			<point x="353.675" y="130"/>
			<point x="312.675" y="111"/>
			<point x="288.675" y="85" type="curve" smooth="yes"/>
			<point x="254.675" y="48"/>
			<point x="237.675" y="-11"/>
			<point x="243.675" y="-63" type="curve" smooth="yes"/>
			<point x="251.675" y="-117"/>
			<point x="270.675" y="-172"/>
			<point x="331.675" y="-172" type="curve" smooth="yes"/>
			<point x="369.675" y="-172"/>
			<point x="392.675" y="-145"/>
			<point x="398.675" y="-114" type="curve" smooth="yes"/>
			<point x="402.675" y="-97"/>
			<point x="392.675" y="-55"/>
			<point x="396.675" y="-34" type="curve" smooth="yes"/>
			<point x="400.675" y="-15"/>
			<point x="412.675" y="-2"/>
			<point x="435.675" y="8" type="curve" smooth="yes"/>
			<point x="484.675" y="28"/>
			<point x="529.675" y="46"/>
		</contour>
	</outline>
</glyph>
<glyph name="palochkacyr" format="2">
	<unicode hex="04CF"/>
	<advance width="299"/>
	<outline>
		<contour>
			<point x="95.973" y="-12" type="curve" smooth="yes"/>
			<point x="139.973" y="-12"/>
			<point x="176.973" y="23"/>
			<point x="184.973" y="66" type="curve" smooth="yes"/>
			<point x="200.973" y="144"/>
			<point x="282.973" y="426"/>
			<point x="313.973" y="582" type="curve" smooth="yes"/>
			<point x="338.973" y="706"/>
			<point x="312.973" y="766"/>
			<point x="251.973" y="766" type="curve" smooth="yes"/>
			<point x="196.973" y="766"/>
			<point x="167.973" y="739"/>
			<point x="153.973" y="672" type="curve" smooth="yes"/>
			<point x="148.973" y="647"/>
			<point x="126.973" y="503"/>
			<point x="107.973" y="412" type="curve" smooth="yes"/>
			<point x="86.973" y="306"/>
			<point x="43.973" y="205"/>
			<point x="23.973" y="107" type="curve" smooth="yes"/>
			<point x="7.973" y="27"/>
			<point x="41.973" y="-12"/>
		</contour>
	</outline>
</glyph>
<glyph name="Abrevecyr" format="2">
	<unicode hex="04D0"/>
	<advance width="780"/>
	<outline>
		<contour>
			<point x="541.86" y="836" type="curve" smooth="yes"/>
			<point x="507.86" y="836"/>
			<point x="489.86" y="857"/>
			<point x="476.86" y="883" type="curve" smooth="yes"/>
			<point x="464.86" y="905"/>
			<point x="450.86" y="922"/>
			<point x="424.86" y="922" type="curve" smooth="yes"/>
			<point x="379.86" y="922"/>
			<point x="344.86" y="894"/>
			<point x="334.86" y="845" type="curve" smooth="yes"/>
			<point x="318.86" y="763"/>
			<point x="377.86" y="702"/>
			<point x="488.86" y="702" type="curve" smooth="yes"/>
			<point x="597.86" y="702"/>
			<point x="726.86" y="757"/>
			<point x="741.86" y="831" type="curve" smooth="yes"/>
			<point x="748.86" y="866"/>
			<point x="735.86" y="887"/>
			<point x="702.86" y="887" type="curve" smooth="yes"/>
			<point x="680.86" y="887"/>
			<point x="661.86" y="874"/>
			<point x="633.86" y="861" type="curve" smooth="yes"/>
			<point x="602.86" y="847"/>
			<point x="568.86" y="836"/>
		</contour>
		<component base="A" xOffset="-3.546"/>
	</outline>
	<anchor name="bottom" x="360.114" y="54"/>
	<anchor name="ogonek" x="639.714" y="17"/>
	<anchor name="ring" x="482.914" y="633"/>
	<anchor name="top" x="482.114" y="634"/>
</glyph>
<glyph name="obarcyr" format="2">
	<unicode hex="04E9"/>
	<advance width="663"/>
	<outline>
		<contour>
			<point x="268.727" y="-23" type="curve" smooth="yes"/>
			<point x="420.727" y="-23"/>
			<point x="562.727" y="102"/>
			<point x="595.727" y="266" type="curve" smooth="yes"/>
			<point x="629.727" y="437"/>
			<point x="552.727" y="543"/>
			<point x="380.727" y="543" type="curve" smooth="yes"/>
			<point x="295.727" y="543"/>
			<point x="163.727" y="454"/>
			<point x="146.727" y="371" type="curve" smooth="yes"/>
			<point x="135.727" y="316"/>
			<point x="162.727" y="312"/>
			<point x="195.727" y="312" type="curve" smooth="yes"/>
			<point x="216.727" y="312"/>
			<point x="231.727" y="334"/>
			<point x="258.727" y="363" type="curve" smooth="yes"/>
			<point x="282.727" y="389"/>
			<point x="321.727" y="401"/>
			<point x="353.727" y="401" type="curve" smooth="yes"/>
			<point x="429.727" y="401"/>
			<point x="457.727" y="334"/>
			<point x="440.727" y="251" type="curve" smooth="yes"/>
			<point x="422.727" y="158"/>
			<point x="347.727" y="118"/>
			<point x="287.727" y="118" type="curve" smooth="yes"/>
			<point x="216.727" y="118"/>
			<point x="174.727" y="168"/>
			<point x="192.727" y="259" type="curve" smooth="yes"/>
			<point x="203.727" y="313"/>
			<point x="232.727" y="382"/>
			<point x="272.727" y="396" type="curve" smooth="yes"/>
			<point x="357.727" y="427"/>
			<point x="391.727" y="445"/>
			<point x="401.727" y="497" type="curve" smooth="yes"/>
			<point x="410.727" y="542"/>
			<point x="376.727" y="560"/>
			<point x="337.727" y="560" type="curve" smooth="yes"/>
			<point x="221.727" y="560"/>
			<point x="67.727" y="410"/>
			<point x="38.727" y="266" type="curve" smooth="yes"/>
			<point x="1.727" y="79"/>
			<point x="100.727" y="-23"/>
		</contour>
		<contour>
			<point x="98.727" y="195" type="line"/>
			<point x="160.727" y="204"/>
			<point x="214.727" y="207"/>
			<point x="264.727" y="207" type="curve" smooth="yes"/>
			<point x="373.727" y="207"/>
			<point x="463.727" y="185"/>
			<point x="566.727" y="185" type="curve" smooth="yes"/>
			<point x="614.727" y="185"/>
			<point x="637.727" y="201"/>
			<point x="643.727" y="231" type="curve" smooth="yes"/>
			<point x="651.727" y="272"/>
			<point x="616.727" y="301"/>
			<point x="582.727" y="301" type="curve" smooth="yes"/>
			<point x="478.727" y="301"/>
			<point x="385.727" y="323"/>
			<point x="279.727" y="323" type="curve" smooth="yes"/>
			<point x="229.727" y="323"/>
			<point x="177.727" y="320"/>
			<point x="121.727" y="311" type="curve"/>
		</contour>
	</outline>
	<anchor name="top" x="377.728" y="515"/>
	<guideline x="39.406" y="263" angle="90" identifier="CB8mICpc1y"/>
	<guideline x="42.406" y="278" angle="90" identifier="ESe4gH2bJH"/>
</glyph>
<glyph name="Getailcyr" format="2">
	<unicode hex="04F6"/>
	<advance width="587"/>
	<outline>
		<contour>
			<point x="229.385" y="682" type="curve" smooth="yes"/>
			<point x="145.385" y="672"/>
			<point x="112.385" y="654"/>
			<point x="105.385" y="621" type="curve" smooth="yes"/>
			<point x="95.385" y="572"/>
			<point x="131.385" y="521"/>
			<point x="176.385" y="521" type="curve" smooth="yes"/>
			<point x="206.385" y="521"/>
			<point x="281.385" y="536"/>
			<point x="359.385" y="536" type="curve" smooth="yes"/>
			<point x="419.385" y="536"/>
			<point x="491.385" y="522"/>
			<point x="554.385" y="522" type="curve" smooth="yes"/>
			<point x="600.385" y="522"/>
			<point x="632.385" y="543"/>
			<point x="639.385" y="582" type="curve" smooth="yes"/>
			<point x="652.385" y="643"/>
			<point x="574.385" y="693"/>
			<point x="462.385" y="693" type="curve" smooth="yes"/>
			<point x="373.385" y="693"/>
			<point x="262.385" y="686"/>
		</contour>
		<contour>
			<point x="275.385" y="350" type="curve" smooth="yes"/>
			<point x="308.385" y="517"/>
			<point x="323.385" y="574"/>
			<point x="329.385" y="605" type="curve"/>
			<point x="156.385" y="599" type="line"/>
			<point x="147.385" y="555"/>
			<point x="137.385" y="458"/>
			<point x="104.385" y="297" type="curve" smooth="yes"/>
			<point x="60.385" y="76"/>
			<point x="86.385" y="8"/>
			<point x="194.385" y="8" type="curve" smooth="yes"/>
			<point x="233.385" y="8"/>
			<point x="254.385" y="20"/>
			<point x="266.385" y="37" type="curve"/>
			<point x="254.385" y="46" type="line"/>
			<point x="218.385" y="-11"/>
			<point x="197.385" y="-72"/>
			<point x="191.385" y="-110" type="curve" smooth="yes"/>
			<point x="185.385" y="-147"/>
			<point x="200.385" y="-188"/>
			<point x="255.385" y="-188" type="curve" smooth="yes"/>
			<point x="310.385" y="-188"/>
			<point x="339.385" y="-149"/>
			<point x="357.385" y="-97" type="curve" smooth="yes"/>
			<point x="391.385" y="-6"/>
			<point x="434.385" y="72"/>
			<point x="445.385" y="123" type="curve" smooth="yes"/>
			<point x="457.385" y="185"/>
			<point x="417.385" y="215"/>
			<point x="384.385" y="215" type="curve" smooth="yes"/>
			<point x="336.385" y="215"/>
			<point x="298.385" y="171"/>
			<point x="274.385" y="171" type="curve" smooth="yes"/>
			<point x="242.385" y="171"/>
			<point x="249.385" y="218"/>
		</contour>
	</outline>
</glyph>
<glyph name="quoteright" format="2">
	<unicode hex="2019"/>
	<advance width="284"/>
	<outline>
		<contour>
			<point x="289.382" y="813" type="curve" smooth="yes"/>
			<point x="255.382" y="813"/>
			<point x="233.382" y="799"/>
			<point x="210.382" y="763" type="curve" smooth="yes"/>
			<point x="164.382" y="694"/>
			<point x="117.382" y="601"/>
			<point x="104.382" y="533" type="curve" smooth="yes"/>
			<point x="91.382" y="471"/>
			<point x="107.382" y="415"/>
			<point x="151.382" y="415" type="curve" smooth="yes"/>
			<point x="190.382" y="415"/>
			<point x="217.382" y="444"/>
			<point x="245.382" y="485" type="curve" smooth="yes"/>
			<point x="275.382" y="530"/>
			<point x="309.382" y="571"/>
			<point x="350.382" y="643" type="curve" smooth="yes"/>
			<point x="367.382" y="673"/>
			<point x="376.382" y="694"/>
			<point x="380.382" y="717" type="curve" smooth="yes"/>
			<point x="389.382" y="762"/>
			<point x="341.382" y="813"/>
		</contour>
	</outline>
</glyph>
<glyph name="daggerdbl" format="2">
	<unicode hex="2021"/>
	<advance width="619"/>
	<outline>
		<contour>
			<point x="477.157" y="580" type="curve" smooth="yes"/>
			<point x="497.157" y="678"/>
			<point x="465.157" y="718"/>
			<point x="400.157" y="718" type="curve" smooth="yes"/>
			<point x="351.157" y="718"/>
			<point x="330.157" y="688"/>
			<point x="323.157" y="643" type="curve" smooth="yes"/>
			<point x="296.157" y="485"/>
			<point x="246.157" y="384"/>
			<point x="208.157" y="194" type="curve" smooth="yes"/>
			<point x="179.157" y="52"/>
			<point x="168.157" y="-36"/>
			<point x="167.157" y="-172" type="curve" smooth="yes"/>
			<point x="166.157" y="-235"/>
			<point x="190.157" y="-264"/>
			<point x="234.157" y="-264" type="curve" smooth="yes"/>
			<point x="280.157" y="-264"/>
			<point x="315.157" y="-236"/>
			<point x="326.157" y="-178" type="curve" smooth="yes"/>
			<point x="345.157" y="-86"/>
			<point x="332.157" y="-20"/>
			<point x="379.157" y="217" type="curve" smooth="yes"/>
			<point x="408.157" y="359"/>
			<point x="456.157" y="477"/>
		</contour>
		<contour>
			<point x="559.157" y="374" type="curve" smooth="yes"/>
			<point x="613.157" y="374"/>
			<point x="633.157" y="398"/>
			<point x="639.157" y="432" type="curve" smooth="yes"/>
			<point x="651.157" y="489"/>
			<point x="612.157" y="525"/>
			<point x="533.157" y="525" type="curve" smooth="yes"/>
			<point x="415.157" y="525"/>
			<point x="276.157" y="515"/>
			<point x="149.157" y="493" type="curve" smooth="yes"/>
			<point x="73.157" y="480"/>
			<point x="54.157" y="450"/>
			<point x="46.157" y="410" type="curve" smooth="yes"/>
			<point x="37.157" y="363"/>
			<point x="56.157" y="324"/>
			<point x="106.157" y="324" type="curve" smooth="yes"/>
			<point x="178.157" y="324"/>
			<point x="256.157" y="374"/>
		</contour>
		<contour>
			<point x="489.157" y="24" type="curve" smooth="yes"/>
			<point x="543.157" y="24"/>
			<point x="563.157" y="48"/>
			<point x="569.157" y="82" type="curve" smooth="yes"/>
			<point x="581.157" y="139"/>
			<point x="542.157" y="175"/>
			<point x="463.157" y="175" type="curve" smooth="yes"/>
			<point x="345.157" y="175"/>
			<point x="218.157" y="171"/>
			<point x="87.157" y="153" type="curve" smooth="yes"/>
			<point x="8.157" y="142"/>
			<point x="-13.843" y="112"/>
			<point x="-21.843" y="72" type="curve" smooth="yes"/>
			<point x="-30.843" y="25"/>
			<point x="-11.843" y="-14"/>
			<point x="38.157" y="-14" type="curve" smooth="yes"/>
			<point x="106.157" y="-14"/>
			<point x="192.157" y="24"/>
		</contour>
	</outline>
</glyph>
<glyph name="perthousand" format="2">
	<unicode hex="2030"/>
	<advance width="1438"/>
	<outline>
		<contour>
			<point x="829" y="523" type="curve" smooth="yes"/>
			<point x="937" y="606"/>
			<point x="929" y="715"/>
			<point x="859" y="715" type="curve" smooth="yes"/>
			<point x="830" y="715"/>
			<point x="795" y="702"/>
			<point x="750" y="666" type="curve" smooth="yes"/>
			<point x="594" y="543"/>
			<point x="374" y="331"/>
			<point x="206" y="119" type="curve" smooth="yes"/>
			<point x="155" y="57"/>
			<point x="188" y="-21"/>
			<point x="249" y="-21" type="curve" smooth="yes"/>
			<point x="281" y="-21"/>
			<point x="312" y="-1"/>
			<point x="341" y="37" type="curve" smooth="yes"/>
			<point x="501" y="243"/>
			<point x="648" y="384"/>
		</contour>
		<contour>
			<point x="277" y="347" type="curve" smooth="yes"/>
			<point x="379" y="347"/>
			<point x="474" y="419"/>
			<point x="493" y="516" type="curve" smooth="yes"/>
			<point x="516" y="634"/>
			<point x="456" y="708"/>
			<point x="327" y="708" type="curve" smooth="yes"/>
			<point x="278" y="708"/>
			<point x="244" y="675"/>
			<point x="235" y="628" type="curve" smooth="yes"/>
			<point x="224" y="575"/>
			<point x="261" y="556"/>
			<point x="307" y="556" type="curve" smooth="yes"/>
			<point x="321" y="556"/>
			<point x="328" y="547"/>
			<point x="326" y="534" type="curve" smooth="yes"/>
			<point x="322" y="517"/>
			<point x="309" y="504"/>
			<point x="294" y="504" type="curve" smooth="yes"/>
			<point x="276" y="504"/>
			<point x="266" y="514"/>
			<point x="269" y="529" type="curve" smooth="yes"/>
			<point x="271" y="538"/>
			<point x="281" y="553"/>
			<point x="305" y="567" type="curve" smooth="yes"/>
			<point x="332" y="581"/>
			<point x="354" y="611"/>
			<point x="360" y="638" type="curve" smooth="yes"/>
			<point x="368" y="679"/>
			<point x="340" y="716"/>
			<point x="297" y="716" type="curve" smooth="yes"/>
			<point x="201" y="716"/>
			<point x="114" y="639"/>
			<point x="95" y="546" type="curve" smooth="yes"/>
			<point x="72" y="430"/>
			<point x="148" y="347"/>
		</contour>
		<contour>
			<point x="722" y="-13" type="curve" smooth="yes"/>
			<point x="833" y="-13"/>
			<point x="921" y="52"/>
			<point x="940" y="149" type="curve" smooth="yes"/>
			<point x="967" y="283"/>
			<point x="901" y="368"/>
			<point x="766" y="368" type="curve" smooth="yes"/>
			<point x="716" y="368"/>
			<point x="682" y="341"/>
			<point x="673" y="293" type="curve" smooth="yes"/>
			<point x="661" y="234"/>
			<point x="686" y="216"/>
			<point x="726" y="216" type="curve" smooth="yes"/>
			<point x="760" y="216"/>
			<point x="779" y="199"/>
			<point x="774" y="173" type="curve" smooth="yes"/>
			<point x="770" y="157"/>
			<point x="756" y="144"/>
			<point x="739" y="144" type="curve" smooth="yes"/>
			<point x="720" y="144"/>
			<point x="711" y="156"/>
			<point x="714" y="169" type="curve" smooth="yes"/>
			<point x="718" y="188"/>
			<point x="732" y="202"/>
			<point x="767" y="208" type="curve" smooth="yes"/>
			<point x="784" y="211"/>
			<point x="797" y="238"/>
			<point x="805" y="278" type="curve" smooth="yes"/>
			<point x="812" y="315"/>
			<point x="786" y="336"/>
			<point x="738" y="336" type="curve" smooth="yes"/>
			<point x="655" y="336"/>
			<point x="563" y="275"/>
			<point x="546" y="190" type="curve" smooth="yes"/>
			<point x="524" y="80"/>
			<point x="580" y="-13"/>
		</contour>
		<contour>
			<point x="1165" y="-8" type="curve" smooth="yes"/>
			<point x="1267" y="-8"/>
			<point x="1362" y="64"/>
			<point x="1381" y="161" type="curve" smooth="yes"/>
			<point x="1404" y="279"/>
			<point x="1344" y="353"/>
			<point x="1215" y="353" type="curve" smooth="yes"/>
			<point x="1166" y="353"/>
			<point x="1132" y="320"/>
			<point x="1123" y="273" type="curve" smooth="yes"/>
			<point x="1112" y="220"/>
			<point x="1149" y="201"/>
			<point x="1195" y="201" type="curve" smooth="yes"/>
			<point x="1209" y="201"/>
			<point x="1216" y="192"/>
			<point x="1214" y="179" type="curve" smooth="yes"/>
			<point x="1210" y="162"/>
			<point x="1197" y="149"/>
			<point x="1182" y="149" type="curve" smooth="yes"/>
			<point x="1164" y="149"/>
			<point x="1154" y="159"/>
			<point x="1157" y="174" type="curve" smooth="yes"/>
			<point x="1159" y="183"/>
			<point x="1169" y="198"/>
			<point x="1193" y="212" type="curve" smooth="yes"/>
			<point x="1220" y="226"/>
			<point x="1242" y="256"/>
			<point x="1248" y="283" type="curve" smooth="yes"/>
			<point x="1256" y="324"/>
			<point x="1228" y="361"/>
			<point x="1185" y="361" type="curve" smooth="yes"/>
			<point x="1089" y="361"/>
			<point x="1002" y="284"/>
			<point x="983" y="191" type="curve" smooth="yes"/>
			<point x="960" y="75"/>
			<point x="1036" y="-8"/>
		</contour>
	</outline>
</glyph>
<glyph name="commercialminussign" format="2">
	<unicode hex="2052"/>
	<advance width="700"/>
	<outline>
		<contour>
			<point x="492.2" y="-10" type="curve" smooth="yes"/>
			<point x="554.2" y="-10"/>
			<point x="593.2" y="29"/>
			<point x="601.2" y="71" type="curve" smooth="yes"/>
			<point x="616.2" y="145"/>
			<point x="598.2" y="219"/>
			<point x="512.2" y="219" type="curve" smooth="yes"/>
			<point x="451.2" y="219"/>
			<point x="395.2" y="182"/>
			<point x="381.2" y="112" type="curve" smooth="yes"/>
			<point x="367.2" y="41"/>
			<point x="401.2" y="-10"/>
		</contour>
		<contour>
			<point x="624.2" y="712" type="curve"/>
			<point x="572.2" y="711"/>
			<point x="542.2" y="698"/>
			<point x="475.2" y="631" type="curve" smooth="yes"/>
			<point x="353.2" y="509"/>
			<point x="213.2" y="316"/>
			<point x="94.2" y="122" type="curve" smooth="yes"/>
			<point x="50.2" y="49"/>
			<point x="70.2" y="-9"/>
			<point x="142.2" y="-10" type="curve"/>
			<point x="206.2" y="-10"/>
			<point x="245.2" y="23"/>
			<point x="280.2" y="77" type="curve" smooth="yes"/>
			<point x="397.2" y="256"/>
			<point x="476.2" y="365"/>
			<point x="636.2" y="536" type="curve" smooth="yes"/>
			<point x="726.2" y="632"/>
			<point x="720.2" y="712"/>
		</contour>
		<contour>
			<point x="210.2" y="482" type="curve" smooth="yes"/>
			<point x="283.2" y="482"/>
			<point x="329.2" y="526"/>
			<point x="339.2" y="575" type="curve" smooth="yes"/>
			<point x="352.2" y="641"/>
			<point x="328.2" y="711"/>
			<point x="235.2" y="711" type="curve" smooth="yes"/>
			<point x="182.2" y="711"/>
			<point x="132.2" y="676"/>
			<point x="119.2" y="612" type="curve" smooth="yes"/>
			<point x="104.2" y="534"/>
			<point x="138.2" y="482"/>
		</contour>
	</outline>
</glyph>
